<?xml version="1.0" encoding="UTF-8" standalone="no"?>
<svg
   xmlns:osb="http://www.openswatchbook.org/uri/2009/osb"
   xmlns:dc="http://purl.org/dc/elements/1.1/"
   xmlns:cc="http://creativecommons.org/ns#"
   xmlns:rdf="http://www.w3.org/1999/02/22-rdf-syntax-ns#"
   xmlns:svg="http://www.w3.org/2000/svg"
   xmlns="http://www.w3.org/2000/svg"
   height="70"
   width="200"
   viewBox="0 0 200 70"
   version="1.1"
   id="svg5">
  <metadata
     id="metadata11">
    <rdf:RDF>
      <cc:Work
         rdf:about="">
        <dc:format>image/svg+xml</dc:format>
        <dc:type
           rdf:resource="http://purl.org/dc/dcmitype/StillImage" />
        <dc:title></dc:title>
      </cc:Work>
    </rdf:RDF>
  </metadata>
  <defs
     id="defs9">
    <linearGradient
       id="linearGradient2789"
       osb:paint="solid">
      <stop
         style="stop-color:#000000;stop-opacity:1;"
         offset="0"
         id="stop2787" />
    </linearGradient>
    <linearGradient
       id="linearGradient857"
       osb:paint="gradient">
      <stop
         style="stop-color:#000000;stop-opacity:1;"
         offset="0"
         id="stop853" />
      <stop
         style="stop-color:#000000;stop-opacity:0;"
         offset="1"
         id="stop855" />
    </linearGradient>
    <linearGradient
       id="linearGradient849"
       osb:paint="gradient">
      <stop
         style="stop-color:#000000;stop-opacity:1;"
         offset="0"
         id="stop845" />
      <stop
         style="stop-color:#000000;stop-opacity:0;"
         offset="1"
         id="stop847" />
    </linearGradient>
  </defs>
  <g
     aria-label="Z-Blog"
     transform="scale(0.95455115,1.0476128)"
     id="text852"
     style="font-style:normal;font-variant:normal;font-weight:normal;font-stretch:normal;font-size:44.7848px;line-height:1.25;font-family:'Eras Demi ITC';-inkscape-font-specification:'Eras Demi ITC';font-variant-ligatures:normal;font-variant-caps:normal;font-variant-numeric:normal;font-variant-east-asian:normal;letter-spacing:1px;fill:#000000;fill-opacity:1;stroke:none;stroke-width:8.3971" />
  <g
     aria-label="for PHP"
     transform="scale(1.0595062,0.94383592)"
     id="text856"
     style="font-style:normal;font-weight:normal;font-size:13.1193px;line-height:1.25;font-family:sans-serif;fill:#000000;fill-opacity:1;stroke:none;stroke-width:2.45986" />
  <path
     id="path2822"
     style="font-style:normal;font-variant:normal;font-weight:normal;font-stretch:normal;font-size:14.6667px;line-height:1.25;font-family:'Eras Bold ITC';-inkscape-font-specification:'Eras Bold ITC';fill:#ffffff;fill-opacity:1;fill-rule:nonzero;stroke:none;stroke-width:3.02633;stroke-opacity:1"
     d="m 15.776449,11.596962 v 46.3221 h 46.205224 v -46.3221 z m 11.245734,7.971323 c 4.082573,0.02903 8.416683,0.0416 13.002387,0.0416 4.743835,0 8.831608,-0.01244 12.267291,-0.0416 -0.100609,1.524863 -0.165342,2.732206 -0.194048,3.618076 l -0.08821,2.917041 -1.229086,1.200086 c -0.201277,0.203292 -0.398597,0.411908 -0.59985,0.629746 l -13.50225,14.923829 2.958031,0.01748 c 0.704387,0 1.721101,-0.0033 3.057999,-0.01748 l 5.951341,-0.130738 c 0.445635,-0.01452 1.231039,-0.05487 2.352313,-0.112874 -0.158143,2.585012 -0.26595,4.816182 -0.323447,6.689586 -4.5857,-0.02903 -8.747312,-0.0416 -12.484877,-0.0416 h -4.916342 l -5.563208,0.01748 -2.822771,0.024 c 0.172511,-2.991635 0.258752,-5.201023 0.258752,-6.624233 l 1.270244,-1.259553 c 0.172511,-0.174259 1.500246,-1.621237 3.987164,-4.336938 l 7.162782,-7.818171 c 0.833767,-0.943965 1.804089,-2.073413 2.910982,-3.380439 l -1.705422,-0.01778 -1.705424,-0.0237 h -2.993313 c -2.27129,0 -4.673901,0.0779 -7.203945,0.237628 0.129375,-1.568431 0.194078,-3.267556 0.194078,-5.097391 0,-0.348542 0.04468,0.323657 0.01599,-0.271757 z M 164.80284,52.240851 q 0,0.538709 -0.2138,1.001238 -0.20769,0.457088 -0.58641,0.794462 -0.47034,0.418996 -1.11172,0.631215 -0.64138,0.206777 -1.61872,0.206777 h -1.20947 v 3.02004 h -1.20946 V 49.79217 h 2.4678 q 0.81852,0 1.3866,0.125155 0.56808,0.119712 1.00787,0.380906 0.51923,0.310166 0.80021,0.772695 0.2871,0.462528 0.2871,1.169925 z m -1.25833,0.02721 q 0,-0.418997 -0.16493,-0.729163 -0.16492,-0.310167 -0.50089,-0.506061 -0.29321,-0.168686 -0.67193,-0.239426 -0.37261,-0.07618 -0.94679,-0.07618 h -1.19725 v 3.2377 h 1.02011 q 0.733,0 1.19113,-0.114271 0.45812,-0.119713 0.74522,-0.375464 0.2871,-0.261193 0.40316,-0.549593 0.12217,-0.2884 0.12217,-0.64754 z m -7.14071,5.626524 h -1.20947 v -3.966863 h -4.53853 v 3.966863 h -1.20946 V 49.79217 h 1.20946 v 3.177843 h 4.53853 V 49.79217 h 1.20947 z m -8.55785,-5.653732 q 0,0.538709 -0.2138,1.001238 -0.20768,0.457088 -0.58641,0.794462 -0.47034,0.418996 -1.11171,0.631215 -0.64139,0.206777 -1.61874,0.206777 h -1.20946 v 3.02004 h -1.20946 V 49.79217 h 2.46779 q 0.81853,0 1.38661,0.125154 0.56808,0.119712 1.00788,0.380906 0.51922,0.310166 0.8002,0.772695 0.2871,0.462528 0.2871,1.169925 z m -1.25834,0.02721 q 0,-0.418997 -0.16492,-0.729163 -0.16493,-0.310167 -0.5009,-0.506061 -0.29319,-0.168686 -0.67192,-0.239426 -0.37261,-0.07618 -0.94679,-0.07618 h -1.19725 v 3.2377 h 1.0201 q 0.73302,0 1.19115,-0.114271 0.45812,-0.119713 0.74521,-0.375464 0.2871,-0.261193 0.40316,-0.549593 0.12216,-0.2884 0.12216,-0.64754 z m -10.27431,0.663864 h -0.0611 q -0.25655,-0.05441 -0.50088,-0.07618 -0.23823,-0.02721 -0.56808,-0.02721 -0.53144,0 -1.02621,0.21222 -0.49478,0.206777 -0.95292,0.53871 v 4.31512 h -1.14837 v -6.078171 h 1.14837 v 0.89785 q 0.68415,-0.489736 1.20336,-0.691072 0.52533,-0.206778 1.06896,-0.206778 0.29931,0 0.4337,0.01633 0.13439,0.01088 0.40316,0.04897 z m -6.04119,1.926296 q 0,1.485533 -0.85517,2.345293 -0.85518,0.859759 -2.29066,0.859759 -1.44768,0 -2.30285,-0.859759 -0.84907,-0.85976 -0.84907,-2.345293 0,-1.485533 0.84907,-2.345292 0.85517,-0.865201 2.30285,-0.865201 1.43548,0 2.29066,0.865201 0.85517,0.859759 0.85517,2.345292 z m -1.18503,0 q 0,-1.180809 -0.51921,-1.752167 -0.51921,-0.576801 -1.44159,-0.576801 -0.93457,0 -1.45378,0.576801 -0.51312,0.571358 -0.51312,1.752167 0,1.142718 0.51922,1.735843 0.51922,0.587684 1.44768,0.587684 0.91627,0 1.43548,-0.582243 0.52532,-0.587683 0.52532,-1.741284 z m -5.35705,-4.440275 h -0.0611 q -0.18935,-0.04897 -0.49478,-0.09795 -0.30541,-0.05441 -0.53754,-0.05441 -0.73911,0 -1.07508,0.293841 -0.32985,0.288401 -0.32985,1.050212 v 0.206778 h 2.07075 v 0.859759 h -2.0341 v 5.218411 h -1.14837 v -5.21841 h -0.77577 V 51.81642 h 0.77577 v -0.201336 q 0,-1.082862 0.60472,-1.659662 0.60474,-0.582241 1.747,-0.582241 0.38483,0 0.69025,0.03264 0.31153,0.03265 0.56808,0.07618 z m 42.93145,1.208457 q 4.22694,1.525723 7.32668,1.525723 1.18354,0 2.23558,-0.329886 1.05203,-0.309268 1.76592,-0.927804 0.71388,-0.597919 1.10839,-1.649431 0.39451,-1.030893 0.52602,-2.412292 0.13151,-1.360779 0.20665,-4.144194 -0.73267,1.092748 -1.31505,1.711284 -0.58237,0.597919 -1.40897,1.092748 -0.80782,0.474211 -1.89742,0.762862 -1.08961,0.309268 -2.29194,0.309268 -1.65319,0 -3.13732,-0.556683 -1.48412,-0.577301 -2.64887,-1.793755 -1.14597,-1.216456 -1.74713,-3.051446 -0.60117,-1.85561 -0.60117,-3.855544 0,-2.865885 0.97689,-5.422503 0.99568,-2.556617 2.89309,-4.206047 1.91621,-1.64943 4.07665,-2.267967 2.17922,-0.618537 4.82809,-0.618537 1.46534,0 3.32518,0.20618 1.85985,0.185561 4.92202,0.783479 l -0.43208,6.535868 -0.39451,8.185298 -0.15029,7.401819 q -0.0563,1.25769 -0.2818,2.412292 -0.22544,1.175219 -0.71387,2.103024 -0.48845,0.948422 -1.23991,1.670049 -0.75145,0.721625 -1.70956,1.1546 -0.93931,0.453594 -2.34829,0.742245 -1.39019,0.288649 -2.98703,0.288649 -1.70956,0 -3.88878,-0.247414 -2.17921,-0.247415 -4.75294,-0.927805 z m 13.71404,-21.215798 q -1.63442,-0.371122 -3.0246,-0.371122 -2.44222,0 -4.03907,0.989658 -1.59683,0.969041 -2.46101,2.845268 -0.86417,1.876227 -0.86417,3.979251 0,1.54634 0.52601,2.886503 0.52602,1.319544 1.63442,1.999935 1.12719,0.68039 2.4798,0.68039 0.9581,0 1.7847,-0.329886 0.84539,-0.329887 1.5217,-1.010277 0.67631,-0.68039 1.18354,-1.690666 0.52602,-1.010277 0.73267,-2.267967 0.22543,-1.278309 0.33816,-3.175153 0.1127,-1.917464 0.18785,-4.535934 z m -29.39556,-4.618406 q 2.16043,0 4.13299,0.721627 1.99135,0.701008 3.36276,2.103023 1.39019,1.381398 2.08529,3.401951 0.69509,1.999934 0.69509,4.226664 0,2.350439 -0.73267,4.535935 -0.73266,2.185495 -2.12286,3.793689 -1.39018,1.587577 -3.47547,2.391674 -2.0665,0.78348 -4.4148,0.78348 -2.17921,0 -4.15178,-0.701007 -1.95378,-0.721627 -3.34397,-2.14426 -1.39018,-1.422634 -2.12285,-3.463804 -0.71388,-2.041171 -0.71388,-4.267902 0,-2.267966 0.65752,-4.329754 0.65752,-2.061789 2.04771,-3.669983 1.40898,-1.608194 3.58819,-2.494763 2.17921,-0.88657 4.50873,-0.88657 z m 0,4.247284 q -1.63442,0 -2.93067,0.886568 -1.27747,0.865952 -1.91621,2.597854 -0.61995,1.731902 -0.61995,3.773072 0,1.793755 0.50722,3.195771 0.52603,1.402016 1.69078,2.267967 1.18354,0.865951 2.79916,0.865951 1.6532,0 2.89311,-0.886568 1.25868,-0.907188 1.87863,-2.639089 0.63874,-1.752521 0.63874,-3.855545 0,-1.711284 -0.48845,-3.113299 -0.48845,-1.402016 -1.6532,-2.247349 -1.14596,-0.845333 -2.79916,-0.845333 z m -21.33621,17.21593 q 0.28179,-3.484421 0.6763,-12.515054 0.4133,-9.051248 0.50722,-15.628353 1.95379,0.04124 2.78039,0.04124 1.1084,0 2.70524,-0.04124 l -0.45087,7.525527 -0.65753,16.782955 -0.0752,3.834925 q -1.54047,-0.04124 -2.61129,-0.04124 -0.35695,0 -2.87431,0.04124 z m -25.67588,0 q 0.35695,-4.370991 0.48845,-7.154404 0.1315,-2.783414 0.33816,-9.504843 0.20665,-6.721429 0.20665,-9.23681 0,-0.762862 -0.0188,-2.24735 2.36709,0.04124 3.92635,0.04124 1.57805,0 3.88877,-0.06185 2.31072,-0.06185 3.81363,-0.06185 2.10407,0 3.15611,0.206179 1.07082,0.18556 1.89742,0.577301 0.8266,0.391739 1.39018,0.96904 0.5636,0.556683 0.95812,1.340162 0.41329,0.762861 0.60115,1.670049 0.20666,0.886568 0.20666,1.814373 0,1.154601 -0.26302,2.206113 -0.24421,1.030894 -0.73266,1.876226 -0.46966,0.824716 -1.10839,1.422634 -0.63874,0.577301 -1.22112,0.907187 -0.58238,0.329886 -1.55927,0.701008 0.88296,0.206179 1.40897,0.412358 0.52604,0.18556 1.12719,0.597919 0.60117,0.391739 1.12718,1.030894 0.54481,0.618536 0.86417,1.319544 0.31937,0.701007 0.48845,1.566959 0.18786,0.845333 0.18786,1.773138 0,1.979316 -0.78902,3.628746 -0.77024,1.649431 -2.14165,2.618471 -1.3714,0.948423 -3.08096,1.278309 -1.69076,0.309268 -7.21396,0.309268 l -4.5463,-0.02062 z m 6.14314,-16.473687 h 3.0246 q 1.93499,0 2.59253,-0.103089 0.6763,-0.10309 1.40897,-0.39174 0.73267,-0.309268 1.2399,-0.927804 0.50723,-0.639154 0.73266,-1.381398 0.24422,-0.762861 0.24422,-1.546341 0,-0.762862 -0.263,-1.443252 -0.24422,-0.68039 -0.77025,-1.113365 -0.52601,-0.453594 -1.27746,-0.639154 -0.73267,-0.206179 -2.16043,-0.206179 h -4.50873 z m -0.45087,12.432582 h 4.2645 q 1.29626,0 2.01014,-0.103089 0.73267,-0.123707 1.39019,-0.412358 0.65752,-0.288649 1.03325,-0.618536 0.37573,-0.329886 0.65752,-0.845333 0.30058,-0.515448 0.46965,-1.154601 0.16909,-0.659772 0.16909,-1.360781 0,-0.948422 -0.30059,-1.670048 -0.30058,-0.721625 -0.90173,-1.237073 -0.58238,-0.536064 -1.37141,-0.762861 -0.78903,-0.247414 -2.40466,-0.247414 h -4.73416 z M 90.878865,38.430958 q 0.169078,-1.999934 0.20665,-4.164812 2.724021,0.08248 4.846878,0.08248 2.141641,0 4.865657,-0.08248 -0.15029,1.75252 -0.20664,4.164812 -2.724022,-0.103089 -4.884454,-0.103089 -2.10407,0 -4.828091,0.103089 z m -23.778444,8.824453 q 0.169077,-2.804032 0.187864,-4.659641 l 0.882958,-1.07213 q 0.05636,-0.06185 1.59684,-2.103024 l 9.205312,-12.102695 2.911884,-3.958633 -1.239899,-0.02062 h -0.469659 l -1.634412,-0.02062 h -2.855526 q -3.531834,0 -6.89459,0.226796 0.112719,-1.608195 0.112719,-3.463803 0,-0.350504 -0.01879,-0.969042 4.903236,0.04124 10.407637,0.04124 l 6.274641,-0.02062 3.419116,-0.02062 q -0.150291,2.24735 -0.187863,4.597789 l -1.277473,1.54634 q -0.375726,0.453594 -0.732666,0.948423 l -6.706728,9.010013 -5.880128,7.711087 1.502908,0.02062 q 6.349787,0 8.172063,-0.04124 1.822275,-0.04124 3.982707,-0.185561 -0.150291,2.886503 -0.187865,4.535934 -5.391682,-0.04124 -9.881619,-0.04124 l -6.932164,0.02062 z" />
</svg>
