<?xml version="1.0" encoding="UTF-8" standalone="no"?>
<svg
   xmlns:osb="http://www.openswatchbook.org/uri/2009/osb"
   xmlns:dc="http://purl.org/dc/elements/1.1/"
   xmlns:cc="http://creativecommons.org/ns#"
   xmlns:rdf="http://www.w3.org/1999/02/22-rdf-syntax-ns#"
   xmlns:svg="http://www.w3.org/2000/svg"
   xmlns="http://www.w3.org/2000/svg"
   height="70"
   width="200"
   viewBox="0 0 200 70"
   version="1.1"
   id="svg5">
  <metadata
     id="metadata11">
    <rdf:RDF>
      <cc:Work
         rdf:about="">
        <dc:format>image/svg+xml</dc:format>
        <dc:type
           rdf:resource="http://purl.org/dc/dcmitype/StillImage" />
        <dc:title></dc:title>
      </cc:Work>
    </rdf:RDF>
  </metadata>
  <defs
     id="defs9">
    <linearGradient
       id="linearGradient2789"
       osb:paint="solid">
      <stop
         style="stop-color:#000000;stop-opacity:1;"
         offset="0"
         id="stop2787" />
    </linearGradient>
    <linearGradient
       id="linearGradient857"
       osb:paint="gradient">
      <stop
         style="stop-color:#000000;stop-opacity:1;"
         offset="0"
         id="stop853" />
      <stop
         style="stop-color:#000000;stop-opacity:0;"
         offset="1"
         id="stop855" />
    </linearGradient>
    <linearGradient
       id="linearGradient849"
       osb:paint="gradient">
      <stop
         style="stop-color:#000000;stop-opacity:1;"
         offset="0"
         id="stop845" />
      <stop
         style="stop-color:#000000;stop-opacity:0;"
         offset="1"
         id="stop847" />
    </linearGradient>
  </defs>
  <g
     style="font-style:normal;font-weight:normal;font-size:44.7848px;line-height:1.25;font-family:sans-serif;fill:#000000;fill-opacity:1;stroke:none;stroke-width:8.3971"
     id="text852"
     transform="matrix(0.85909604,0,0,0.94285152,10.113939,3.4830116)"
     aria-label="Z-Blog">
    <path
       id="path842"
       style="font-style:normal;font-variant:normal;font-weight:normal;font-stretch:normal;font-size:44.7848px;font-family:'Eras Bd BT';-inkscape-font-specification:'Eras Bd BT';stroke-width:8.3971"
       d="m 65.41302,47.618736 0.349882,-7.04136 14.782483,-16.160141 h -9.315589 q -0.349881,0 -1.049643,0.04373 -0.699763,0.04374 -2.755315,0.174941 l 0.349881,-6.669612 h 23.57325 L 90.97622,24.788984 76.193737,40.99286 h 8.878237 q 0.459219,0 1.727539,-0.0656 1.290187,-0.0656 3.367607,-0.196808 l -0.393617,6.888287 z" />
    <path
       id="path844"
       style="font-style:normal;font-variant:normal;font-weight:normal;font-stretch:normal;font-size:44.7848px;font-family:'Eras Bd BT';-inkscape-font-specification:'Eras Bd BT';stroke-width:8.3971"
       d="M 104.66533,39.199718 H 93.993947 l 0.415484,-6.625876 h 10.649509 z" />
    <path
       id="path846"
       style="font-style:normal;font-variant:normal;font-weight:normal;font-stretch:normal;font-size:44.7848px;font-family:'Eras Bd BT';-inkscape-font-specification:'Eras Bd BT';stroke-width:8.3971"
       d="m 118.59497,29.665454 h 2.01182 q 2.55851,0 3.69562,-0.743498 1.13711,-0.765365 1.13711,-2.449168 0,-1.618201 -0.85283,-2.252361 -0.85284,-0.656027 -3.0396,-0.656027 h -2.60224 q -0.0219,0.218675 -0.0875,1.180849 -0.0437,0.962173 -0.0875,1.683803 z m -0.45922,12.311447 h 3.45508 q 2.38357,0 3.52068,-0.874703 1.13711,-0.896571 1.13711,-2.755315 0,-1.683804 -0.98404,-2.514772 -0.96217,-0.852835 -2.90839,-0.852835 h -4.0455 l -0.1312,2.449169 q -0.0219,0.459219 -0.0437,1.071511 0,0.612292 0,1.946214 z m 6.80082,-24.010602 q 4.98581,0 7.23817,1.618201 2.27423,1.596333 2.27423,5.095146 0,3.017726 -1.83688,4.96394 -1.83688,1.946215 -5.20448,2.471037 3.78309,0.349881 5.61996,2.099287 1.85875,1.749407 1.85875,4.985808 0,4.089238 -2.77719,6.254128 -2.77718,2.16489 -8.0254,2.16489 h -15.61345 q 0.69976,-5.838643 1.09338,-13.317355 0.39362,-7.50058 0.48109,-16.335082 z" />
    <path
       id="path848"
       style="font-style:normal;font-variant:normal;font-weight:normal;font-stretch:normal;font-size:44.7848px;font-family:'Eras Bd BT';-inkscape-font-specification:'Eras Bd BT';stroke-width:8.3971"
       d="m 148.68476,17.966299 q -0.7435,9.03131 -1.13712,16.291347 -0.39361,7.238168 -0.39361,12.46452 v 0.89657 h -8.98758 q 0.72163,-10.190291 1.09338,-17.275387 0.37175,-7.106963 0.45922,-12.37705 z" />
    <path
       id="path850"
       style="font-style:normal;font-variant:normal;font-weight:normal;font-stretch:normal;font-size:44.7848px;font-family:'Eras Bd BT';-inkscape-font-specification:'Eras Bd BT';stroke-width:8.3971"
       d="m 164.167,30.277746 q -2.05555,0 -3.08333,1.574466 -1.02777,1.552598 -1.02777,4.701529 0,2.820918 0.9403,4.176708 0.94031,1.333922 2.90839,1.333922 2.03369,0 3.06146,-1.486995 1.04965,-1.508863 1.04965,-4.417251 0,-3.148931 -0.89657,-4.504721 -0.89657,-1.377658 -2.95213,-1.377658 z m -12.9456,6.407201 q 0,-5.816776 3.54254,-9.140648 3.56442,-3.34574 9.73108,-3.34574 5.92611,0 9.14064,2.995859 3.21454,2.995858 3.21454,8.506488 0,5.860511 -3.52068,9.20625 -3.49881,3.34574 -9.6436,3.34574 -5.99172,0 -9.22812,-2.995858 -3.2364,-2.995859 -3.2364,-8.572091 z" />
    <path
       id="path852"
       style="font-style:normal;font-variant:normal;font-weight:normal;font-stretch:normal;font-size:44.7848px;font-family:'Eras Bd BT';-inkscape-font-specification:'Eras Bd BT';stroke-width:8.3971"
       d="m 182.33896,50.220978 q 2.60225,0.787233 4.61406,1.158982 2.01182,0.393616 3.54255,0.393616 2.73345,0 4.0455,-1.246452 1.33393,-1.224584 1.33393,-3.804958 0,-0.109338 -0.0219,-0.349882 -0.0219,-0.262411 -0.0219,-0.415484 -1.35579,0.830968 -2.90839,1.224585 -1.5526,0.393616 -3.45507,0.393616 -4.57033,0 -7.17257,-2.645977 -2.58038,-2.667845 -2.58038,-7.303771 0,-6.450936 4.22045,-9.906013 4.22044,-3.476946 12.11464,-3.476946 2.47103,0 4.81086,0.306147 2.33983,0.284278 4.41725,0.852835 -0.56855,7.828593 -0.98404,16.138273 -0.41548,8.30968 -0.54669,8.921973 -0.78723,3.783091 -3.65188,5.532497 -2.86465,1.749406 -8.28781,1.749406 -2.2961,0 -4.54846,-0.306146 -2.23049,-0.306146 -4.37352,-0.896571 z m 14.27953,-19.899497 q -0.52482,-0.153073 -1.07151,-0.218675 -0.52482,-0.08747 -1.07151,-0.08747 -2.82092,0 -4.41725,1.793142 -1.57447,1.793141 -1.57447,5.007675 0,2.164891 0.98405,3.389475 0.98404,1.224584 2.68971,1.224584 1.94621,0 2.99586,-1.355789 1.07151,-1.377658 1.20271,-4.045503 z" />
  </g>
  <g
     style="font-style:normal;font-weight:normal;font-size:13.1193px;line-height:1.25;font-family:sans-serif;fill:#000000;fill-opacity:1;stroke:none;stroke-width:2.45986"
     id="text856"
     transform="matrix(0.95355558,0,0,0.84945233,10.113939,3.4830116)"
     aria-label="for PHP">
    <path
       id="path855"
       style="font-size:13.1193px;stroke-width:2.45986"
       d="m 117.29885,55.253168 h -0.0641 q -0.19859,-0.05765 -0.51888,-0.115306 -0.3203,-0.06406 -0.56372,-0.06406 -0.77512,0 -1.12744,0.345919 -0.34592,0.339513 -0.34592,1.23634 v 0.243424 h 2.1716 v 1.012134 h -2.13317 v 6.143266 h -1.20431 V 57.91162 h -0.81355 v -1.012134 h 0.81355 v -0.237018 q 0,-1.274776 0.63419,-1.953802 0.63418,-0.685432 1.83209,-0.685432 0.40357,0 0.72387,0.03843 0.3267,0.03844 0.59575,0.08968 z" />
    <path
       id="path857"
       style="font-size:13.1193px;stroke-width:2.45986"
       d="m 124.15957,60.480389 q 0,1.748813 -0.89682,2.760947 -0.89683,1.012133 -2.40222,1.012133 -1.5182,0 -2.41503,-1.012133 -0.89042,-1.012134 -0.89042,-2.760947 0,-1.748813 0.89042,-2.760946 0.89683,-1.01854 2.41503,-1.01854 1.50539,0 2.40222,1.01854 0.89682,1.012133 0.89682,2.760946 z m -1.24274,0 q 0,-1.390082 -0.54451,-2.062702 -0.5445,-0.679027 -1.51179,-0.679027 -0.9801,0 -1.52461,0.679027 -0.53809,0.67262 -0.53809,2.062702 0,1.345241 0.5445,2.043485 0.5445,0.691838 1.5182,0.691838 0.96089,0 1.50539,-0.685432 0.55091,-0.691838 0.55091,-2.049891 z" />
    <path
       id="path859"
       style="font-size:13.1193px;stroke-width:2.45986"
       d="m 130.49502,58.212698 h -0.0641 q -0.26905,-0.06406 -0.52529,-0.08968 -0.24983,-0.03203 -0.59575,-0.03203 -0.55731,0 -1.07619,0.249831 -0.51888,0.243424 -0.99932,0.634185 v 5.079885 h -1.20431 v -7.1554 h 1.20431 v 1.056975 q 0.71746,-0.576531 1.26196,-0.81355 0.55091,-0.243425 1.12104,-0.243425 0.31389,0 0.45482,0.01922 0.14093,0.01281 0.42279,0.05765 z" />
    <path
       id="path861"
       style="font-size:13.1193px;stroke-width:2.45986"
       d="m 142.58937,57.399147 q 0,0.634185 -0.22421,1.178687 -0.2178,0.538097 -0.61496,0.935263 -0.49326,0.493255 -1.16588,0.743085 -0.67262,0.243425 -1.69756,0.243425 h -1.26837 v 3.555279 h -1.26837 v -9.538397 h 2.58798 q 0.85839,0 1.45414,0.147336 0.59575,0.140929 1.05698,0.448413 0.5445,0.365137 0.83917,0.909639 0.30108,0.544502 0.30108,1.37727 z m -1.31962,0.03203 q 0,-0.493255 -0.17296,-0.858392 -0.17296,-0.365137 -0.52528,-0.595749 -0.30748,-0.198583 -0.70465,-0.28186 -0.39076,-0.08968 -0.99292,-0.08968 h -1.25555 v 3.811515 h 1.06978 q 0.76871,0 1.24915,-0.134524 0.48045,-0.14093 0.78153,-0.442007 0.30107,-0.307484 0.42279,-0.646997 0.12811,-0.339513 0.12811,-0.762303 z" />
    <path
       id="path863"
       style="font-size:13.1193px;stroke-width:2.45986"
       d="m 151.56405,64.054886 h -1.26837 v -4.669907 h -4.75959 v 4.669907 h -1.26837 v -9.538397 h 1.26837 v 3.74105 h 4.75959 v -3.74105 h 1.26837 z" />
    <path
       id="path865"
       style="font-size:13.1193px;stroke-width:2.45986"
       d="m 160.37217,57.399147 q 0,0.634185 -0.22421,1.178687 -0.2178,0.538097 -0.61496,0.935263 -0.49326,0.493255 -1.16588,0.743085 -0.67262,0.243425 -1.69756,0.243425 h -1.26837 v 3.555279 h -1.26837 v -9.538397 h 2.58798 q 0.8584,0 1.45414,0.147336 0.59575,0.140929 1.05698,0.448413 0.5445,0.365137 0.83917,0.909639 0.30108,0.544502 0.30108,1.37727 z m -1.31962,0.03203 q 0,-0.493255 -0.17296,-0.858392 -0.17295,-0.365137 -0.52528,-0.595749 -0.30748,-0.198583 -0.70465,-0.28186 -0.39076,-0.08968 -0.99292,-0.08968 h -1.25555 v 3.811515 h 1.06978 q 0.76871,0 1.24916,-0.134524 0.48044,-0.14093 0.78152,-0.442007 0.30107,-0.307484 0.42279,-0.646997 0.12811,-0.339513 0.12811,-0.762303 z" />
  </g>
  <path
     d="m 15.811327,11.596962 v 46.3221 h 46.205224 v -46.3221 z m 11.245734,7.971323 c 4.082572,0.02903 8.416683,0.0416 13.002387,0.0416 4.743835,0 8.831607,-0.01244 12.267291,-0.0416 -0.10061,1.524863 -0.165342,2.732206 -0.194049,3.618077 l -0.08821,2.91704 -1.229085,1.200086 c -0.201277,0.203292 -0.398597,0.411908 -0.59985,0.629746 l -13.50225,14.923829 2.95803,0.01748 c 0.704387,0 1.721102,-0.0033 3.058,-0.01748 l 5.951341,-0.130738 c 0.445635,-0.01452 1.231039,-0.05487 2.352313,-0.112874 -0.158143,2.585012 -0.26595,4.816182 -0.323447,6.689586 -4.585701,-0.02903 -8.747312,-0.0416 -12.484877,-0.0416 h -4.916342 l -5.563209,0.01748 -2.822771,0.024 c 0.172511,-2.991635 0.258752,-5.201023 0.258752,-6.624232 l 1.270245,-1.259554 c 0.172511,-0.174259 1.500246,-1.621237 3.987164,-4.336938 l 7.162782,-7.818171 c 0.833766,-0.943965 1.804089,-2.073413 2.910982,-3.380439 l -1.705422,-0.01778 -1.705425,-0.0237 H 34.1081 c -2.271291,0 -4.673901,0.0779 -7.203946,0.237628 0.129375,-1.568431 0.194079,-3.267556 0.194079,-5.097391 0,-0.348542 0.04468,0.323657 0.01599,-0.271757 z"
     style="font-style:normal;font-variant:normal;font-weight:normal;font-stretch:normal;font-size:14.6667px;line-height:1.25;font-family:'Eras Bold ITC';-inkscape-font-specification:'Eras Bold ITC';fill:#000000;fill-opacity:1;fill-rule:nonzero;stroke:none;stroke-width:3.02633;stroke-opacity:1"
     id="path2822" />
</svg>
