<svg xmlns='http://www.w3.org/2000/svg' width='72' height='24' viewBox='0 0 72 24'>
<path fill='#07C160' d="M8,9c0.8,0.8,1.2,1.9,1.2,3c0,1.1-0.4,2.2-1.2,3l-3-3C5,12,8,9,8,9z"/>
<path fill='#07C160' d="M35.4,5.5c1.7,1.7,2.7,4.1,2.7,6.5c0,2.4-1,4.8-2.7,6.5L33.9,17c1.3-1.3,2.1-3.1,2.1-5c0-1.9-0.7-3.7-2.1-5
	L35.4,5.5z M32,9c0.8,0.8,1.2,1.9,1.2,3c0,1.1-0.4,2.2-1.2,3l-3-3C29,12,32,9,32,9z"/>
<path fill='#07C160' d="M62.9,2C65.5,4.7,67,8.3,67,12c0,3.7-1.5,7.3-4.1,10l-1.5-1.5c2.2-2.3,3.5-5.3,3.5-8.5c0-3.2-1.3-6.3-3.5-8.5
	L62.9,2L62.9,2z M59.4,5.5c1.7,1.7,2.7,4.1,2.7,6.5c0,2.4-1,4.8-2.7,6.5L57.9,17c1.3-1.3,2.1-3.1,2.1-5c0-1.9-0.7-3.7-2.1-5
	L59.4,5.5z M56,9c0.8,0.8,1.2,1.9,1.2,3c0,1.1-0.4,2.2-1.2,3l-3-3C53,12,56,9,56,9z"/>
</svg>