<?xml version="1.0" encoding="UTF-8" standalone="no"?>
<svg
   xmlns:osb="http://www.openswatchbook.org/uri/2009/osb"
   xmlns:dc="http://purl.org/dc/elements/1.1/"
   xmlns:cc="http://creativecommons.org/ns#"
   xmlns:rdf="http://www.w3.org/1999/02/22-rdf-syntax-ns#"
   xmlns:svg="http://www.w3.org/2000/svg"
   xmlns="http://www.w3.org/2000/svg"
   xmlns:sodipodi="http://sodipodi.sourceforge.net/DTD/sodipodi-0.dtd"
   xmlns:inkscape="http://www.inkscape.org/namespaces/inkscape"
   inkscape:version="1.0 (4035a4fb49, 2020-05-01)"
   sodipodi:docname="zblog-full-logo2.svg"
   id="svg5"
   version="1.1"
   viewBox="0 0 200 70"
   width="200"
   height="70">
  <metadata
     id="metadata11">
    <rdf:RDF>
      <cc:Work
         rdf:about="">
        <dc:format>image/svg+xml</dc:format>
        <dc:type
           rdf:resource="http://purl.org/dc/dcmitype/StillImage" />
        <dc:title></dc:title>
      </cc:Work>
    </rdf:RDF>
  </metadata>
  <defs
     id="defs9">
    <linearGradient
       osb:paint="solid"
       id="linearGradient2789">
      <stop
         id="stop2787"
         offset="0"
         style="stop-color:#000000;stop-opacity:1;" />
    </linearGradient>
    <linearGradient
       osb:paint="gradient"
       id="linearGradient857">
      <stop
         id="stop853"
         offset="0"
         style="stop-color:#000000;stop-opacity:1;" />
      <stop
         id="stop855"
         offset="1"
         style="stop-color:#000000;stop-opacity:0;" />
    </linearGradient>
    <linearGradient
       osb:paint="gradient"
       id="linearGradient849">
      <stop
         id="stop845"
         offset="0"
         style="stop-color:#000000;stop-opacity:1;" />
      <stop
         id="stop847"
         offset="1"
         style="stop-color:#000000;stop-opacity:0;" />
    </linearGradient>
  </defs>
  <sodipodi:namedview
     inkscape:current-layer="svg5"
     inkscape:window-maximized="1"
     inkscape:window-y="-9"
     inkscape:window-x="-9"
     inkscape:cy="32.734033"
     inkscape:cx="101.10087"
     inkscape:zoom="4"
     showgrid="false"
     id="namedview7"
     inkscape:window-height="1001"
     inkscape:window-width="1920"
     inkscape:pageshadow="2"
     inkscape:pageopacity="0"
     guidetolerance="10"
     gridtolerance="10"
     objecttolerance="10"
     borderopacity="1"
     bordercolor="#666666"
     pagecolor="#ffffff"
     inkscape:document-rotation="0" />
  <g
     style="font-style:normal;font-variant:normal;font-weight:normal;font-stretch:normal;font-size:44.7848px;line-height:1.25;font-family:'Eras Demi ITC';-inkscape-font-specification:'Eras Demi ITC';font-variant-ligatures:normal;font-variant-caps:normal;font-variant-numeric:normal;font-variant-east-asian:normal;letter-spacing:1px;fill:#000000;fill-opacity:1;stroke:none;stroke-width:8.3971"
     id="text852"
     transform="scale(0.95455115,1.0476128)"
     aria-label="Z-Blog" />
  <g
     style="font-style:normal;font-weight:normal;font-size:13.1193px;line-height:1.25;font-family:sans-serif;fill:#000000;fill-opacity:1;stroke:none;stroke-width:2.45986"
     id="text856"
     transform="scale(1.0595062,0.94383592)"
     aria-label="for PHP" />
  <path
     d="M 6.330431,9.0155001 V 60.4845 H 57.669569 V 9.0155001 Z m 12.49526,8.8570259 c 4.536192,0.03226 9.35187,0.04622 14.447097,0.04622 5.270928,0 9.812897,-0.01382 13.630323,-0.04622 -0.111788,1.694292 -0.183713,3.035784 -0.215609,4.020085 l -0.09801,3.241156 -1.365651,1.333429 c -0.223641,0.22588 -0.442885,0.457676 -0.6665,0.699718 l -15.0025,16.582032 3.286701,0.01942 c 0.782652,0 1.912335,-0.0037 3.397777,-0.01942 l 6.612601,-0.145264 c 0.49515,-0.01613 1.367821,-0.06097 2.613681,-0.125416 -0.175714,2.872236 -0.2955,5.351313 -0.359385,7.432873 -5.095223,-0.03226 -9.719236,-0.04622 -13.872086,-0.04622 h -5.462602 l -6.181343,0.01942 -3.136412,0.02667 c 0.191679,-3.324039 0.287502,-5.778914 0.287502,-7.360258 l 1.411383,-1.399504 c 0.191679,-0.193621 1.66694,-1.801374 4.430182,-4.81882 l 7.958647,-8.686857 c 0.926407,-1.04885 2.004543,-2.303792 3.234424,-3.756043 l -1.894913,-0.01975 -1.894916,-0.02633 h -3.325903 c -2.523656,0 -5.193223,0.08655 -8.004384,0.264031 0.14375,-1.742701 0.215643,-3.630618 0.215643,-5.663768 0,-0.387268 0.04964,0.359619 0.01777,-0.301952 z M 171.91531,54.175377 q 0,0.598566 -0.23756,1.112487 -0.23076,0.507875 -0.65156,0.882735 -0.5226,0.465551 -1.23525,0.70135 -0.71264,0.229753 -1.79858,0.229753 h -1.34385 v 3.3556 h -1.34384 v -9.002681 h 2.74199 q 0.90947,0 1.54067,0.139061 0.6312,0.133013 1.11986,0.423228 0.57692,0.344629 0.88912,0.85855 0.319,0.51392 0.319,1.299917 z m -1.39815,0.03023 q 0,-0.465552 -0.18325,-0.810181 -0.18325,-0.34463 -0.55655,-0.56229 -0.32578,-0.187429 -0.74658,-0.266029 -0.41401,-0.08464 -1.05199,-0.08464 h -1.33028 v 3.597445 h 1.13345 q 0.81445,0 1.32348,-0.126968 0.50903,-0.133015 0.82803,-0.417182 0.31899,-0.290215 0.44795,-0.610659 0.13574,-0.320445 0.13574,-0.719489 z m -7.93412,6.251694 h -1.34385 v -4.407626 h -5.04281 v 4.407626 h -1.34385 v -9.002681 h 1.34385 v 3.530937 h 5.04281 v -3.530937 h 1.34385 z m -9.50872,-6.281925 q 0,0.598566 -0.23755,1.112487 -0.23076,0.507875 -0.65157,0.882735 -0.5226,0.465551 -1.23524,0.70135 -0.71265,0.229753 -1.79859,0.229753 h -1.34385 v 3.3556 h -1.34384 v -9.002681 h 2.74199 q 0.90947,0 1.54067,0.139061 0.6312,0.133013 1.11987,0.423228 0.57691,0.344629 0.88911,0.85855 0.319,0.51392 0.319,1.299917 z m -1.39815,0.03023 q 0,-0.465552 -0.18325,-0.810181 -0.18325,-0.34463 -0.55655,-0.56229 -0.32577,-0.187429 -0.74658,-0.266029 -0.41401,-0.08464 -1.05199,-0.08464 h -1.33028 v 3.597445 h 1.13345 q 0.81446,0 1.32349,-0.126968 0.50903,-0.133015 0.82802,-0.417182 0.319,-0.290215 0.44795,-0.610659 0.13574,-0.320445 0.13574,-0.719489 z m -11.4159,0.737627 h -0.0679 q -0.28506,-0.06046 -0.55654,-0.08464 -0.2647,-0.03023 -0.6312,-0.03023 -0.59049,0 -1.14023,0.2358 -0.54976,0.229752 -1.0588,0.598566 v 4.794578 h -1.27597 v -6.753523 h 1.27597 v 0.997611 q 0.76017,-0.544151 1.33707,-0.767858 0.58369,-0.229753 1.18773,-0.229753 0.33257,0 0.48189,0.01814 0.14932,0.01209 0.44795,0.05441 z m -6.71244,2.140329 q 0,1.650592 -0.95019,2.605881 -0.9502,0.955287 -2.54517,0.955287 -1.60854,0 -2.55873,-0.955287 -0.94341,-0.955289 -0.94341,-2.605881 0,-1.650593 0.94341,-2.60588 0.95019,-0.961335 2.55873,-0.961335 1.59497,0 2.54517,0.961335 0.95019,0.955287 0.95019,2.60588 z m -1.3167,0 q 0,-1.31201 -0.5769,-1.946853 -0.5769,-0.64089 -1.60176,-0.64089 -1.03842,0 -1.61532,0.64089 -0.57013,0.634843 -0.57013,1.946853 0,1.269686 0.57691,1.928714 0.57691,0.652982 1.60854,0.652982 1.01807,0 1.59497,-0.646936 0.58369,-0.652981 0.58369,-1.93476 z m -5.95228,-4.933639 h -0.0679 q -0.21039,-0.05441 -0.54975,-0.10883 -0.33935,-0.06046 -0.59727,-0.06046 -0.82123,0 -1.19453,0.32649 -0.3665,0.320445 -0.3665,1.166902 v 0.229753 h 2.30083 v 0.955288 h -2.26011 v 5.798235 h -1.27597 v -5.798234 h -0.86196 v -0.955288 h 0.86196 v -0.223706 q 0,-1.20318 0.67192,-1.844069 0.67193,-0.646935 1.94111,-0.646935 0.42759,0 0.76694,0.03627 0.34614,0.03628 0.6312,0.08464 z m 47.70162,1.34273 q 4.69659,1.695248 8.14075,1.695248 1.31505,0 2.48398,-0.36654 1.16892,-0.343632 1.96213,-1.030894 0.7932,-0.664354 1.23155,-1.832701 0.43834,-1.145437 0.58446,-2.680324 0.14612,-1.511977 0.22961,-4.60466 -0.81407,1.214164 -1.46116,1.901426 -0.64708,0.664355 -1.56553,1.214165 -0.89757,0.526901 -2.10824,0.847624 -1.21068,0.343631 -2.5466,0.343631 -1.83688,0 -3.48591,-0.618536 -1.64902,-0.641446 -2.94319,-1.993062 -1.2733,-1.351617 -1.94126,-3.390495 -0.66796,-2.061789 -0.66796,-4.283938 0,-3.184317 1.08543,-6.025003 1.10631,-2.840686 3.21455,-4.673386 2.12912,-1.8327 4.52961,-2.519963 2.42135,-0.687263 5.36454,-0.687263 1.62816,0 3.69465,0.229088 2.0665,0.206179 5.46891,0.870533 l -0.48009,7.262075 -0.43835,9.094776 -0.16699,8.224243 q -0.0626,1.397434 -0.31311,2.680325 -0.25048,1.305799 -0.79319,2.336693 -0.54272,1.053802 -1.37767,1.85561 -0.83495,0.801806 -1.89951,1.282889 -1.04368,0.503993 -2.60921,0.824716 -1.54466,0.320722 -3.31893,0.320722 -1.89951,0 -4.32086,-0.274905 -2.42135,-0.274905 -5.28105,-1.030894 z m 15.23782,-23.573109 q -1.81602,-0.412358 -3.36067,-0.412358 -2.71358,0 -4.48785,1.09962 -1.77426,1.076712 -2.73446,3.161409 -0.96019,2.084697 -0.96019,4.42139 0,1.718156 0.58446,3.207226 0.58446,1.46616 1.81602,2.222149 1.25243,0.755989 2.75533,0.755989 1.06456,0 1.983,-0.36654 0.93932,-0.366541 1.69078,-1.12253 0.75145,-0.755989 1.31504,-1.878517 0.58447,-1.12253 0.81408,-2.519964 0.25048,-1.420343 0.37573,-3.527948 0.12523,-2.130515 0.20873,-5.039926 z m -32.66174,-5.131562 q 2.40048,0 4.59222,0.801807 2.21261,0.778898 3.7364,2.336693 1.54465,1.534886 2.31698,3.779945 0.77233,2.222149 0.77233,4.696294 0,2.611598 -0.81408,5.039927 -0.81407,2.428328 -2.35873,4.21521 -1.54465,1.763975 -3.86164,2.657416 -2.29611,0.870533 -4.90533,0.870533 -2.42135,0 -4.61309,-0.778897 -2.17087,-0.801807 -3.71552,-2.382511 -1.54465,-1.580704 -2.35873,-3.848671 -0.7932,-2.267967 -0.7932,-4.742113 0,-2.519962 0.73058,-4.810838 0.73058,-2.290876 2.27524,-4.077759 1.56553,-1.786882 3.98687,-2.771959 2.42135,-0.985077 5.0097,-0.985077 z m 0,4.719204 q -1.81602,0 -3.2563,0.985076 -1.41941,0.962168 -2.12912,2.886504 -0.68883,1.924336 -0.68883,4.192302 0,1.993061 0.56358,3.550857 0.58447,1.557795 1.87864,2.519963 1.31504,0.962168 3.11018,0.962168 1.83689,0 3.21456,-0.985076 1.39854,-1.007986 2.08737,-2.932321 0.70971,-1.947245 0.70971,-4.283938 0,-1.901427 -0.54272,-3.459222 -0.54272,-1.557795 -1.83689,-2.497054 -1.27329,-0.939259 -3.11018,-0.939259 z m -23.7069,19.128811 q 0.3131,-3.871579 0.75145,-13.905615 0.45922,-10.056943 0.56358,-17.364837 2.17087,0.04582 3.08932,0.04582 1.23155,0 3.00582,-0.04582 l -0.50097,8.361697 -0.73058,18.647727 -0.0835,4.261028 q -1.71164,-0.04582 -2.90144,-0.04582 -0.39661,0 -3.19368,0.04582 z m -28.52875,0 q 0.39661,-4.856656 0.54272,-7.949338 0.14611,-3.092682 0.37573,-10.560936 0.22961,-7.468255 0.22961,-10.263123 0,-0.847624 -0.0209,-2.497055 2.6301,0.04582 4.36262,0.04582 1.75338,0 4.32085,-0.06872 2.56747,-0.06872 4.23737,-0.06872 2.33785,0 3.50679,0.229088 1.1898,0.206178 2.10824,0.641445 0.91845,0.435266 1.54465,1.076711 0.62622,0.618537 1.06457,1.489069 0.45922,0.847624 0.66795,1.85561 0.22962,0.985076 0.22962,2.01597 0,1.28289 -0.29224,2.451237 -0.27135,1.145438 -0.81407,2.084696 -0.52185,0.916351 -1.23155,1.580704 -0.70971,0.641446 -1.3568,1.007986 -0.64708,0.36654 -1.73252,0.778897 0.98107,0.229088 1.56553,0.458176 0.58448,0.206178 1.25243,0.664354 0.66796,0.435266 1.25242,1.145438 0.60534,0.687262 0.96019,1.46616 0.35486,0.778897 0.54272,1.741066 0.20874,0.939259 0.20874,1.970153 0,2.19924 -0.87669,4.03194 -0.85583,1.832701 -2.37961,2.909412 -1.52378,1.053803 -3.42329,1.420343 -1.87863,0.343632 -8.01551,0.343632 l -5.05145,-0.02291 z m 6.82571,-18.304096 h 3.36067 q 2.14999,0 2.88058,-0.114544 0.75145,-0.114544 1.56553,-0.435266 0.81407,-0.343632 1.37766,-1.030894 0.56359,-0.710171 0.81407,-1.534887 0.27136,-0.847623 0.27136,-1.718156 0,-0.847625 -0.29223,-1.603613 -0.27135,-0.755989 -0.85583,-1.237073 -0.58446,-0.503993 -1.4194,-0.710171 -0.81408,-0.229088 -2.40048,-0.229088 h -5.0097 z m -0.50097,13.81398 h 4.73834 q 1.44028,0 2.23348,-0.114544 0.81408,-0.137452 1.54466,-0.458175 0.73058,-0.320722 1.14806,-0.687263 0.41747,-0.36654 0.73057,-0.939258 0.33398,-0.57272 0.52184,-1.282891 0.18787,-0.73308 0.18787,-1.511978 0,-1.053803 -0.33398,-1.855609 -0.33398,-0.801806 -1.00193,-1.374526 -0.64709,-0.595627 -1.52379,-0.847623 -0.8767,-0.274905 -2.67184,-0.274905 h -5.26018 z M 89.77756,38.831052 q 0.187864,-2.222149 0.229611,-4.627569 3.02669,0.09164 5.38542,0.09164 2.379601,0 5.406289,-0.09164 -0.16699,1.947244 -0.2296,4.627569 -3.026695,-0.114544 -5.427174,-0.114544 -2.337856,0 -5.364546,0.114544 z m -26.420493,9.804947 q 0.187863,-3.115591 0.208737,-5.177379 l 0.981065,-1.191255 q 0.06262,-0.06872 1.774266,-2.336693 L 76.54926,26.483233 79.784687,22.084752 78.407021,22.06184 h -0.521843 l -1.816014,-0.02291 h -3.172806 q -3.92426,0 -7.660656,0.251996 0.125243,-1.786883 0.125243,-3.84867 0,-0.389449 -0.02088,-1.076713 5.448041,0.04582 11.564042,0.04582 l 6.971823,-0.02291 3.799018,-0.02291 q -0.16699,2.497055 -0.208737,5.108654 l -1.419414,1.718156 q -0.417474,0.503993 -0.814074,1.053803 l -7.45192,10.011126 -6.533475,8.567874 1.669898,0.02291 q 7.055318,0 9.080069,-0.04582 2.024751,-0.04582 4.42523,-0.206179 -0.16699,3.207226 -0.208738,5.039927 -5.990758,-0.04582 -10.979577,-0.04582 l -7.702404,0.02291 z"
     style="font-style:normal;font-variant:normal;font-weight:normal;font-stretch:normal;font-size:14.6667px;line-height:1.25;font-family:'Eras Bold ITC';-inkscape-font-specification:'Eras Bold ITC';fill:#000000;fill-opacity:1;fill-rule:nonzero;stroke:none;stroke-width:3.36259;stroke-opacity:1"
     id="path2822" />
</svg>
