<?xml version="1.0" encoding="UTF-8" standalone="no"?>
<svg
   xmlns:osb="http://www.openswatchbook.org/uri/2009/osb"
   xmlns:dc="http://purl.org/dc/elements/1.1/"
   xmlns:cc="http://creativecommons.org/ns#"
   xmlns:rdf="http://www.w3.org/1999/02/22-rdf-syntax-ns#"
   xmlns:svg="http://www.w3.org/2000/svg"
   xmlns="http://www.w3.org/2000/svg"
   xmlns:sodipodi="http://sodipodi.sourceforge.net/DTD/sodipodi-0.dtd"
   xmlns:inkscape="http://www.inkscape.org/namespaces/inkscape"
   inkscape:version="1.0 (4035a4fb49, 2020-05-01)"
   sodipodi:docname="zblog-full-logo.svg"
   id="svg5"
   version="1.1"
   viewBox="0 0 200 70"
   width="200"
   height="70">
  <metadata
     id="metadata11">
    <rdf:RDF>
      <cc:Work
         rdf:about="">
        <dc:format>image/svg+xml</dc:format>
        <dc:type
           rdf:resource="http://purl.org/dc/dcmitype/StillImage" />
        <dc:title></dc:title>
      </cc:Work>
    </rdf:RDF>
  </metadata>
  <defs
     id="defs9">
    <linearGradient
       osb:paint="solid"
       id="linearGradient2789">
      <stop
         id="stop2787"
         offset="0"
         style="stop-color:#000000;stop-opacity:1;" />
    </linearGradient>
    <linearGradient
       osb:paint="gradient"
       id="linearGradient857">
      <stop
         id="stop853"
         offset="0"
         style="stop-color:#000000;stop-opacity:1;" />
      <stop
         id="stop855"
         offset="1"
         style="stop-color:#000000;stop-opacity:0;" />
    </linearGradient>
    <linearGradient
       osb:paint="gradient"
       id="linearGradient849">
      <stop
         id="stop845"
         offset="0"
         style="stop-color:#000000;stop-opacity:1;" />
      <stop
         id="stop847"
         offset="1"
         style="stop-color:#000000;stop-opacity:0;" />
    </linearGradient>
  </defs>
  <sodipodi:namedview
     inkscape:current-layer="svg5"
     inkscape:window-maximized="1"
     inkscape:window-y="-9"
     inkscape:window-x="-9"
     inkscape:cy="32.734033"
     inkscape:cx="106.35087"
     inkscape:zoom="4"
     showgrid="false"
     id="namedview7"
     inkscape:window-height="1001"
     inkscape:window-width="1920"
     inkscape:pageshadow="2"
     inkscape:pageopacity="0"
     guidetolerance="10"
     gridtolerance="10"
     objecttolerance="10"
     borderopacity="1"
     bordercolor="#666666"
     pagecolor="#ffffff"
     inkscape:document-rotation="0" />
  <text
     xml:space="preserve"
     style="font-style:normal;font-weight:normal;font-size:44.7848px;line-height:1.25;font-family:sans-serif;fill:#000000;fill-opacity:1;stroke:none;stroke-width:8.3971"
     x="64.60392"
     y="47.618736"
     id="text852"
     transform="scale(0.95455115,1.0476128)"><tspan
       sodipodi:role="line"
       id="tspan850"
       x="64.60392"
       y="47.618736"
       style="font-style:normal;font-variant:normal;font-weight:normal;font-stretch:normal;font-size:44.7848px;font-family:'Eras Bd BT';-inkscape-font-specification:'Eras Bd BT';stroke-width:8.3971">Z-Blog</tspan></text>
  <text
     xml:space="preserve"
     style="font-style:normal;font-weight:normal;font-size:13.1193px;line-height:1.25;font-family:sans-serif;fill:#000000;fill-opacity:1;stroke:none;stroke-width:2.45986"
     x="112.2638"
     y="64.054886"
     id="text856"
     transform="scale(1.0595062,0.94383592)"><tspan
       sodipodi:role="line"
       id="tspan854"
       x="112.2638"
       y="64.054886"
       style="font-size:13.1193px;stroke-width:2.45986">for PHP</tspan></text>
  <path
     sodipodi:nodetypes="ccccccscccccccccccsccccccccccscscc"
     id="path2822"
     style="font-style:normal;font-variant:normal;font-weight:normal;font-stretch:normal;font-size:14.6667px;line-height:1.25;font-family:'Eras Bold ITC';-inkscape-font-specification:'Eras Bold ITC';fill:#000000;fill-opacity:1;fill-rule:nonzero;stroke:none;stroke-width:3.36259;stroke-opacity:1"
     d="M 6.330431,9.0155001 V 60.4845 H 57.669569 V 9.0155001 Z m 12.49526,8.8570259 c 4.536192,0.03226 9.35187,0.04622 14.447097,0.04622 5.270928,0 9.812897,-0.01382 13.630323,-0.04622 -0.111788,1.694292 -0.183713,3.035784 -0.215609,4.020085 l -0.09801,3.241156 -1.365651,1.333429 c -0.223641,0.22588 -0.442885,0.457676 -0.6665,0.699718 l -15.0025,16.582032 3.286701,0.01942 c 0.782652,0 1.912335,-0.0037 3.397777,-0.01942 l 6.612601,-0.145264 c 0.49515,-0.01613 1.367821,-0.06097 2.613681,-0.125416 -0.175714,2.872236 -0.2955,5.351313 -0.359385,7.432873 -5.095223,-0.03226 -9.719236,-0.04622 -13.872086,-0.04622 h -5.462602 l -6.181343,0.01942 -3.136412,0.02667 c 0.191679,-3.324039 0.287502,-5.778914 0.287502,-7.360258 l 1.411383,-1.399504 c 0.191679,-0.193621 1.66694,-1.801374 4.430182,-4.81882 l 7.958647,-8.686857 c 0.926407,-1.04885 2.004543,-2.303792 3.234424,-3.756043 l -1.894913,-0.01975 -1.894916,-0.02633 h -3.325903 c -2.523656,0 -5.193223,0.08655 -8.004384,0.264031 0.14375,-1.742701 0.215643,-3.630618 0.215643,-5.663768 0,-0.387268 0.04964,0.359619 0.01777,-0.301952 z" />
</svg>
