<?xml version="1.0" encoding="UTF-8" standalone="no"?>
<svg
   xmlns:dc="http://purl.org/dc/elements/1.1/"
   xmlns:cc="http://creativecommons.org/ns#"
   xmlns:rdf="http://www.w3.org/1999/02/22-rdf-syntax-ns#"
   xmlns:svg="http://www.w3.org/2000/svg"
   xmlns="http://www.w3.org/2000/svg"
   xmlns:sodipodi="http://sodipodi.sourceforge.net/DTD/sodipodi-0.dtd"
   xmlns:inkscape="http://www.inkscape.org/namespaces/inkscape"
   inkscape:version="1.0 (4035a4fb49, 2020-05-01)"
   sodipodi:docname="arrow-repeat.svg"
   id="svg6"
   version="1.1"
   fill="currentColor"
   class="bi bi-arrow-repeat"
   viewBox="0 0 16 16"
   height="1em"
   width="1em">
  <metadata
     id="metadata12">
    <rdf:RDF>
      <cc:Work
         rdf:about="">
        <dc:format>image/svg+xml</dc:format>
        <dc:type
           rdf:resource="http://purl.org/dc/dcmitype/StillImage" />
      </cc:Work>
    </rdf:RDF>
  </metadata>
  <defs
     id="defs10" />
  <sodipodi:namedview
     inkscape:current-layer="svg6"
     inkscape:window-maximized="1"
     inkscape:window-y="-9"
     inkscape:window-x="-9"
     inkscape:cy="7.2289157"
     inkscape:cx="8"
     inkscape:zoom="51.875"
     showgrid="false"
     id="namedview8"
     inkscape:window-height="1001"
     inkscape:window-width="1920"
     inkscape:pageshadow="2"
     inkscape:pageopacity="0"
     guidetolerance="10"
     gridtolerance="10"
     objecttolerance="10"
     borderopacity="1"
     bordercolor="#666666"
     pagecolor="#ffffff" />
  <path
     style="stroke-width:0.0226403"
     id="path193"
     d="m 12.366217,7.8650602 h -2.17347 l 2.886639,2.8866398 2.9206,-2.8866398 h -2.17347 q 0,-2.3772325 -1.715003,-4.0922361 -1.715003,-1.7150034 -4.0922363,-1.7150034 -1.6980233,0 -3.0904023,0.9169325 l 1.0527744,1.0527745 q 0.9169326,-0.509407 2.0376279,-0.509407 1.7999045,0 3.0734223,1.2735174 1.273518,1.2735175 1.273518,3.0734221 z M 2.9591673,4.9784207 0.03856736,7.8650602 H 2.2120371 q 0,2.3772328 1.7150036,4.0922358 1.7150034,1.715004 4.092236,1.715004 1.6980231,0 3.0904023,-0.916933 L 10.056905,11.702593 Q 9.1060115,12.212 8.0192767,12.212 6.2193721,12.212 4.9458547,10.938482 3.6723371,9.6649648 3.6723371,7.8650602 h 2.1734698 z" />
</svg>
