<?xml version="1.0" encoding="UTF-8" standalone="no"?>
<svg
   xmlns:osb="http://www.openswatchbook.org/uri/2009/osb"
   xmlns:dc="http://purl.org/dc/elements/1.1/"
   xmlns:cc="http://creativecommons.org/ns#"
   xmlns:rdf="http://www.w3.org/1999/02/22-rdf-syntax-ns#"
   xmlns:svg="http://www.w3.org/2000/svg"
   xmlns="http://www.w3.org/2000/svg"
   xmlns:sodipodi="http://sodipodi.sourceforge.net/DTD/sodipodi-0.dtd"
   xmlns:inkscape="http://www.inkscape.org/namespaces/inkscape"
   inkscape:version="1.0 (4035a4fb49, 2020-05-01)"
   sodipodi:docname="arrow-right-circle-fill.svg"
   id="svg4"
   version="1.1"
   fill="currentColor"
   class="bi bi-arrow-right-circle-fill"
   viewBox="0 0 16 16"
   height="1em"
   width="1em">
  <metadata
     id="metadata10">
    <rdf:RDF>
      <cc:Work
         rdf:about="">
        <dc:format>image/svg+xml</dc:format>
        <dc:type
           rdf:resource="http://purl.org/dc/dcmitype/StillImage" />
      </cc:Work>
    </rdf:RDF>
  </metadata>
  <defs
     id="defs8">
    <linearGradient
       osb:paint="solid"
       id="linearGradient2785">
      <stop
         id="stop2783"
         offset="0"
         style="stop-color:#000000;stop-opacity:1;" />
    </linearGradient>
  </defs>
  <sodipodi:namedview
     inkscape:current-layer="svg4"
     inkscape:window-maximized="1"
     inkscape:window-y="-9"
     inkscape:window-x="-9"
     inkscape:cy="8"
     inkscape:cx="8"
     inkscape:zoom="51.875"
     showgrid="false"
     id="namedview6"
     inkscape:window-height="1001"
     inkscape:window-width="1920"
     inkscape:pageshadow="2"
     inkscape:pageopacity="0"
     guidetolerance="10"
     gridtolerance="10"
     objecttolerance="10"
     borderopacity="1"
     bordercolor="#666666"
     pagecolor="#ffffff" />
  <path
     d="M 8.0390625,0 A 8,8 0 0 0 0,8 8,8 0 0 0 16,8 8,8 0 0 0 8.0390625,0 Z m 0.4707031,4.5 a 0.5006316,0.5006316 0 0 1 0.34375,0.1464844 l 3.0000004,3 a 0.5,0.5 0 0 1 0,0.7070312 L 8.8535156,11.353516 A 0.5006316,0.5006316 0 0 1 8.1464844,10.646484 L 10.292969,8.5 H 4.5 a 0.5,0.5 0 0 1 0,-1 h 5.792969 L 8.1464844,5.3535156 A 0.5006316,0.5006316 0 0 1 8.5097656,4.5 Z"
     style="fill:#000000;fill-opacity:1;fill-rule:evenodd"
     id="path2" />
</svg>
