<?xml version="1.0" encoding="UTF-8" standalone="no"?>
<svg
   xmlns:dc="http://purl.org/dc/elements/1.1/"
   xmlns:cc="http://creativecommons.org/ns#"
   xmlns:rdf="http://www.w3.org/1999/02/22-rdf-syntax-ns#"
   xmlns:svg="http://www.w3.org/2000/svg"
   xmlns="http://www.w3.org/2000/svg"
   xmlns:sodipodi="http://sodipodi.sourceforge.net/DTD/sodipodi-0.dtd"
   xmlns:inkscape="http://www.inkscape.org/namespaces/inkscape"
   inkscape:version="1.0 (4035a4fb49, 2020-05-01)"
   sodipodi:docname="arrow-down-left-circle-fill.svg"
   id="svg4"
   version="1.1"
   fill="currentColor"
   class="bi bi-arrow-down-circle-fill"
   viewBox="0 0 16 16"
   height="1em"
   width="1em">
  <metadata
     id="metadata10">
    <rdf:RDF>
      <cc:Work
         rdf:about="">
        <dc:format>image/svg+xml</dc:format>
        <dc:type
           rdf:resource="http://purl.org/dc/dcmitype/StillImage" />
        <dc:title></dc:title>
      </cc:Work>
    </rdf:RDF>
  </metadata>
  <defs
     id="defs8" />
  <sodipodi:namedview
     inkscape:current-layer="svg4"
     inkscape:window-maximized="1"
     inkscape:window-y="-9"
     inkscape:window-x="-9"
     inkscape:cy="7.2289157"
     inkscape:cx="7.4120482"
     inkscape:zoom="51.875"
     showgrid="false"
     id="namedview6"
     inkscape:window-height="1001"
     inkscape:window-width="1920"
     inkscape:pageshadow="2"
     inkscape:pageopacity="0"
     guidetolerance="10"
     gridtolerance="10"
     objecttolerance="10"
     borderopacity="1"
     bordercolor="#666666"
     pagecolor="#ffffff" />
  <path
     id="path2"
     d="M 13.659729,13.656968 A 8,8 0 1 1 2.3460211,2.3432595 8,8 0 0 1 13.659729,13.656968 Z M 10.831302,5.8787934 A 0.50000001,0.50000001 0 0 0 10.124195,5.1716866 L 6.0279261,9.267956 6.028633,6.2323467 a 0.5006316,0.5006316 0 1 0 -1.0012629,0 l 2e-7,4.2426403 a 0.5,0.5 0 0 0 0.500631,0.500631 l 4.2426406,10e-7 a 0.5006316,0.5006316 0 0 0 -10e-8,-1.0012635 l -3.035609,7.071e-4 z"
     fill-rule="evenodd" />
</svg>
