<?xml version="1.0" encoding="UTF-8" standalone="no"?>
<svg
   xmlns:dc="http://purl.org/dc/elements/1.1/"
   xmlns:cc="http://creativecommons.org/ns#"
   xmlns:rdf="http://www.w3.org/1999/02/22-rdf-syntax-ns#"
   xmlns:svg="http://www.w3.org/2000/svg"
   xmlns="http://www.w3.org/2000/svg"
   xmlns:sodipodi="http://sodipodi.sourceforge.net/DTD/sodipodi-0.dtd"
   xmlns:inkscape="http://www.inkscape.org/namespaces/inkscape"
   inkscape:version="1.0 (4035a4fb49, 2020-05-01)"
   sodipodi:docname="arrow-up-right-circle-fill.svg"
   id="svg850"
   version="1.1"
   fill="currentColor"
   class="bi bi-arrow-up-right-circle-fill"
   viewBox="0 0 16 16"
   height="1em"
   width="1em">
  <metadata
     id="metadata856">
    <rdf:RDF>
      <cc:Work
         rdf:about="">
        <dc:format>image/svg+xml</dc:format>
        <dc:type
           rdf:resource="http://purl.org/dc/dcmitype/StillImage" />
      </cc:Work>
    </rdf:RDF>
  </metadata>
  <defs
     id="defs854" />
  <sodipodi:namedview
     inkscape:current-layer="svg850"
     inkscape:window-maximized="1"
     inkscape:window-y="-9"
     inkscape:window-x="-9"
     inkscape:cy="8"
     inkscape:cx="8"
     inkscape:zoom="51.875"
     showgrid="false"
     id="namedview852"
     inkscape:window-height="1001"
     inkscape:window-width="1920"
     inkscape:pageshadow="2"
     inkscape:pageopacity="0"
     guidetolerance="10"
     gridtolerance="10"
     objecttolerance="10"
     borderopacity="1"
     bordercolor="#666666"
     pagecolor="#ffffff" />
  <path
     d="M 8.0390625,0 A 8,8 0 0 0 0,8 8,8 0 0 0 16,8 8,8 0 0 0 8.0390625,0 Z M 6.4746094,5.0253906 a 0.5,0.5 0 0 1 0.025391,0 h 3.974609 a 0.5,0.5 0 0 1 0.5,0.5 V 9.5 a 0.5,0.5 0 0 1 -0.9999996,0 V 6.7324219 L 5.8789062,10.828125 A 0.5,0.5 0 1 1 5.171875,10.121094 L 9.2675781,6.0253906 H 6.5 a 0.50016114,0.50016114 0 0 1 -0.025391,-1 z"
     style="fill:#000000;fill-opacity:1;fill-rule:evenodd"
     id="path848" />
</svg>
