<?xml version="1.0" encoding="UTF-8" standalone="no"?>
<svg
   xmlns:dc="http://purl.org/dc/elements/1.1/"
   xmlns:cc="http://creativecommons.org/ns#"
   xmlns:rdf="http://www.w3.org/1999/02/22-rdf-syntax-ns#"
   xmlns:svg="http://www.w3.org/2000/svg"
   xmlns="http://www.w3.org/2000/svg"
   xmlns:sodipodi="http://sodipodi.sourceforge.net/DTD/sodipodi-0.dtd"
   xmlns:inkscape="http://www.inkscape.org/namespaces/inkscape"
   inkscape:version="1.0 (4035a4fb49, 2020-05-01)"
   sodipodi:docname="bag-x-fill.svg"
   id="svg2572"
   version="1.1"
   fill="currentColor"
   class="bi bi-bag-x-fill"
   viewBox="0 0 16 16"
   height="1em"
   width="1em">
  <metadata
     id="metadata2578">
    <rdf:RDF>
      <cc:Work
         rdf:about="">
        <dc:format>image/svg+xml</dc:format>
        <dc:type
           rdf:resource="http://purl.org/dc/dcmitype/StillImage" />
      </cc:Work>
    </rdf:RDF>
  </metadata>
  <defs
     id="defs2576" />
  <sodipodi:namedview
     inkscape:current-layer="svg2572"
     inkscape:window-maximized="1"
     inkscape:window-y="-9"
     inkscape:window-x="-9"
     inkscape:cy="8"
     inkscape:cx="8"
     inkscape:zoom="51.875"
     showgrid="false"
     id="namedview2574"
     inkscape:window-height="1001"
     inkscape:window-width="1920"
     inkscape:pageshadow="2"
     inkscape:pageopacity="0"
     guidetolerance="10"
     gridtolerance="10"
     objecttolerance="10"
     borderopacity="1"
     bordercolor="#666666"
     pagecolor="#ffffff" />
  <path
     d="M 7.9921875,0.5 A 3.5,3.5 0 0 0 4.5,4 H 1 v 10 a 2,2 0 0 0 2,2 h 10 a 2,2 0 0 0 2,-2 V 4 H 11.5 A 3.5,3.5 0 0 0 7.9921875,0.5 Z M 8.0625,1.5 A 2.5,2.5 0 0 1 10.5,4 h -5 A 2.5,2.5 0 0 1 8.0625,1.5 Z M 6.4765625,8 A 0.5006316,0.5006316 0 0 1 6.8535156,8.1464844 L 8,9.2929688 9.1464844,8.1464844 A 0.5006316,0.5006316 0 0 1 9.8535156,8.8535156 L 8.7070312,10 9.8535156,11.146484 A 0.5006316,0.5006316 0 0 1 9.1464844,11.853516 L 8,10.707031 6.8535156,11.853516 A 0.5006316,0.5006316 0 0 1 6.1464844,11.146484 L 7.2929688,10 6.1464844,8.8535156 A 0.5006316,0.5006316 0 0 1 6.4765625,8 Z"
     style="fill:#000000;fill-opacity:1;fill-rule:evenodd"
     id="path2570" />
</svg>
