<?xml version="1.0" encoding="UTF-8" standalone="no"?>
<svg
   xmlns:dc="http://purl.org/dc/elements/1.1/"
   xmlns:cc="http://creativecommons.org/ns#"
   xmlns:rdf="http://www.w3.org/1999/02/22-rdf-syntax-ns#"
   xmlns:svg="http://www.w3.org/2000/svg"
   xmlns="http://www.w3.org/2000/svg"
   xmlns:sodipodi="http://sodipodi.sourceforge.net/DTD/sodipodi-0.dtd"
   xmlns:inkscape="http://www.inkscape.org/namespaces/inkscape"
   inkscape:version="1.0 (4035a4fb49, 2020-05-01)"
   sodipodi:docname="bookmark-x-fill.svg"
   id="svg847"
   version="1.1"
   fill="currentColor"
   class="bi bi-bookmark-x-fill"
   viewBox="0 0 16 16"
   height="1em"
   width="1em">
  <metadata
     id="metadata853">
    <rdf:RDF>
      <cc:Work
         rdf:about="">
        <dc:format>image/svg+xml</dc:format>
        <dc:type
           rdf:resource="http://purl.org/dc/dcmitype/StillImage" />
      </cc:Work>
    </rdf:RDF>
  </metadata>
  <defs
     id="defs851" />
  <sodipodi:namedview
     inkscape:current-layer="svg847"
     inkscape:window-maximized="1"
     inkscape:window-y="-9"
     inkscape:window-x="-9"
     inkscape:cy="8"
     inkscape:cx="8"
     inkscape:zoom="51.875"
     showgrid="false"
     id="namedview849"
     inkscape:window-height="1001"
     inkscape:window-width="1920"
     inkscape:pageshadow="2"
     inkscape:pageopacity="0"
     guidetolerance="10"
     gridtolerance="10"
     objecttolerance="10"
     borderopacity="1"
     bordercolor="#666666"
     pagecolor="#ffffff" />
  <path
     d="M 4,0 A 2,2 0 0 0 2,2 v 13.5 a 0.5,0.5 0 0 0 0.7402344,0.439453 L 8,13.068359 13.259766,15.939453 A 0.5,0.5 0 0 0 14,15.5 V 2 A 2,2 0 0 0 12,0 Z M 6.4765625,5 A 0.5006316,0.5006316 0 0 1 6.8535156,5.1464844 L 8,6.2929688 9.1464844,5.1464844 A 0.5006316,0.5006316 0 0 1 9.8535156,5.8535156 L 8.7070312,7 9.8535156,8.1464844 A 0.5006316,0.5006316 0 0 1 9.1464844,8.8535156 L 8,7.7070312 6.8535156,8.8535156 A 0.5006316,0.5006316 0 0 1 6.1464844,8.1464844 L 7.2929688,7 6.1464844,5.8535156 A 0.5006316,0.5006316 0 0 1 6.4765625,5 Z"
     style="fill:#000000;fill-opacity:1;fill-rule:evenodd"
     id="path845" />
</svg>
