<?xml version="1.0" encoding="UTF-8" standalone="no"?>
<svg
   xmlns:dc="http://purl.org/dc/elements/1.1/"
   xmlns:cc="http://creativecommons.org/ns#"
   xmlns:rdf="http://www.w3.org/1999/02/22-rdf-syntax-ns#"
   xmlns:svg="http://www.w3.org/2000/svg"
   xmlns="http://www.w3.org/2000/svg"
   xmlns:sodipodi="http://sodipodi.sourceforge.net/DTD/sodipodi-0.dtd"
   xmlns:inkscape="http://www.inkscape.org/namespaces/inkscape"
   inkscape:version="1.0 (4035a4fb49, 2020-05-01)"
   sodipodi:docname="bookmark-check-fill.svg"
   id="svg3154"
   version="1.1"
   fill="currentColor"
   class="bi bi-bookmark-check-fill"
   viewBox="0 0 16 16"
   height="1em"
   width="1em">
  <metadata
     id="metadata3160">
    <rdf:RDF>
      <cc:Work
         rdf:about="">
        <dc:format>image/svg+xml</dc:format>
        <dc:type
           rdf:resource="http://purl.org/dc/dcmitype/StillImage" />
      </cc:Work>
    </rdf:RDF>
  </metadata>
  <defs
     id="defs3158" />
  <sodipodi:namedview
     inkscape:current-layer="svg3154"
     inkscape:window-maximized="1"
     inkscape:window-y="-9"
     inkscape:window-x="-9"
     inkscape:cy="8"
     inkscape:cx="8"
     inkscape:zoom="51.875"
     showgrid="false"
     id="namedview3156"
     inkscape:window-height="1001"
     inkscape:window-width="1920"
     inkscape:pageshadow="2"
     inkscape:pageopacity="0"
     guidetolerance="10"
     gridtolerance="10"
     objecttolerance="10"
     borderopacity="1"
     bordercolor="#666666"
     pagecolor="#ffffff" />
  <path
     d="M 4,0 A 2,2 0 0 0 2,2 v 13.5 a 0.5,0.5 0 0 0 0.7402344,0.439453 L 8,13.068359 13.259766,15.939453 A 0.5,0.5 0 0 0 14,15.5 V 2 A 2,2 0 0 0 12,0 Z m 6.490234,5 a 0.5006316,0.5006316 0 0 1 0.363282,0.8535156 l -3.0000004,3 a 0.5,0.5 0 0 1 -0.7070312,0 l -1.5,-1.5 A 0.5006316,0.5006316 0 1 1 6.3535156,6.6464844 L 7.5,7.7929688 10.146484,5.1464844 A 0.5006316,0.5006316 0 0 1 10.490234,5 Z"
     style="fill:#000000;fill-opacity:1;fill-rule:evenodd"
     id="path3152" />
</svg>
