<?xml version="1.0" encoding="UTF-8" standalone="no"?>
<svg
   xmlns:dc="http://purl.org/dc/elements/1.1/"
   xmlns:cc="http://creativecommons.org/ns#"
   xmlns:rdf="http://www.w3.org/1999/02/22-rdf-syntax-ns#"
   xmlns:svg="http://www.w3.org/2000/svg"
   xmlns="http://www.w3.org/2000/svg"
   xmlns:sodipodi="http://sodipodi.sourceforge.net/DTD/sodipodi-0.dtd"
   xmlns:inkscape="http://www.inkscape.org/namespaces/inkscape"
   inkscape:version="1.0 (4035a4fb49, 2020-05-01)"
   sodipodi:docname="box-arrow-up.svg"
   id="svg6"
   version="1.1"
   fill="currentColor"
   class="bi bi-box-arrow-up"
   viewBox="0 0 16 16"
   height="1em"
   width="1em">
  <metadata
     id="metadata12">
    <rdf:RDF>
      <cc:Work
         rdf:about="">
        <dc:format>image/svg+xml</dc:format>
        <dc:type
           rdf:resource="http://purl.org/dc/dcmitype/StillImage" />
      </cc:Work>
    </rdf:RDF>
  </metadata>
  <defs
     id="defs10" />
  <sodipodi:namedview
     inkscape:current-layer="svg6"
     inkscape:window-maximized="0"
     inkscape:window-y="0"
     inkscape:window-x="0"
     inkscape:cy="8"
     inkscape:cx="8"
     inkscape:zoom="51.875"
     showgrid="false"
     id="namedview8"
     inkscape:window-height="480"
     inkscape:window-width="883"
     inkscape:pageshadow="2"
     inkscape:pageopacity="0"
     guidetolerance="10"
     gridtolerance="10"
     objecttolerance="10"
     borderopacity="1"
     bordercolor="#666666"
     pagecolor="#ffffff" />
  <g
     style="opacity:1"
     id="g843">
    <path
       id="path845"
       d="m 10.5,5.5 h 2 c 0.552285,0 1,0.4477153 1,1 v 8 c 0,0.552285 -0.447715,1 -1,1 h -9 c -0.5522847,0 -1,-0.447715 -1,-1 v -8 c 0,-0.5522847 0.4477153,-1 1,-1 h 2"
       style="color:#000000;font-style:normal;font-variant:normal;font-weight:normal;font-stretch:normal;font-size:medium;line-height:normal;font-family:sans-serif;font-variant-ligatures:normal;font-variant-position:normal;font-variant-caps:normal;font-variant-numeric:normal;font-variant-alternates:normal;font-variant-east-asian:normal;font-feature-settings:normal;font-variation-settings:normal;text-indent:0;text-align:start;text-decoration:none;text-decoration-line:none;text-decoration-style:solid;text-decoration-color:#000000;letter-spacing:normal;word-spacing:normal;text-transform:none;writing-mode:lr-tb;direction:ltr;text-orientation:mixed;dominant-baseline:auto;baseline-shift:baseline;text-anchor:start;white-space:normal;shape-padding:0;shape-margin:0;inline-size:0;clip-rule:nonzero;display:inline;overflow:visible;visibility:visible;isolation:auto;mix-blend-mode:normal;color-interpolation:sRGB;color-interpolation-filters:linearRGB;solid-color:#000000;solid-opacity:1;vector-effect:none;fill:#000000;fill-opacity:1;fill-rule:nonzero;stroke:none;stroke-width:1;stroke-linecap:round;stroke-linejoin:miter;stroke-miterlimit:4;stroke-dasharray:none;stroke-dashoffset:0;stroke-opacity:1;color-rendering:auto;image-rendering:auto;shape-rendering:auto;text-rendering:auto;enable-background:accumulate;stop-color:#000000;stop-opacity:1" />
    <path
       id="path847"
       d="M 3.5,5 C 2.6774952,5 2,5.6774952 2,6.5 v 8 C 2,15.322505 2.6774952,16 3.5,16 h 9 c 0.822505,0 1.5,-0.677495 1.5,-1.5 v -8 C 14,5.6774952 13.322505,5 12.5,5 h -2 A 0.5,0.5 0 0 0 10,5.5 0.5,0.5 0 0 0 10.5,6 h 2 C 12.782065,6 13,6.2179353 13,6.5 v 8 c 0,0.282065 -0.217935,0.5 -0.5,0.5 h -9 C 3.2179353,15 3,14.782065 3,14.5 v -8 C 3,6.2179353 3.2179353,6 3.5,6 h 2 A 0.5,0.5 0 0 0 6,5.5 0.5,0.5 0 0 0 5.5,5 Z"
       style="color:#000000;font-style:normal;font-variant:normal;font-weight:normal;font-stretch:normal;font-size:medium;line-height:normal;font-family:sans-serif;font-variant-ligatures:normal;font-variant-position:normal;font-variant-caps:normal;font-variant-numeric:normal;font-variant-alternates:normal;font-variant-east-asian:normal;font-feature-settings:normal;font-variation-settings:normal;text-indent:0;text-align:start;text-decoration:none;text-decoration-line:none;text-decoration-style:solid;text-decoration-color:#000000;letter-spacing:normal;word-spacing:normal;text-transform:none;writing-mode:lr-tb;direction:ltr;text-orientation:mixed;dominant-baseline:auto;baseline-shift:baseline;text-anchor:start;white-space:normal;shape-padding:0;shape-margin:0;inline-size:0;clip-rule:nonzero;display:inline;overflow:visible;visibility:visible;isolation:auto;mix-blend-mode:normal;color-interpolation:sRGB;color-interpolation-filters:linearRGB;solid-color:#000000;solid-opacity:1;vector-effect:none;fill:#000000;fill-opacity:1;fill-rule:nonzero;stroke:none;stroke-width:1;stroke-linecap:round;stroke-linejoin:miter;stroke-miterlimit:4;stroke-dasharray:none;stroke-dashoffset:0;stroke-opacity:1;color-rendering:auto;image-rendering:auto;shape-rendering:auto;text-rendering:auto;enable-background:accumulate;stop-color:#000000;stop-opacity:1" />
  </g>
  <g
     style="opacity:1"
     id="g837">
    <path
       id="path839"
       d="m 5,3.5 3,-3 m 0,0 3,3 m -3,-3 v 10"
       style="color:#000000;font-style:normal;font-variant:normal;font-weight:normal;font-stretch:normal;font-size:medium;line-height:normal;font-family:sans-serif;font-variant-ligatures:normal;font-variant-position:normal;font-variant-caps:normal;font-variant-numeric:normal;font-variant-alternates:normal;font-variant-east-asian:normal;font-feature-settings:normal;font-variation-settings:normal;text-indent:0;text-align:start;text-decoration:none;text-decoration-line:none;text-decoration-style:solid;text-decoration-color:#000000;letter-spacing:normal;word-spacing:normal;text-transform:none;writing-mode:lr-tb;direction:ltr;text-orientation:mixed;dominant-baseline:auto;baseline-shift:baseline;text-anchor:start;white-space:normal;shape-padding:0;shape-margin:0;inline-size:0;clip-rule:nonzero;display:inline;overflow:visible;visibility:visible;isolation:auto;mix-blend-mode:normal;color-interpolation:sRGB;color-interpolation-filters:linearRGB;solid-color:#000000;solid-opacity:1;vector-effect:none;fill:#000000;fill-opacity:1;fill-rule:nonzero;stroke:none;stroke-width:1;stroke-linecap:round;stroke-linejoin:round;stroke-miterlimit:4;stroke-dasharray:none;stroke-dashoffset:0;stroke-opacity:1;color-rendering:auto;image-rendering:auto;shape-rendering:auto;text-rendering:auto;enable-background:accumulate;stop-color:#000000;stop-opacity:1" />
    <path
       id="path841"
       d="M 7.9765625,0 A 0.5,0.5 0 0 0 7.953125,0.00390625 0.5,0.5 0 0 0 7.9179688,0.0078125 0.5,0.5 0 0 0 7.8730469,0.01757813 0.5,0.5 0 0 0 7.8398438,0.02734375 0.5,0.5 0 0 0 7.8085938,0.0390625 0.5,0.5 0 0 0 7.796875,0.04296875 0.5,0.5 0 0 0 7.7617188,0.06054687 0.5,0.5 0 0 0 7.7265625,0.08203125 0.5,0.5 0 0 0 7.7109375,0.09375 0.5,0.5 0 0 0 7.6992188,0.1015625 0.5,0.5 0 0 0 7.65625,0.13867188 a 0.5,0.5 0 0 0 -0.00391,0.003906 0.5,0.5 0 0 0 -0.00586,0.003906 0.5,0.5 0 0 0 -0.011719,0.0136719 0.5,0.5 0 0 0 -0.00391,0.003906 L 4.646476,3.1464837 a 0.5,0.5 0 0 0 0,0.7070312 0.5,0.5 0 0 0 0.7070312,0 L 7.5,1.7070312 V 10.5 A 0.5,0.5 0 0 0 8,11 0.5,0.5 0 0 0 8.5,10.5 V 1.7070312 l 2.146484,2.1464844 a 0.5,0.5 0 0 0 0.707032,0 0.5,0.5 0 0 0 0,-0.7070312 L 8.3789062,0.171875 A 0.5,0.5 0 0 0 8.3613282,0.15625 0.5,0.5 0 0 0 8.3574182,0.152344 0.5,0.5 0 0 0 8.3398402,0.1347659 0.5,0.5 0 0 0 8.3359302,0.1308599 0.5,0.5 0 0 0 8.3085862,0.1074224 0.5,0.5 0 0 0 8.3007762,0.1015634 0.5,0.5 0 0 0 8.2910156,0.09375 0.5,0.5 0 0 0 8.2753906,0.08398437 0.5,0.5 0 0 0 8.2597656,0.07226562 0.5,0.5 0 0 0 8.2519531,0.06835937 0.5,0.5 0 0 0 8.2109375,0.046875 0.5,0.5 0 0 0 8.2070275,0.0449219 0.5,0.5 0 0 0 8.1855435,0.0351563 0.5,0.5 0 0 0 8.1699185,0.0292969 0.5,0.5 0 0 0 8.1523405,0.0234375 0.5,0.5 0 0 0 8.1328095,0.0175781 a 0.5,0.5 0 0 0 -0.00391,0 0.5,0.5 0 0 0 -0.00586,-0.0019531 0.5,0.5 0 0 0 -0.027344,-0.00585937 0.5,0.5 0 0 0 -0.023437,-0.00390625 0.5,0.5 0 0 0 -0.037109,-0.00390625 0.5,0.5 0 0 0 -0.00586,0 A 0.5,0.5 0 0 0 8,0 0.5,0.5 0 0 0 7.9921875,0 0.5,0.5 0 0 0 7.9765625,0 Z"
       style="color:#000000;font-style:normal;font-variant:normal;font-weight:normal;font-stretch:normal;font-size:medium;line-height:normal;font-family:sans-serif;font-variant-ligatures:normal;font-variant-position:normal;font-variant-caps:normal;font-variant-numeric:normal;font-variant-alternates:normal;font-variant-east-asian:normal;font-feature-settings:normal;font-variation-settings:normal;text-indent:0;text-align:start;text-decoration:none;text-decoration-line:none;text-decoration-style:solid;text-decoration-color:#000000;letter-spacing:normal;word-spacing:normal;text-transform:none;writing-mode:lr-tb;direction:ltr;text-orientation:mixed;dominant-baseline:auto;baseline-shift:baseline;text-anchor:start;white-space:normal;shape-padding:0;shape-margin:0;inline-size:0;clip-rule:nonzero;display:inline;overflow:visible;visibility:visible;isolation:auto;mix-blend-mode:normal;color-interpolation:sRGB;color-interpolation-filters:linearRGB;solid-color:#000000;solid-opacity:1;vector-effect:none;fill:#000000;fill-opacity:1;fill-rule:nonzero;stroke:none;stroke-width:1;stroke-linecap:round;stroke-linejoin:round;stroke-miterlimit:4;stroke-dasharray:none;stroke-dashoffset:0;stroke-opacity:1;color-rendering:auto;image-rendering:auto;shape-rendering:auto;text-rendering:auto;enable-background:accumulate;stop-color:#000000;stop-opacity:1" />
  </g>
</svg>
