<?xml version="1.0" encoding="UTF-8" standalone="no"?>
<svg
   xmlns:dc="http://purl.org/dc/elements/1.1/"
   xmlns:cc="http://creativecommons.org/ns#"
   xmlns:rdf="http://www.w3.org/1999/02/22-rdf-syntax-ns#"
   xmlns:svg="http://www.w3.org/2000/svg"
   xmlns="http://www.w3.org/2000/svg"
   xmlns:sodipodi="http://sodipodi.sourceforge.net/DTD/sodipodi-0.dtd"
   xmlns:inkscape="http://www.inkscape.org/namespaces/inkscape"
   inkscape:version="1.0 (4035a4fb49, 2020-05-01)"
   sodipodi:docname="box-arrow-in-down.svg"
   id="svg6"
   version="1.1"
   fill="currentColor"
   class="bi bi-box-arrow-in-down"
   viewBox="0 0 16 16"
   height="1em"
   width="1em">
  <metadata
     id="metadata12">
    <rdf:RDF>
      <cc:Work
         rdf:about="">
        <dc:format>image/svg+xml</dc:format>
        <dc:type
           rdf:resource="http://purl.org/dc/dcmitype/StillImage" />
      </cc:Work>
    </rdf:RDF>
  </metadata>
  <defs
     id="defs10" />
  <sodipodi:namedview
     inkscape:current-layer="svg6"
     inkscape:window-maximized="1"
     inkscape:window-y="-9"
     inkscape:window-x="-9"
     inkscape:cy="8"
     inkscape:cx="8"
     inkscape:zoom="51.875"
     showgrid="false"
     id="namedview8"
     inkscape:window-height="1001"
     inkscape:window-width="1920"
     inkscape:pageshadow="2"
     inkscape:pageopacity="0"
     guidetolerance="10"
     gridtolerance="10"
     objecttolerance="10"
     borderopacity="1"
     bordercolor="#666666"
     pagecolor="#ffffff" />
  <g
     style="opacity:1"
     id="g843">
    <path
       id="path845"
       d="m 10.5,5.5 h 2 c 0.552285,0 1,0.4477153 1,1 v 8 c 0,0.552285 -0.447715,1 -1,1 h -9 c -0.5522847,0 -1,-0.447715 -1,-1 v -8 c 0,-0.5522847 0.4477153,-1 1,-1 h 2"
       style="color:#000000;font-style:normal;font-variant:normal;font-weight:normal;font-stretch:normal;font-size:medium;line-height:normal;font-family:sans-serif;font-variant-ligatures:normal;font-variant-position:normal;font-variant-caps:normal;font-variant-numeric:normal;font-variant-alternates:normal;font-variant-east-asian:normal;font-feature-settings:normal;font-variation-settings:normal;text-indent:0;text-align:start;text-decoration:none;text-decoration-line:none;text-decoration-style:solid;text-decoration-color:#000000;letter-spacing:normal;word-spacing:normal;text-transform:none;writing-mode:lr-tb;direction:ltr;text-orientation:mixed;dominant-baseline:auto;baseline-shift:baseline;text-anchor:start;white-space:normal;shape-padding:0;shape-margin:0;inline-size:0;clip-rule:nonzero;display:inline;overflow:visible;visibility:visible;isolation:auto;mix-blend-mode:normal;color-interpolation:sRGB;color-interpolation-filters:linearRGB;solid-color:#000000;solid-opacity:1;vector-effect:none;fill:#000000;fill-opacity:1;fill-rule:nonzero;stroke:none;stroke-width:1;stroke-linecap:round;stroke-linejoin:miter;stroke-miterlimit:4;stroke-dasharray:none;stroke-dashoffset:0;stroke-opacity:1;color-rendering:auto;image-rendering:auto;shape-rendering:auto;text-rendering:auto;enable-background:accumulate;stop-color:#000000;stop-opacity:1" />
    <path
       id="path847"
       d="M 3.5,5 C 2.6774952,5 2,5.6774952 2,6.5 v 8 C 2,15.322505 2.6774952,16 3.5,16 h 9 c 0.822505,0 1.5,-0.677495 1.5,-1.5 v -8 C 14,5.6774952 13.322505,5 12.5,5 h -2 A 0.5,0.5 0 0 0 10,5.5 0.5,0.5 0 0 0 10.5,6 h 2 C 12.782065,6 13,6.2179353 13,6.5 v 8 c 0,0.282065 -0.217935,0.5 -0.5,0.5 h -9 C 3.2179353,15 3,14.782065 3,14.5 v -8 C 3,6.2179353 3.2179353,6 3.5,6 h 2 A 0.5,0.5 0 0 0 6,5.5 0.5,0.5 0 0 0 5.5,5 Z"
       style="color:#000000;font-style:normal;font-variant:normal;font-weight:normal;font-stretch:normal;font-size:medium;line-height:normal;font-family:sans-serif;font-variant-ligatures:normal;font-variant-position:normal;font-variant-caps:normal;font-variant-numeric:normal;font-variant-alternates:normal;font-variant-east-asian:normal;font-feature-settings:normal;font-variation-settings:normal;text-indent:0;text-align:start;text-decoration:none;text-decoration-line:none;text-decoration-style:solid;text-decoration-color:#000000;letter-spacing:normal;word-spacing:normal;text-transform:none;writing-mode:lr-tb;direction:ltr;text-orientation:mixed;dominant-baseline:auto;baseline-shift:baseline;text-anchor:start;white-space:normal;shape-padding:0;shape-margin:0;inline-size:0;clip-rule:nonzero;display:inline;overflow:visible;visibility:visible;isolation:auto;mix-blend-mode:normal;color-interpolation:sRGB;color-interpolation-filters:linearRGB;solid-color:#000000;solid-opacity:1;vector-effect:none;fill:#000000;fill-opacity:1;fill-rule:nonzero;stroke:none;stroke-width:1;stroke-linecap:round;stroke-linejoin:miter;stroke-miterlimit:4;stroke-dasharray:none;stroke-dashoffset:0;stroke-opacity:1;color-rendering:auto;image-rendering:auto;shape-rendering:auto;text-rendering:auto;enable-background:accumulate;stop-color:#000000;stop-opacity:1" />
  </g>
  <g
     style="opacity:1"
     id="g837">
    <path
       id="path839"
       d="m 5,8.5 3,3 m 0,0 3,-3 m -3,3 v -10"
       style="color:#000000;font-style:normal;font-variant:normal;font-weight:normal;font-stretch:normal;font-size:medium;line-height:normal;font-family:sans-serif;font-variant-ligatures:normal;font-variant-position:normal;font-variant-caps:normal;font-variant-numeric:normal;font-variant-alternates:normal;font-variant-east-asian:normal;font-feature-settings:normal;font-variation-settings:normal;text-indent:0;text-align:start;text-decoration:none;text-decoration-line:none;text-decoration-style:solid;text-decoration-color:#000000;letter-spacing:normal;word-spacing:normal;text-transform:none;writing-mode:lr-tb;direction:ltr;text-orientation:mixed;dominant-baseline:auto;baseline-shift:baseline;text-anchor:start;white-space:normal;shape-padding:0;shape-margin:0;inline-size:0;clip-rule:nonzero;display:inline;overflow:visible;visibility:visible;isolation:auto;mix-blend-mode:normal;color-interpolation:sRGB;color-interpolation-filters:linearRGB;solid-color:#000000;solid-opacity:1;vector-effect:none;fill:#000000;fill-opacity:1;fill-rule:nonzero;stroke:none;stroke-width:1;stroke-linecap:round;stroke-linejoin:round;stroke-miterlimit:4;stroke-dasharray:none;stroke-dashoffset:0;stroke-opacity:1;color-rendering:auto;image-rendering:auto;shape-rendering:auto;text-rendering:auto;enable-background:accumulate;stop-color:#000000;stop-opacity:1" />
    <path
       id="path841"
       d="M 8,1 A 0.5,0.5 0 0 0 7.5,1.5 v 8.792969 L 5.3535156,8.1464844 a 0.5,0.5 0 0 0 -0.7070312,0 0.5,0.5 0 0 0 0,0.7070312 l 2.9746094,2.9746094 a 0.5,0.5 0 0 0 0.017578,0.01563 0.5,0.5 0 0 0 0.00391,0.0039 0.5,0.5 0 0 0 0.00391,0.0059 0.5,0.5 0 0 0 0.013672,0.01172 0.5,0.5 0 0 0 0.011719,0.0098 0.5,0.5 0 0 0 0.027344,0.02344 0.5,0.5 0 0 0 0.025391,0.01758 0.5,0.5 0 0 0 0.023437,0.01563 0.5,0.5 0 0 0 0.041016,0.02148 0.5,0.5 0 0 0 0.00781,0.0039 0.5,0.5 0 0 0 0.033203,0.01367 0.5,0.5 0 0 0 0.037109,0.01172 0.5,0.5 0 0 0 0.00391,0 0.5,0.5 0 0 0 0.00586,0.002 0.5,0.5 0 0 0 0.039063,0.0078 0.5,0.5 0 0 0 0.039063,0.0039 0.5,0.5 0 0 0 0.00977,0.002 0.5,0.5 0 0 0 0.00586,0 A 0.5,0.5 0 0 0 8,12 a 0.5,0.5 0 0 0 0.00781,0 0.5,0.5 0 0 0 0.039063,-0.0039 0.5,0.5 0 0 0 0.011719,0 0.5,0.5 0 0 0 0.023437,-0.0039 0.5,0.5 0 0 0 0.035156,-0.0059 0.5,0.5 0 0 0 0.00977,-0.0039 0.5,0.5 0 0 0 0.033203,-0.0098 0.5,0.5 0 0 0 0.013672,-0.0039 0.5,0.5 0 0 0 0.023437,-0.0098 0.5,0.5 0 0 0 0.03125,-0.01367 0.5,0.5 0 0 0 0.021484,-0.01172 0.5,0.5 0 0 0 0.029297,-0.01953 0.5,0.5 0 0 0 0.00977,-0.0078 0.5,0.5 0 0 0 0.00977,-0.0059 0.5,0.5 0 0 0 0.00195,-0.002 0.5,0.5 0 0 0 0.042969,-0.03711 0.5,0.5 0 0 0 0.00391,-0.0039 0.5,0.5 0 0 0 0.017578,-0.01758 0.5,0.5 0 0 0 0.00391,-0.0039 l 2.984361,-2.9822744 a 0.5,0.5 0 0 0 0,-0.7070312 0.5,0.5 0 0 0 -0.707032,0 L 8.5,10.292969 V 1.5 A 0.5,0.5 0 0 0 8,1 Z"
       style="color:#000000;font-style:normal;font-variant:normal;font-weight:normal;font-stretch:normal;font-size:medium;line-height:normal;font-family:sans-serif;font-variant-ligatures:normal;font-variant-position:normal;font-variant-caps:normal;font-variant-numeric:normal;font-variant-alternates:normal;font-variant-east-asian:normal;font-feature-settings:normal;font-variation-settings:normal;text-indent:0;text-align:start;text-decoration:none;text-decoration-line:none;text-decoration-style:solid;text-decoration-color:#000000;letter-spacing:normal;word-spacing:normal;text-transform:none;writing-mode:lr-tb;direction:ltr;text-orientation:mixed;dominant-baseline:auto;baseline-shift:baseline;text-anchor:start;white-space:normal;shape-padding:0;shape-margin:0;inline-size:0;clip-rule:nonzero;display:inline;overflow:visible;visibility:visible;isolation:auto;mix-blend-mode:normal;color-interpolation:sRGB;color-interpolation-filters:linearRGB;solid-color:#000000;solid-opacity:1;vector-effect:none;fill:#000000;fill-opacity:1;fill-rule:nonzero;stroke:none;stroke-width:1;stroke-linecap:round;stroke-linejoin:round;stroke-miterlimit:4;stroke-dasharray:none;stroke-dashoffset:0;stroke-opacity:1;color-rendering:auto;image-rendering:auto;shape-rendering:auto;text-rendering:auto;enable-background:accumulate;stop-color:#000000;stop-opacity:1" />
  </g>
</svg>
