<?xml version="1.0" encoding="UTF-8" standalone="no"?>
<svg
   xmlns:dc="http://purl.org/dc/elements/1.1/"
   xmlns:cc="http://creativecommons.org/ns#"
   xmlns:rdf="http://www.w3.org/1999/02/22-rdf-syntax-ns#"
   xmlns:svg="http://www.w3.org/2000/svg"
   xmlns="http://www.w3.org/2000/svg"
   xmlns:sodipodi="http://sodipodi.sourceforge.net/DTD/sodipodi-0.dtd"
   xmlns:inkscape="http://www.inkscape.org/namespaces/inkscape"
   inkscape:version="1.0 (4035a4fb49, 2020-05-01)"
   sodipodi:docname="box-arrow-left.svg"
   id="svg6"
   version="1.1"
   fill="currentColor"
   class="bi bi-box-arrow-left"
   viewBox="0 0 16 16"
   height="1em"
   width="1em">
  <metadata
     id="metadata12">
    <rdf:RDF>
      <cc:Work
         rdf:about="">
        <dc:format>image/svg+xml</dc:format>
        <dc:type
           rdf:resource="http://purl.org/dc/dcmitype/StillImage" />
      </cc:Work>
    </rdf:RDF>
  </metadata>
  <defs
     id="defs10" />
  <sodipodi:namedview
     inkscape:current-layer="svg6"
     inkscape:window-maximized="0"
     inkscape:window-y="0"
     inkscape:window-x="0"
     inkscape:cy="8"
     inkscape:cx="8"
     inkscape:zoom="51.875"
     showgrid="false"
     id="namedview8"
     inkscape:window-height="480"
     inkscape:window-width="883"
     inkscape:pageshadow="2"
     inkscape:pageopacity="0"
     guidetolerance="10"
     gridtolerance="10"
     objecttolerance="10"
     borderopacity="1"
     bordercolor="#666666"
     pagecolor="#ffffff" />
  <g
     style="opacity:1"
     id="g843">
    <path
       id="path845"
       d="m 5.5,5.5 v -2 c 0,-0.5522847 0.4477153,-1 1,-1 h 8 c 0.552285,0 1,0.4477153 1,1 v 9 c 0,0.552285 -0.447715,1 -1,1 h -8 c -0.5522847,0 -1,-0.447715 -1,-1 v -2"
       style="color:#000000;font-style:normal;font-variant:normal;font-weight:normal;font-stretch:normal;font-size:medium;line-height:normal;font-family:sans-serif;font-variant-ligatures:normal;font-variant-position:normal;font-variant-caps:normal;font-variant-numeric:normal;font-variant-alternates:normal;font-variant-east-asian:normal;font-feature-settings:normal;font-variation-settings:normal;text-indent:0;text-align:start;text-decoration:none;text-decoration-line:none;text-decoration-style:solid;text-decoration-color:#000000;letter-spacing:normal;word-spacing:normal;text-transform:none;writing-mode:lr-tb;direction:ltr;text-orientation:mixed;dominant-baseline:auto;baseline-shift:baseline;text-anchor:start;white-space:normal;shape-padding:0;shape-margin:0;inline-size:0;clip-rule:nonzero;display:inline;overflow:visible;visibility:visible;isolation:auto;mix-blend-mode:normal;color-interpolation:sRGB;color-interpolation-filters:linearRGB;solid-color:#000000;solid-opacity:1;vector-effect:none;fill:#000000;fill-opacity:1;fill-rule:nonzero;stroke:none;stroke-width:1;stroke-linecap:round;stroke-linejoin:miter;stroke-miterlimit:4;stroke-dasharray:none;stroke-dashoffset:0;stroke-opacity:1;color-rendering:auto;image-rendering:auto;shape-rendering:auto;text-rendering:auto;enable-background:accumulate;stop-color:#000000;stop-opacity:1" />
    <path
       id="path847"
       d="M 6.5,2 C 5.6774952,2 5,2.6774952 5,3.5 v 2 A 0.5,0.5 0 0 0 5.5,6 0.5,0.5 0 0 0 6,5.5 v -2 C 6,3.2179353 6.2179353,3 6.5,3 h 8 C 14.782065,3 15,3.2179353 15,3.5 v 9 c 0,0.282065 -0.217935,0.5 -0.5,0.5 h -8 C 6.2179353,13 6,12.782065 6,12.5 v -2 A 0.5,0.5 0 0 0 5.5,10 0.5,0.5 0 0 0 5,10.5 v 2 C 5,13.322505 5.6774952,14 6.5,14 h 8 c 0.822505,0 1.5,-0.677495 1.5,-1.5 v -9 C 16,2.6774952 15.322505,2 14.5,2 Z"
       style="color:#000000;font-style:normal;font-variant:normal;font-weight:normal;font-stretch:normal;font-size:medium;line-height:normal;font-family:sans-serif;font-variant-ligatures:normal;font-variant-position:normal;font-variant-caps:normal;font-variant-numeric:normal;font-variant-alternates:normal;font-variant-east-asian:normal;font-feature-settings:normal;font-variation-settings:normal;text-indent:0;text-align:start;text-decoration:none;text-decoration-line:none;text-decoration-style:solid;text-decoration-color:#000000;letter-spacing:normal;word-spacing:normal;text-transform:none;writing-mode:lr-tb;direction:ltr;text-orientation:mixed;dominant-baseline:auto;baseline-shift:baseline;text-anchor:start;white-space:normal;shape-padding:0;shape-margin:0;inline-size:0;clip-rule:nonzero;display:inline;overflow:visible;visibility:visible;isolation:auto;mix-blend-mode:normal;color-interpolation:sRGB;color-interpolation-filters:linearRGB;solid-color:#000000;solid-opacity:1;vector-effect:none;fill:#000000;fill-opacity:1;fill-rule:nonzero;stroke:none;stroke-width:1;stroke-linecap:round;stroke-linejoin:miter;stroke-miterlimit:4;stroke-dasharray:none;stroke-dashoffset:0;stroke-opacity:1;color-rendering:auto;image-rendering:auto;shape-rendering:auto;text-rendering:auto;enable-background:accumulate;stop-color:#000000;stop-opacity:1" />
  </g>
  <g
     style="opacity:1"
     id="g837">
    <path
       id="path839"
       d="m 3.5,11 -3,-3 m 0,0 3,-3 m -3,3 h 10"
       style="color:#000000;font-style:normal;font-variant:normal;font-weight:normal;font-stretch:normal;font-size:medium;line-height:normal;font-family:sans-serif;font-variant-ligatures:normal;font-variant-position:normal;font-variant-caps:normal;font-variant-numeric:normal;font-variant-alternates:normal;font-variant-east-asian:normal;font-feature-settings:normal;font-variation-settings:normal;text-indent:0;text-align:start;text-decoration:none;text-decoration-line:none;text-decoration-style:solid;text-decoration-color:#000000;letter-spacing:normal;word-spacing:normal;text-transform:none;writing-mode:lr-tb;direction:ltr;text-orientation:mixed;dominant-baseline:auto;baseline-shift:baseline;text-anchor:start;white-space:normal;shape-padding:0;shape-margin:0;inline-size:0;clip-rule:nonzero;display:inline;overflow:visible;visibility:visible;isolation:auto;mix-blend-mode:normal;color-interpolation:sRGB;color-interpolation-filters:linearRGB;solid-color:#000000;solid-opacity:1;vector-effect:none;fill:#000000;fill-opacity:1;fill-rule:nonzero;stroke:none;stroke-width:1;stroke-linecap:round;stroke-linejoin:round;stroke-miterlimit:4;stroke-dasharray:none;stroke-dashoffset:0;stroke-opacity:1;color-rendering:auto;image-rendering:auto;shape-rendering:auto;text-rendering:auto;enable-background:accumulate;stop-color:#000000;stop-opacity:1" />
    <path
       id="path841"
       d="M 3.4765625,4.5 A 0.5,0.5 0 0 0 3.1464844,4.6464844 L 0.171875,7.6210938 a 0.5,0.5 0 0 0 -0.015625,0.017578 0.5,0.5 0 0 0 -0.003906,0.00391 l -0.005859,0.00391 A 0.5,0.5 0 0 0 0.13476562,7.6601562 0.5,0.5 0 0 0 0.125,7.671875 0.5,0.5 0 0 0 0.1015625,7.6992188 0.5,0.5 0 0 0 0.08398437,7.7246094 0.5,0.5 0 0 0 0.06835937,7.7480469 0.5,0.5 0 0 0 0.046875,7.7890625 0.5,0.5 0 0 0 0.04296875,7.796875 0.5,0.5 0 0 0 0.02929688,7.8300781 0.5,0.5 0 0 0 0.01757813,7.8671875 0.5,0.5 0 0 0 0.015625,7.8769531 0.5,0.5 0 0 0 0.0078125,7.9160156 0.5,0.5 0 0 0 0.00390625,7.9550781 0.5,0.5 0 0 0 0.00195313,7.9707031 0.5,0.5 0 0 0 0,8 a 0.5,0.5 0 0 0 0,0.00781 0.5,0.5 0 0 0 0.00390625,0.039063 0.5,0.5 0 0 0 0,0.011719 0.5,0.5 0 0 0 0.00390625,0.023437 0.5,0.5 0 0 0 0.00976563,0.044922 0.5,0.5 0 0 0 0.0097656,0.033203 0.5,0.5 0 0 0 0.01171875,0.03125 0.5,0.5 0 0 0 0.0039063,0.011719 0.5,0.5 0 0 0 0.01757812,0.035156 0.5,0.5 0 0 0 0.02148438,0.035156 0.5,0.5 0 0 0 0.01171875,0.015625 0.5,0.5 0 0 0 0.0078125,0.011719 0.5,0.5 0 0 0 0.0371094,0.042969 0.5,0.5 0 0 0 0.003906,0.00391 0.5,0.5 0 0 0 0.003906,0.00586 0.5,0.5 0 0 0 0.0136719,0.011719 0.5,0.5 0 0 0 0.003906,0.00391 l 2.98242187,2.984375 a 0.5,0.5 0 0 0 0.7070312,0 0.5,0.5 0 0 0 0,-0.707032 L 1.7070312,8.5 H 10.5 A 0.5,0.5 0 0 0 11,8 0.5,0.5 0 0 0 10.5,7.5 H 1.7070312 L 3.8535156,5.3535156 a 0.5,0.5 0 0 0 0,-0.7070312 A 0.5,0.5 0 0 0 3.4765625,4.5 Z"
       style="color:#000000;font-style:normal;font-variant:normal;font-weight:normal;font-stretch:normal;font-size:medium;line-height:normal;font-family:sans-serif;font-variant-ligatures:normal;font-variant-position:normal;font-variant-caps:normal;font-variant-numeric:normal;font-variant-alternates:normal;font-variant-east-asian:normal;font-feature-settings:normal;font-variation-settings:normal;text-indent:0;text-align:start;text-decoration:none;text-decoration-line:none;text-decoration-style:solid;text-decoration-color:#000000;letter-spacing:normal;word-spacing:normal;text-transform:none;writing-mode:lr-tb;direction:ltr;text-orientation:mixed;dominant-baseline:auto;baseline-shift:baseline;text-anchor:start;white-space:normal;shape-padding:0;shape-margin:0;inline-size:0;clip-rule:nonzero;display:inline;overflow:visible;visibility:visible;isolation:auto;mix-blend-mode:normal;color-interpolation:sRGB;color-interpolation-filters:linearRGB;solid-color:#000000;solid-opacity:1;vector-effect:none;fill:#000000;fill-opacity:1;fill-rule:nonzero;stroke:none;stroke-width:1;stroke-linecap:round;stroke-linejoin:round;stroke-miterlimit:4;stroke-dasharray:none;stroke-dashoffset:0;stroke-opacity:1;color-rendering:auto;image-rendering:auto;shape-rendering:auto;text-rendering:auto;enable-background:accumulate;stop-color:#000000;stop-opacity:1" />
  </g>
</svg>
