<?xml version="1.0" encoding="UTF-8" standalone="no"?>
<svg
   xmlns:dc="http://purl.org/dc/elements/1.1/"
   xmlns:cc="http://creativecommons.org/ns#"
   xmlns:rdf="http://www.w3.org/1999/02/22-rdf-syntax-ns#"
   xmlns:svg="http://www.w3.org/2000/svg"
   xmlns="http://www.w3.org/2000/svg"
   xmlns:sodipodi="http://sodipodi.sourceforge.net/DTD/sodipodi-0.dtd"
   xmlns:inkscape="http://www.inkscape.org/namespaces/inkscape"
   inkscape:version="1.0 (4035a4fb49, 2020-05-01)"
   sodipodi:docname="box-arrow-in-up.svg"
   id="svg6"
   version="1.1"
   fill="currentColor"
   class="bi bi-box-arrow-in-up"
   viewBox="0 0 16 16"
   height="1em"
   width="1em">
  <metadata
     id="metadata12">
    <rdf:RDF>
      <cc:Work
         rdf:about="">
        <dc:format>image/svg+xml</dc:format>
        <dc:type
           rdf:resource="http://purl.org/dc/dcmitype/StillImage" />
      </cc:Work>
    </rdf:RDF>
  </metadata>
  <defs
     id="defs10" />
  <sodipodi:namedview
     inkscape:current-layer="svg6"
     inkscape:window-maximized="0"
     inkscape:window-y="0"
     inkscape:window-x="0"
     inkscape:cy="8"
     inkscape:cx="8"
     inkscape:zoom="51.875"
     showgrid="false"
     id="namedview8"
     inkscape:window-height="480"
     inkscape:window-width="883"
     inkscape:pageshadow="2"
     inkscape:pageopacity="0"
     guidetolerance="10"
     gridtolerance="10"
     objecttolerance="10"
     borderopacity="1"
     bordercolor="#666666"
     pagecolor="#ffffff" />
  <g
     style="opacity:1"
     id="g843">
    <path
       id="path845"
       d="m 10.5,10.5 h 2 c 0.552285,0 1,-0.447715 1,-1 v -8 c 0,-0.55228475 -0.447715,-1 -1,-1 h -9 c -0.5522847,0 -1,0.44771525 -1,1 v 8 c 0,0.552285 0.4477153,1 1,1 h 2"
       style="color:#000000;font-style:normal;font-variant:normal;font-weight:normal;font-stretch:normal;font-size:medium;line-height:normal;font-family:sans-serif;font-variant-ligatures:normal;font-variant-position:normal;font-variant-caps:normal;font-variant-numeric:normal;font-variant-alternates:normal;font-variant-east-asian:normal;font-feature-settings:normal;font-variation-settings:normal;text-indent:0;text-align:start;text-decoration:none;text-decoration-line:none;text-decoration-style:solid;text-decoration-color:#000000;letter-spacing:normal;word-spacing:normal;text-transform:none;writing-mode:lr-tb;direction:ltr;text-orientation:mixed;dominant-baseline:auto;baseline-shift:baseline;text-anchor:start;white-space:normal;shape-padding:0;shape-margin:0;inline-size:0;clip-rule:nonzero;display:inline;overflow:visible;visibility:visible;isolation:auto;mix-blend-mode:normal;color-interpolation:sRGB;color-interpolation-filters:linearRGB;solid-color:#000000;solid-opacity:1;vector-effect:none;fill:#000000;fill-opacity:1;fill-rule:nonzero;stroke:none;stroke-width:1;stroke-linecap:round;stroke-linejoin:miter;stroke-miterlimit:4;stroke-dasharray:none;stroke-dashoffset:0;stroke-opacity:1;color-rendering:auto;image-rendering:auto;shape-rendering:auto;text-rendering:auto;enable-background:accumulate;stop-color:#000000;stop-opacity:1" />
    <path
       id="path847"
       d="M 3.5,0 C 2.6774952,0 2,0.67749519 2,1.5 v 8 C 2,10.322505 2.6774952,11 3.5,11 h 2 A 0.5,0.5 0 0 0 6,10.5 0.5,0.5 0 0 0 5.5,10 h -2 C 3.2179353,10 3,9.7820647 3,9.5 v -8 C 3,1.2179353 3.2179353,1 3.5,1 h 9 C 12.782065,1 13,1.2179353 13,1.5 v 8 C 13,9.7820647 12.782065,10 12.5,10 h -2 A 0.5,0.5 0 0 0 10,10.5 0.5,0.5 0 0 0 10.5,11 h 2 C 13.322505,11 14,10.322505 14,9.5 v -8 C 14,0.67749519 13.322505,0 12.5,0 Z"
       style="color:#000000;font-style:normal;font-variant:normal;font-weight:normal;font-stretch:normal;font-size:medium;line-height:normal;font-family:sans-serif;font-variant-ligatures:normal;font-variant-position:normal;font-variant-caps:normal;font-variant-numeric:normal;font-variant-alternates:normal;font-variant-east-asian:normal;font-feature-settings:normal;font-variation-settings:normal;text-indent:0;text-align:start;text-decoration:none;text-decoration-line:none;text-decoration-style:solid;text-decoration-color:#000000;letter-spacing:normal;word-spacing:normal;text-transform:none;writing-mode:lr-tb;direction:ltr;text-orientation:mixed;dominant-baseline:auto;baseline-shift:baseline;text-anchor:start;white-space:normal;shape-padding:0;shape-margin:0;inline-size:0;clip-rule:nonzero;display:inline;overflow:visible;visibility:visible;isolation:auto;mix-blend-mode:normal;color-interpolation:sRGB;color-interpolation-filters:linearRGB;solid-color:#000000;solid-opacity:1;vector-effect:none;fill:#000000;fill-opacity:1;fill-rule:nonzero;stroke:none;stroke-width:1;stroke-linecap:round;stroke-linejoin:miter;stroke-miterlimit:4;stroke-dasharray:none;stroke-dashoffset:0;stroke-opacity:1;color-rendering:auto;image-rendering:auto;shape-rendering:auto;text-rendering:auto;enable-background:accumulate;stop-color:#000000;stop-opacity:1" />
  </g>
  <g
     style="opacity:1"
     id="g837">
    <path
       id="path839"
       d="m 5,7.5 3,-3 m 0,0 3,3 m -3,-3 v 10"
       style="color:#000000;font-style:normal;font-variant:normal;font-weight:normal;font-stretch:normal;font-size:medium;line-height:normal;font-family:sans-serif;font-variant-ligatures:normal;font-variant-position:normal;font-variant-caps:normal;font-variant-numeric:normal;font-variant-alternates:normal;font-variant-east-asian:normal;font-feature-settings:normal;font-variation-settings:normal;text-indent:0;text-align:start;text-decoration:none;text-decoration-line:none;text-decoration-style:solid;text-decoration-color:#000000;letter-spacing:normal;word-spacing:normal;text-transform:none;writing-mode:lr-tb;direction:ltr;text-orientation:mixed;dominant-baseline:auto;baseline-shift:baseline;text-anchor:start;white-space:normal;shape-padding:0;shape-margin:0;inline-size:0;clip-rule:nonzero;display:inline;overflow:visible;visibility:visible;isolation:auto;mix-blend-mode:normal;color-interpolation:sRGB;color-interpolation-filters:linearRGB;solid-color:#000000;solid-opacity:1;vector-effect:none;fill:#000000;fill-opacity:1;fill-rule:nonzero;stroke:none;stroke-width:1;stroke-linecap:round;stroke-linejoin:round;stroke-miterlimit:4;stroke-dasharray:none;stroke-dashoffset:0;stroke-opacity:1;color-rendering:auto;image-rendering:auto;shape-rendering:auto;text-rendering:auto;enable-background:accumulate;stop-color:#000000;stop-opacity:1" />
    <path
       id="path841"
       d="m 7.9765625,4 a 0.5,0.5 0 0 0 -0.023437,0.00391 0.5,0.5 0 0 0 -0.035156,0.00391 0.5,0.5 0 0 0 -0.044922,0.00977 0.5,0.5 0 0 0 -0.033203,0.00977 0.5,0.5 0 0 0 -0.03125,0.011719 0.5,0.5 0 0 0 -0.011719,0.00391 0.5,0.5 0 0 0 -0.035156,0.017578 0.5,0.5 0 0 0 -0.035156,0.021484 0.5,0.5 0 0 0 -0.015625,0.011719 0.5,0.5 0 0 0 -0.011719,0.00781 0.5,0.5 0 0 0 -0.042969,0.037109 0.5,0.5 0 0 0 -0.00391,0.00391 0.5,0.5 0 0 0 -0.00586,0.00391 0.5,0.5 0 0 0 -0.011719,0.013672 0.5,0.5 0 0 0 -0.00391,0.00391 l -2.984375,2.9824219 a 0.5,0.5 0 0 0 0,0.7070312 0.5,0.5 0 0 0 0.7070312,0 L 7.5,5.7070312 V 14.5 A 0.5,0.5 0 0 0 8,15 0.5,0.5 0 0 0 8.5,14.5 V 5.7070312 l 2.146484,2.1464844 a 0.5,0.5 0 0 0 0.707032,0 0.5,0.5 0 0 0 0,-0.7070312 L 8.3789062,4.171875 A 0.5,0.5 0 0 0 8.3613282,4.15625 0.5,0.5 0 0 0 8.3574182,4.15234 0.5,0.5 0 0 0 8.3398402,4.134762 a 0.5,0.5 0 0 0 -0.00391,-0.00391 0.5,0.5 0 0 0 -0.027344,-0.023437 0.5,0.5 0 0 0 -0.00781,-0.00586 0.5,0.5 0 0 0 -0.00977,-0.00781 0.5,0.5 0 0 0 -0.015625,-0.00977 0.5,0.5 0 0 0 -0.015625,-0.011719 0.5,0.5 0 0 0 -0.00781,-0.00391 0.5,0.5 0 0 0 -0.041016,-0.021484 0.5,0.5 0 0 0 -0.00391,-0.00195 0.5,0.5 0 0 0 -0.021484,-0.00977 0.5,0.5 0 0 0 -0.015625,-0.00586 0.5,0.5 0 0 0 -0.017578,-0.00586 0.5,0.5 0 0 0 -0.019531,-0.00586 0.5,0.5 0 0 0 -0.00391,0 0.5,0.5 0 0 0 -0.00586,-0.00195 0.5,0.5 0 0 0 -0.027344,-0.00586 0.5,0.5 0 0 0 -0.023437,-0.00391 0.5,0.5 0 0 0 -0.037109,-0.00391 0.5,0.5 0 0 0 -0.00586,0 A 0.5,0.5 0 0 0 8,4 0.5,0.5 0 0 0 7.9921875,4 0.5,0.5 0 0 0 7.9765625,4 Z"
       style="color:#000000;font-style:normal;font-variant:normal;font-weight:normal;font-stretch:normal;font-size:medium;line-height:normal;font-family:sans-serif;font-variant-ligatures:normal;font-variant-position:normal;font-variant-caps:normal;font-variant-numeric:normal;font-variant-alternates:normal;font-variant-east-asian:normal;font-feature-settings:normal;font-variation-settings:normal;text-indent:0;text-align:start;text-decoration:none;text-decoration-line:none;text-decoration-style:solid;text-decoration-color:#000000;letter-spacing:normal;word-spacing:normal;text-transform:none;writing-mode:lr-tb;direction:ltr;text-orientation:mixed;dominant-baseline:auto;baseline-shift:baseline;text-anchor:start;white-space:normal;shape-padding:0;shape-margin:0;inline-size:0;clip-rule:nonzero;display:inline;overflow:visible;visibility:visible;isolation:auto;mix-blend-mode:normal;color-interpolation:sRGB;color-interpolation-filters:linearRGB;solid-color:#000000;solid-opacity:1;vector-effect:none;fill:#000000;fill-opacity:1;fill-rule:nonzero;stroke:none;stroke-width:1;stroke-linecap:round;stroke-linejoin:round;stroke-miterlimit:4;stroke-dasharray:none;stroke-dashoffset:0;stroke-opacity:1;color-rendering:auto;image-rendering:auto;shape-rendering:auto;text-rendering:auto;enable-background:accumulate;stop-color:#000000;stop-opacity:1" />
  </g>
</svg>
