<?xml version="1.0" encoding="UTF-8" standalone="no"?>
<svg
   xmlns:dc="http://purl.org/dc/elements/1.1/"
   xmlns:cc="http://creativecommons.org/ns#"
   xmlns:rdf="http://www.w3.org/1999/02/22-rdf-syntax-ns#"
   xmlns:svg="http://www.w3.org/2000/svg"
   xmlns="http://www.w3.org/2000/svg"
   xmlns:sodipodi="http://sodipodi.sourceforge.net/DTD/sodipodi-0.dtd"
   xmlns:inkscape="http://www.inkscape.org/namespaces/inkscape"
   inkscape:version="1.0 (4035a4fb49, 2020-05-01)"
   sodipodi:docname="calendar-plus-fill.svg"
   id="svg3749"
   version="1.1"
   fill="currentColor"
   class="bi bi-calendar-plus-fill"
   viewBox="0 0 16 16"
   height="1em"
   width="1em">
  <metadata
     id="metadata3755">
    <rdf:RDF>
      <cc:Work
         rdf:about="">
        <dc:format>image/svg+xml</dc:format>
        <dc:type
           rdf:resource="http://purl.org/dc/dcmitype/StillImage" />
      </cc:Work>
    </rdf:RDF>
  </metadata>
  <defs
     id="defs3753" />
  <sodipodi:namedview
     inkscape:current-layer="svg3749"
     inkscape:window-maximized="1"
     inkscape:window-y="-9"
     inkscape:window-x="-9"
     inkscape:cy="5.686747"
     inkscape:cx="8"
     inkscape:zoom="51.875"
     showgrid="false"
     id="namedview3751"
     inkscape:window-height="1001"
     inkscape:window-width="1920"
     inkscape:pageshadow="2"
     inkscape:pageopacity="0"
     guidetolerance="10"
     gridtolerance="10"
     objecttolerance="10"
     borderopacity="1"
     bordercolor="#666666"
     pagecolor="#ffffff" />
  <path
     d="M 3.5117188,0 A 0.5,0.5 0 0 0 3,0.5 V 1 H 2 A 2,2 0 0 0 0,3 V 4 H 16 V 3 A 2,2 0 0 0 14,1 H 13 V 0.5 a 0.5,0.5 0 0 0 -1,0 V 1 H 4 V 0.5 A 0.5,0.5 0 0 0 3.5117188,0 Z M 0,5 v 9 a 2,2 0 0 0 2,2 h 12 a 2,2 0 0 0 2,-2 V 5 Z M 8.0117188,8 A 0.5,0.5 0 0 1 8.5,8.5 V 10 H 10 a 0.5,0.5 0 0 1 0,1 H 8.5 v 1.5 a 0.5,0.5 0 0 1 -1,0 V 11 H 6 A 0.5,0.5 0 0 1 6,10 H 7.5 V 8.5 A 0.5,0.5 0 0 1 8.0117188,8 Z"
     style="fill:#000000;fill-opacity:1;fill-rule:evenodd"
     id="path3747" />
</svg>
