<?xml version="1.0" encoding="UTF-8" standalone="no"?>
<svg
   xmlns:dc="http://purl.org/dc/elements/1.1/"
   xmlns:cc="http://creativecommons.org/ns#"
   xmlns:rdf="http://www.w3.org/1999/02/22-rdf-syntax-ns#"
   xmlns:svg="http://www.w3.org/2000/svg"
   xmlns="http://www.w3.org/2000/svg"
   xmlns:sodipodi="http://sodipodi.sourceforge.net/DTD/sodipodi-0.dtd"
   xmlns:inkscape="http://www.inkscape.org/namespaces/inkscape"
   inkscape:version="1.0 (4035a4fb49, 2020-05-01)"
   sodipodi:docname="calendar-event-fill.svg"
   id="svg2016"
   version="1.1"
   fill="currentColor"
   class="bi bi-calendar-event-fill"
   viewBox="0 0 16 16"
   height="1em"
   width="1em">
  <metadata
     id="metadata2022">
    <rdf:RDF>
      <cc:Work
         rdf:about="">
        <dc:format>image/svg+xml</dc:format>
        <dc:type
           rdf:resource="http://purl.org/dc/dcmitype/StillImage" />
      </cc:Work>
    </rdf:RDF>
  </metadata>
  <defs
     id="defs2020" />
  <sodipodi:namedview
     inkscape:current-layer="svg2016"
     inkscape:window-maximized="0"
     inkscape:window-y="0"
     inkscape:window-x="0"
     inkscape:cy="4.9156627"
     inkscape:cx="8"
     inkscape:zoom="51.875"
     showgrid="false"
     id="namedview2018"
     inkscape:window-height="918"
     inkscape:window-width="1572"
     inkscape:pageshadow="2"
     inkscape:pageopacity="0"
     guidetolerance="10"
     gridtolerance="10"
     objecttolerance="10"
     borderopacity="1"
     bordercolor="#666666"
     pagecolor="#ffffff" />
  <path
     d="M 3.5117188,0 A 0.5,0.5 0 0 0 3,0.5 V 1 H 2 A 2,2 0 0 0 0,3 V 4 H 16 V 3 A 2,2 0 0 0 14,1 H 13 V 0.5 a 0.5,0.5 0 0 0 -1,0 V 1 H 4 V 0.5 A 0.5,0.5 0 0 0 3.5117188,0 Z M 0,5 v 9 a 2,2 0 0 0 2,2 h 12 a 2,2 0 0 0 2,-2 V 5 Z m 12.5,2 h 1 A 0.5,0.5 0 0 1 14,7.5 v 1 A 0.5,0.5 0 0 1 13.5,9 h -1 A 0.5,0.5 0 0 1 12,8.5 v -1 A 0.5,0.5 0 0 1 12.5,7 Z"
     style="fill:#000000;fill-opacity:1;fill-rule:evenodd"
     id="path2014" />
</svg>
