<?xml version="1.0" encoding="UTF-8" standalone="no"?>
<svg
   xmlns:dc="http://purl.org/dc/elements/1.1/"
   xmlns:cc="http://creativecommons.org/ns#"
   xmlns:rdf="http://www.w3.org/1999/02/22-rdf-syntax-ns#"
   xmlns:svg="http://www.w3.org/2000/svg"
   xmlns="http://www.w3.org/2000/svg"
   xmlns:sodipodi="http://sodipodi.sourceforge.net/DTD/sodipodi-0.dtd"
   xmlns:inkscape="http://www.inkscape.org/namespaces/inkscape"
   inkscape:version="1.0 (4035a4fb49, 2020-05-01)"
   sodipodi:docname="calendar-check-fill.svg"
   id="svg1435"
   version="1.1"
   fill="currentColor"
   class="bi bi-calendar-check-fill"
   viewBox="0 0 16 16"
   height="1em"
   width="1em">
  <metadata
     id="metadata1441">
    <rdf:RDF>
      <cc:Work
         rdf:about="">
        <dc:format>image/svg+xml</dc:format>
        <dc:type
           rdf:resource="http://purl.org/dc/dcmitype/StillImage" />
      </cc:Work>
    </rdf:RDF>
  </metadata>
  <defs
     id="defs1439" />
  <sodipodi:namedview
     inkscape:current-layer="svg1435"
     inkscape:window-maximized="0"
     inkscape:window-y="0"
     inkscape:window-x="0"
     inkscape:cy="4.9156627"
     inkscape:cx="8"
     inkscape:zoom="51.875"
     showgrid="false"
     id="namedview1437"
     inkscape:window-height="851"
     inkscape:window-width="1546"
     inkscape:pageshadow="2"
     inkscape:pageopacity="0"
     guidetolerance="10"
     gridtolerance="10"
     objecttolerance="10"
     borderopacity="1"
     bordercolor="#666666"
     pagecolor="#ffffff" />
  <path
     d="M 3.5117188,0 A 0.5,0.5 0 0 0 3,0.5 V 1 H 2 A 2,2 0 0 0 0,3 V 4 H 16 V 3 A 2,2 0 0 0 14,1 H 13 V 0.5 a 0.5,0.5 0 0 0 -1,0 V 1 H 4 V 0.5 A 0.5,0.5 0 0 0 3.5117188,0 Z M 0,5 v 9 a 2,2 0 0 0 2,2 h 12 a 2,2 0 0 0 2,-2 V 5 Z m 10.490234,3 a 0.5006316,0.5006316 0 0 1 0.363282,0.8535156 L 7.8535156,11.853516 a 0.5,0.5 0 0 1 -0.7070312,0 l -1.5,-1.5 A 0.5006316,0.5006316 0 0 1 6.3535156,9.6464844 L 7.5,10.792969 10.146484,8.1464844 A 0.5006316,0.5006316 0 0 1 10.490234,8 Z"
     style="fill:#000000;fill-opacity:1;fill-rule:evenodd"
     id="path1433" />
</svg>
