<?xml version="1.0" encoding="UTF-8" standalone="no"?>
<svg
   xmlns:dc="http://purl.org/dc/elements/1.1/"
   xmlns:cc="http://creativecommons.org/ns#"
   xmlns:rdf="http://www.w3.org/1999/02/22-rdf-syntax-ns#"
   xmlns:svg="http://www.w3.org/2000/svg"
   xmlns="http://www.w3.org/2000/svg"
   xmlns:sodipodi="http://sodipodi.sourceforge.net/DTD/sodipodi-0.dtd"
   xmlns:inkscape="http://www.inkscape.org/namespaces/inkscape"
   inkscape:version="1.0 (4035a4fb49, 2020-05-01)"
   sodipodi:docname="cart-check-fill.svg"
   id="svg866"
   version="1.1"
   fill="currentColor"
   class="bi bi-cart-check-fill"
   viewBox="0 0 16 16"
   height="1em"
   width="1em">
  <metadata
     id="metadata872">
    <rdf:RDF>
      <cc:Work
         rdf:about="">
        <dc:format>image/svg+xml</dc:format>
        <dc:type
           rdf:resource="http://purl.org/dc/dcmitype/StillImage" />
      </cc:Work>
    </rdf:RDF>
  </metadata>
  <defs
     id="defs870" />
  <sodipodi:namedview
     inkscape:current-layer="svg866"
     inkscape:window-maximized="1"
     inkscape:window-y="-9"
     inkscape:window-x="-9"
     inkscape:cy="8"
     inkscape:cx="8"
     inkscape:zoom="51.875"
     showgrid="false"
     id="namedview868"
     inkscape:window-height="1001"
     inkscape:window-width="1920"
     inkscape:pageshadow="2"
     inkscape:pageopacity="0"
     guidetolerance="10"
     gridtolerance="10"
     objecttolerance="10"
     borderopacity="1"
     bordercolor="#666666"
     pagecolor="#ffffff" />
  <path
     d="m 0.5,1 a 0.5,0.5 0 0 0 0,1 H 1.609375 L 2.0117188,3.6074219 3.5097656,11.591797 A 0.5,0.5 0 0 0 4,12 h 1 7 1 a 0.5,0.5 0 0 0 0.490234,-0.408203 l 1.5,-8.0000001 A 0.5,0.5 0 0 0 14.5,3 H 2.890625 L 2.484375,1.3789062 A 0.5,0.5 0 0 0 2,1 Z M 12,12 a 2,2 0 0 0 0,4 2,2 0 0 0 0,-4 z m -7,0 a 2,2 0 0 0 0,4 2,2 0 0 0 0,-4 z m 5.990234,-6.5 a 0.5006316,0.5006316 0 0 1 0.363282,0.8535156 l -3.0000004,3 a 0.5,0.5 0 0 1 -0.7070312,0 l -1.5,-1.5 A 0.5006316,0.5006316 0 1 1 6.8535156,7.1464844 L 8,8.2929688 10.646484,5.6464844 A 0.5006316,0.5006316 0 0 1 10.990234,5.5 Z M 5.0273438,13 A 1,1 0 0 1 6,14 1,1 0 0 1 4,14 1,1 0 0 1 5.0273438,13 Z m 7.0000002,0 A 1,1 0 0 1 13,14 a 1,1 0 0 1 -2,0 1,1 0 0 1 1.027344,-1 z"
     style="fill:#000000;fill-opacity:1;fill-rule:evenodd"
     id="path864" />
</svg>
