<?xml version="1.0" encoding="UTF-8" standalone="no"?>
<svg
   xmlns:dc="http://purl.org/dc/elements/1.1/"
   xmlns:cc="http://creativecommons.org/ns#"
   xmlns:rdf="http://www.w3.org/1999/02/22-rdf-syntax-ns#"
   xmlns:svg="http://www.w3.org/2000/svg"
   xmlns="http://www.w3.org/2000/svg"
   xmlns:sodipodi="http://sodipodi.sourceforge.net/DTD/sodipodi-0.dtd"
   xmlns:inkscape="http://www.inkscape.org/namespaces/inkscape"
   inkscape:version="1.0 (4035a4fb49, 2020-05-01)"
   sodipodi:docname="cloud-arrow-up-fill.svg"
   id="svg2595"
   version="1.1"
   fill="currentColor"
   class="bi bi-cloud-arrow-up-fill"
   viewBox="0 0 16 16"
   height="1em"
   width="1em">
  <metadata
     id="metadata2601">
    <rdf:RDF>
      <cc:Work
         rdf:about="">
        <dc:format>image/svg+xml</dc:format>
        <dc:type
           rdf:resource="http://purl.org/dc/dcmitype/StillImage" />
      </cc:Work>
    </rdf:RDF>
  </metadata>
  <defs
     id="defs2599" />
  <sodipodi:namedview
     inkscape:current-layer="svg2595"
     inkscape:window-maximized="1"
     inkscape:window-y="-9"
     inkscape:window-x="-9"
     inkscape:cy="8"
     inkscape:cx="8"
     inkscape:zoom="51.875"
     showgrid="false"
     id="namedview2597"
     inkscape:window-height="1001"
     inkscape:window-width="1920"
     inkscape:pageshadow="2"
     inkscape:pageopacity="0"
     guidetolerance="10"
     gridtolerance="10"
     objecttolerance="10"
     borderopacity="1"
     bordercolor="#666666"
     pagecolor="#ffffff" />
  <path
     d="M 8 2 A 5.53 5.53 0 0 0 4.40625 3.3417969 C 3.64025 4.0017969 3.0844063 4.8616094 2.9414062 5.7246094 C 1.2654062 6.0946094 2.9605947e-16 7.5553594 0 9.3183594 C 0 11.366359 1.70825 13 3.78125 13 L 12.6875 13 C 14.5025 13 16 11.570438 16 9.7734375 C 16 8.1374375 14.758016 6.803125 13.166016 6.578125 C 12.923016 3.998125 10.69 2 8 2 z M 7.9765625 5 A 0.5 0.5 0 0 1 8.3535156 5.1464844 L 10.353516 7.1464844 A 0.5006316 0.5006316 0 0 1 9.6464844 7.8535156 L 8.5 6.7070312 L 8.5 10.5 A 0.5 0.5 0 0 1 7.5 10.5 L 7.5 6.7070312 L 6.3535156 7.8535156 A 0.5006316 0.5006316 0 0 1 5.6464844 7.1464844 L 7.6464844 5.1464844 A 0.5 0.5 0 0 1 7.9765625 5 z "
     style="fill:#000000;fill-opacity:1;fill-rule:evenodd"
     id="path2593" />
</svg>
