<?xml version="1.0" encoding="UTF-8" standalone="no"?>
<svg
   xmlns:dc="http://purl.org/dc/elements/1.1/"
   xmlns:cc="http://creativecommons.org/ns#"
   xmlns:rdf="http://www.w3.org/1999/02/22-rdf-syntax-ns#"
   xmlns:svg="http://www.w3.org/2000/svg"
   xmlns="http://www.w3.org/2000/svg"
   xmlns:sodipodi="http://sodipodi.sourceforge.net/DTD/sodipodi-0.dtd"
   xmlns:inkscape="http://www.inkscape.org/namespaces/inkscape"
   inkscape:version="1.0 (4035a4fb49, 2020-05-01)"
   sodipodi:docname="emoji-dizzy-fill.svg"
   id="svg6"
   version="1.1"
   fill="currentColor"
   class="bi bi-emoji-dizzy-fill"
   viewBox="0 0 16 16"
   height="1em"
   width="1em">
  <metadata
     id="metadata12">
    <rdf:RDF>
      <cc:Work
         rdf:about="">
        <dc:format>image/svg+xml</dc:format>
        <dc:type
           rdf:resource="http://purl.org/dc/dcmitype/StillImage" />
      </cc:Work>
    </rdf:RDF>
  </metadata>
  <defs
     id="defs10" />
  <sodipodi:namedview
     inkscape:current-layer="svg6"
     inkscape:window-maximized="1"
     inkscape:window-y="-9"
     inkscape:window-x="-9"
     inkscape:cy="8"
     inkscape:cx="8"
     inkscape:zoom="51.875"
     showgrid="false"
     id="namedview8"
     inkscape:window-height="1001"
     inkscape:window-width="1920"
     inkscape:pageshadow="2"
     inkscape:pageopacity="0"
     guidetolerance="10"
     gridtolerance="10"
     objecttolerance="10"
     borderopacity="1"
     bordercolor="#666666"
     pagecolor="#ffffff" />
  <path
     d="M 8,0 A 8,8 0 0 0 8,16 8,8 0 0 0 8,0 Z M 4.4628906,5 a 0.5,0.5 0 0 1 0.390625,0.1464844 L 5.5,5.7929688 6.1464844,5.1464844 A 0.5006316,0.5006316 0 0 1 6.8535156,5.8535156 L 6.2070312,6.5 6.8535156,7.1464844 A 0.5006316,0.5006316 0 0 1 6.1464844,7.8535156 L 5.5,7.2070312 4.8535156,7.8535156 A 0.5006316,0.5006316 0 0 1 4.1464844,7.1464844 L 4.7929688,6.5 4.1464844,5.8535156 a 0.5,0.5 0 0 1 0,-0.7070312 A 0.5,0.5 0 0 1 4.4628906,5 Z m 5,0 a 0.5,0.5 0 0 1 0.390625,0.1464844 L 10.5,5.7929688 11.146484,5.1464844 a 0.5006316,0.5006316 0 0 1 0.707032,0.7070312 L 11.207031,6.5 11.853516,7.1464844 A 0.5006316,0.5006316 0 0 1 11.146484,7.8535156 L 10.5,7.2070312 9.8535156,7.8535156 A 0.5006316,0.5006316 0 1 1 9.1464844,7.1464844 L 9.7929688,6.5 9.1464844,5.8535156 a 0.5,0.5 0 0 1 0,-0.7070312 A 0.5,0.5 0 0 1 9.4628906,5 Z M 8,9 a 2,2 0 0 1 0,4 2,2 0 0 1 0,-4 z"
     style="fill-rule:evenodd"
     id="path2" />
</svg>
