<?xml version="1.0" encoding="UTF-8" standalone="no"?>
<svg
   xmlns:dc="http://purl.org/dc/elements/1.1/"
   xmlns:cc="http://creativecommons.org/ns#"
   xmlns:rdf="http://www.w3.org/1999/02/22-rdf-syntax-ns#"
   xmlns:svg="http://www.w3.org/2000/svg"
   xmlns="http://www.w3.org/2000/svg"
   xmlns:sodipodi="http://sodipodi.sourceforge.net/DTD/sodipodi-0.dtd"
   xmlns:inkscape="http://www.inkscape.org/namespaces/inkscape"
   inkscape:version="1.0 (4035a4fb49, 2020-05-01)"
   sodipodi:docname="emoji-angry-fill.svg"
   id="svg4"
   version="1.1"
   fill="currentColor"
   class="bi bi-emoji-angry-fill"
   viewBox="0 0 16 16"
   height="1em"
   width="1em">
  <metadata
     id="metadata10">
    <rdf:RDF>
      <cc:Work
         rdf:about="">
        <dc:format>image/svg+xml</dc:format>
        <dc:type
           rdf:resource="http://purl.org/dc/dcmitype/StillImage" />
      </cc:Work>
    </rdf:RDF>
  </metadata>
  <defs
     id="defs8" />
  <sodipodi:namedview
     inkscape:current-layer="svg4"
     inkscape:window-maximized="1"
     inkscape:window-y="-9"
     inkscape:window-x="-9"
     inkscape:cy="8"
     inkscape:cx="8"
     inkscape:zoom="51.875"
     showgrid="false"
     id="namedview6"
     inkscape:window-height="1001"
     inkscape:window-width="1920"
     inkscape:pageshadow="2"
     inkscape:pageopacity="0"
     guidetolerance="10"
     gridtolerance="10"
     objecttolerance="10"
     borderopacity="1"
     bordercolor="#666666"
     pagecolor="#ffffff" />
  <path
     d="M 8,0 A 8,8 0 0 0 8,16 8,8 0 0 0 8,0 Z m 3.478516,3.9980469 a 0.5,0.5 0 0 1 0.246093,0.9492187 L 10.714844,5.4511719 C 10.890844,5.7221719 11,6.092 11,6.5 11,7.328 10.552,8 10,8 9.448,8 9,7.328 9,6.5 A 2.12,2.12 0 0 1 9.1113281,5.8125 0.5,0.5 0 0 1 9.2753906,5.0527344 l 2.0000004,-1 a 0.5,0.5 0 0 1 0.203125,-0.054688 z M 4.4824219,4 a 0.5,0.5 0 0 1 0.2402343,0.052734 l 2,1 A 0.5,0.5 0 0 1 6.8886719,5.8125 C 6.9596719,6.0185 7,6.253 7,6.5 7,7.328 6.552,8 6,8 5.448,8 5,7.328 5,6.5 5,6.092 5.1091562,5.7221719 5.2851562,5.4511719 L 4.2753906,4.9472656 A 0.5,0.5 0 0 1 4.0527344,4.2773438 v -0.00195 A 0.5,0.5 0 0 1 4.4824219,4 Z M 8,9.5 a 4.498,4.498 0 0 1 3.898438,2.25 0.5005035,0.5005035 0 1 1 -0.867188,0.5 C 10.42525,11.203 9.295,10.5 8,10.5 A 3.498,3.498 0 0 0 4.96875,12.25 0.5,0.5 0 0 1 4.2851562,12.433594 0.5,0.5 0 0 1 4.1015625,11.75 4.5,4.5 0 0 1 8,9.5 Z"
     style="fill-rule:evenodd"
     id="path2" />
</svg>
