<?xml version="1.0" encoding="UTF-8" standalone="no"?>
<svg
   xmlns:dc="http://purl.org/dc/elements/1.1/"
   xmlns:cc="http://creativecommons.org/ns#"
   xmlns:rdf="http://www.w3.org/1999/02/22-rdf-syntax-ns#"
   xmlns:svg="http://www.w3.org/2000/svg"
   xmlns="http://www.w3.org/2000/svg"
   xmlns:sodipodi="http://sodipodi.sourceforge.net/DTD/sodipodi-0.dtd"
   xmlns:inkscape="http://www.inkscape.org/namespaces/inkscape"
   inkscape:version="1.0 (4035a4fb49, 2020-05-01)"
   sodipodi:docname="emoji-smile-upside-down-fill.svg"
   id="svg4"
   version="1.1"
   fill="currentColor"
   class="bi bi-emoji-smile-upside-down-fill"
   viewBox="0 0 16 16"
   height="1em"
   width="1em">
  <metadata
     id="metadata10">
    <rdf:RDF>
      <cc:Work
         rdf:about="">
        <dc:format>image/svg+xml</dc:format>
        <dc:type
           rdf:resource="http://purl.org/dc/dcmitype/StillImage" />
      </cc:Work>
    </rdf:RDF>
  </metadata>
  <defs
     id="defs8" />
  <sodipodi:namedview
     inkscape:current-layer="svg4"
     inkscape:window-maximized="1"
     inkscape:window-y="-9"
     inkscape:window-x="-9"
     inkscape:cy="8"
     inkscape:cx="8"
     inkscape:zoom="51.875"
     showgrid="false"
     id="namedview6"
     inkscape:window-height="1001"
     inkscape:window-width="1920"
     inkscape:pageshadow="2"
     inkscape:pageopacity="0"
     guidetolerance="10"
     gridtolerance="10"
     objecttolerance="10"
     borderopacity="1"
     bordercolor="#666666"
     pagecolor="#ffffff" />
  <path
     d="M 8 0 A 8 8 0 0 0 8 16 A 8 8 0 0 0 8 0 z M 8 3.5 A 4.498 4.498 0 0 1 11.898438 5.75 A 0.5 0.5 0 0 1 11.03125 6.25 C 10.42525 5.203 9.295 4.5 8 4.5 A 3.498 3.498 0 0 0 4.96875 6.25 A 0.5 0.5 0 0 1 4.2851562 6.4335938 A 0.5 0.5 0 0 1 4.1015625 5.75 A 4.5 4.5 0 0 1 8 3.5 z M 6 8 C 6.552 8 7 8.672 7 9.5 C 7 10.328 6.552 11 6 11 C 5.448 11 5 10.328 5 9.5 C 5 8.672 5.448 8 6 8 z M 10 8 C 10.552 8 11 8.672 11 9.5 C 11 10.328 10.552 11 10 11 C 9.448 11 9 10.328 9 9.5 C 9 8.672 9.448 8 10 8 z "
     style="fill-rule:evenodd"
     id="path2" />
</svg>
