<?xml version="1.0" encoding="UTF-8" standalone="no"?>
<svg
   xmlns:dc="http://purl.org/dc/elements/1.1/"
   xmlns:cc="http://creativecommons.org/ns#"
   xmlns:rdf="http://www.w3.org/1999/02/22-rdf-syntax-ns#"
   xmlns:svg="http://www.w3.org/2000/svg"
   xmlns="http://www.w3.org/2000/svg"
   xmlns:sodipodi="http://sodipodi.sourceforge.net/DTD/sodipodi-0.dtd"
   xmlns:inkscape="http://www.inkscape.org/namespaces/inkscape"
   inkscape:version="1.0 (4035a4fb49, 2020-05-01)"
   sodipodi:docname="emoji-neutral-fill.svg"
   id="svg4"
   version="1.1"
   fill="currentColor"
   class="bi bi-emoji-neutral-fill"
   viewBox="0 0 16 16"
   height="1em"
   width="1em">
  <metadata
     id="metadata10">
    <rdf:RDF>
      <cc:Work
         rdf:about="">
        <dc:format>image/svg+xml</dc:format>
        <dc:type
           rdf:resource="http://purl.org/dc/dcmitype/StillImage" />
      </cc:Work>
    </rdf:RDF>
  </metadata>
  <defs
     id="defs8" />
  <sodipodi:namedview
     inkscape:current-layer="svg4"
     inkscape:window-maximized="1"
     inkscape:window-y="-9"
     inkscape:window-x="-9"
     inkscape:cy="8"
     inkscape:cx="8"
     inkscape:zoom="51.875"
     showgrid="false"
     id="namedview6"
     inkscape:window-height="1001"
     inkscape:window-width="1920"
     inkscape:pageshadow="2"
     inkscape:pageopacity="0"
     guidetolerance="10"
     gridtolerance="10"
     objecttolerance="10"
     borderopacity="1"
     bordercolor="#666666"
     pagecolor="#ffffff" />
  <path
     d="M 8,0 A 8,8 0 0 0 8,16 8,8 0 0 0 8,0 Z M 6,5 C 6.552,5 7,5.672 7,6.5 7,7.328 6.552,8 6,8 5.448,8 5,7.328 5,6.5 5,5.672 5.448,5 6,5 Z m 4,0 c 0.552,0 1,0.672 1,1.5 C 11,7.328 10.552,8 10,8 9.448,8 9,7.328 9,6.5 9,5.672 9.448,5 10,5 Z M 4.4882812,10 A 0.5,0.5 0 0 1 4.5,10 h 7 a 0.5,0.5 0 0 1 0,1 h -7 A 0.5,0.5 0 0 1 4,10.5 0.5,0.5 0 0 1 4.4882812,10 Z"
     style="fill-rule:evenodd"
     id="path2" />
</svg>
