<?xml version="1.0" encoding="UTF-8" standalone="no"?>
<svg
   xmlns:dc="http://purl.org/dc/elements/1.1/"
   xmlns:cc="http://creativecommons.org/ns#"
   xmlns:rdf="http://www.w3.org/1999/02/22-rdf-syntax-ns#"
   xmlns:svg="http://www.w3.org/2000/svg"
   xmlns="http://www.w3.org/2000/svg"
   xmlns:sodipodi="http://sodipodi.sourceforge.net/DTD/sodipodi-0.dtd"
   xmlns:inkscape="http://www.inkscape.org/namespaces/inkscape"
   inkscape:version="1.0 (4035a4fb49, 2020-05-01)"
   sodipodi:docname="emoji-wink-fill.svg"
   id="svg4"
   version="1.1"
   fill="currentColor"
   class="bi bi-emoji-wink-fill"
   viewBox="0 0 16 16"
   height="1em"
   width="1em">
  <metadata
     id="metadata10">
    <rdf:RDF>
      <cc:Work
         rdf:about="">
        <dc:format>image/svg+xml</dc:format>
        <dc:type
           rdf:resource="http://purl.org/dc/dcmitype/StillImage" />
      </cc:Work>
    </rdf:RDF>
  </metadata>
  <defs
     id="defs8" />
  <sodipodi:namedview
     inkscape:current-layer="svg4"
     inkscape:window-maximized="1"
     inkscape:window-y="-9"
     inkscape:window-x="-9"
     inkscape:cy="8"
     inkscape:cx="8"
     inkscape:zoom="51.875"
     showgrid="false"
     id="namedview6"
     inkscape:window-height="1001"
     inkscape:window-width="1920"
     inkscape:pageshadow="2"
     inkscape:pageopacity="0"
     guidetolerance="10"
     gridtolerance="10"
     objecttolerance="10"
     borderopacity="1"
     bordercolor="#666666"
     pagecolor="#ffffff" />
  <path
     d="M 8 0 A 8 8 0 0 0 8 16 A 8 8 0 0 0 8 0 z M 6 5 C 6.552 5 7 5.672 7 6.5 C 7 7.328 6.552 8 6 8 C 5.448 8 5 7.328 5 6.5 C 5 5.672 5.448 5 6 5 z M 8.9960938 6 A 0.500018 0.500018 0 0 1 9.4375 6.2578125 A 0.934 0.934 0 0 0 10.25 6.75 A 0.934 0.934 0 0 0 11.0625 6.2578125 A 0.500018 0.500018 0 0 1 11.9375 6.7421875 C 11.6065 7.3371875 10.98 7.75 10.25 7.75 C 9.521 7.75 8.8925 7.3371875 8.5625 6.7421875 A 0.500018 0.500018 0 0 1 8.9960938 6 z M 11.474609 9.4980469 A 0.5 0.5 0 0 1 11.898438 10.25 A 4.498 4.498 0 0 1 8 12.5 A 4.498 4.498 0 0 1 4.1015625 10.25 A 0.5 0.5 0 0 1 4.2851562 9.5664062 A 0.5 0.5 0 0 1 4.96875 9.75 A 3.498 3.498 0 0 0 8 11.5 A 3.498 3.498 0 0 0 11.03125 9.75 A 0.5 0.5 0 0 1 11.474609 9.4980469 z "
     style="fill-rule:evenodd"
     id="path2" />
</svg>
