<?xml version="1.0" encoding="UTF-8" standalone="no"?>
<svg
   xmlns:dc="http://purl.org/dc/elements/1.1/"
   xmlns:cc="http://creativecommons.org/ns#"
   xmlns:rdf="http://www.w3.org/1999/02/22-rdf-syntax-ns#"
   xmlns:svg="http://www.w3.org/2000/svg"
   xmlns="http://www.w3.org/2000/svg"
   xmlns:sodipodi="http://sodipodi.sourceforge.net/DTD/sodipodi-0.dtd"
   xmlns:inkscape="http://www.inkscape.org/namespaces/inkscape"
   inkscape:version="1.0 (4035a4fb49, 2020-05-01)"
   sodipodi:docname="exclamation-triangle-fill.svg"
   id="svg4278"
   version="1.1"
   fill="currentColor"
   class="bi bi-exclamation-triangle-fill"
   viewBox="0 0 17 16"
   height="1em"
   width="1.0625em">
  <metadata
     id="metadata4284">
    <rdf:RDF>
      <cc:Work
         rdf:about="">
        <dc:format>image/svg+xml</dc:format>
        <dc:type
           rdf:resource="http://purl.org/dc/dcmitype/StillImage" />
      </cc:Work>
    </rdf:RDF>
  </metadata>
  <defs
     id="defs4282" />
  <sodipodi:namedview
     inkscape:current-layer="svg4278"
     inkscape:window-maximized="1"
     inkscape:window-y="-9"
     inkscape:window-x="-9"
     inkscape:cy="8"
     inkscape:cx="8.5"
     inkscape:zoom="51.875"
     showgrid="false"
     id="namedview4280"
     inkscape:window-height="1001"
     inkscape:window-width="1920"
     inkscape:pageshadow="2"
     inkscape:pageopacity="0"
     guidetolerance="10"
     gridtolerance="10"
     objecttolerance="10"
     borderopacity="1"
     bordercolor="#666666"
     pagecolor="#ffffff" />
  <path
     d="M 8.0253906 0.99804688 A 1.13 1.13 0 0 0 7.0214844 1.5664062 L 0.1640625 13.232422 C -0.2929375 14.010422 0.25553125 15 1.1445312 15 L 14.857422 15 C 15.746422 15 16.295891 14.009422 15.837891 13.232422 L 8.9824219 1.5664062 A 1.13 1.13 0 0 0 8.0253906 0.99804688 z M 8 5 A 0.905 0.905 0 0 1 8.9003906 5.9941406 L 8.5507812 9.5019531 A 0.552 0.552 0 0 1 7.4492188 9.5019531 L 7.0996094 5.9941406 A 0.905 0.905 0 0 1 8 5 z M 8.0019531 11 A 1 1 0 0 1 8.0019531 13 A 1 1 0 0 1 8.0019531 11 z "
     style="fill:#000000;fill-opacity:1;fill-rule:evenodd"
     id="path4276" />
</svg>
