<?xml version="1.0" encoding="UTF-8" standalone="no"?>
<svg
   xmlns:dc="http://purl.org/dc/elements/1.1/"
   xmlns:cc="http://creativecommons.org/ns#"
   xmlns:rdf="http://www.w3.org/1999/02/22-rdf-syntax-ns#"
   xmlns:svg="http://www.w3.org/2000/svg"
   xmlns="http://www.w3.org/2000/svg"
   xmlns:sodipodi="http://sodipodi.sourceforge.net/DTD/sodipodi-0.dtd"
   xmlns:inkscape="http://www.inkscape.org/namespaces/inkscape"
   inkscape:version="1.0 (4035a4fb49, 2020-05-01)"
   sodipodi:docname="file-earmark-image-fill.svg"
   id="svg5994"
   version="1.1"
   fill="currentColor"
   class="bi bi-file-earmark-image-fill"
   viewBox="0 0 16 16"
   height="1em"
   width="1em">
  <metadata
     id="metadata6000">
    <rdf:RDF>
      <cc:Work
         rdf:about="">
        <dc:format>image/svg+xml</dc:format>
        <dc:type
           rdf:resource="http://purl.org/dc/dcmitype/StillImage" />
      </cc:Work>
    </rdf:RDF>
  </metadata>
  <defs
     id="defs5998" />
  <sodipodi:namedview
     inkscape:current-layer="svg5994"
     inkscape:window-maximized="1"
     inkscape:window-y="-9"
     inkscape:window-x="-9"
     inkscape:cy="8"
     inkscape:cx="8"
     inkscape:zoom="51.875"
     showgrid="false"
     id="namedview5996"
     inkscape:window-height="1001"
     inkscape:window-width="1920"
     inkscape:pageshadow="2"
     inkscape:pageopacity="0"
     guidetolerance="10"
     gridtolerance="10"
     objecttolerance="10"
     borderopacity="1"
     bordercolor="#666666"
     pagecolor="#ffffff" />
  <path
     d="M 4 0 A 2 2 0 0 0 2 2 L 2 12.292969 L 4.8691406 9.4238281 A 1 1 0 0 1 6.0917969 9.2734375 L 7.8613281 10.332031 L 9.75 7.6894531 A 1 1 0 0 1 11.269531 7.5644531 L 14 10.292969 L 14 4.7070312 A 1 1 0 0 0 13.707031 4 L 10 0.29296875 A 1 1 0 0 0 9.2929688 0 L 4 0 z M 9.5 1.5 L 12.5 4.5 L 10.5 4.5 A 1 1 0 0 1 9.5 3.5 L 9.5 1.5 z M 6.5136719 4 A 1.5 1.5 0 0 1 8.0019531 5.5 A 1.5 1.5 0 0 1 5.0019531 5.5 A 1.5 1.5 0 0 1 6.5136719 4 z M 10.564453 8.2714844 L 8.40625 11.291016 L 8.1386719 11.666016 L 7.7421875 11.429688 L 5.578125 10.130859 L 2 13.707031 L 2 14 A 2 2 0 0 0 4 16 L 12 16 A 2 2 0 0 0 14 14 L 14 11.707031 L 10.564453 8.2714844 z "
     style="fill:#000000;fill-opacity:1;fill-rule:evenodd"
     id="path5992" />
</svg>
