<?xml version="1.0" encoding="UTF-8" standalone="no"?>
<svg
   xmlns:dc="http://purl.org/dc/elements/1.1/"
   xmlns:cc="http://creativecommons.org/ns#"
   xmlns:rdf="http://www.w3.org/1999/02/22-rdf-syntax-ns#"
   xmlns:svg="http://www.w3.org/2000/svg"
   xmlns="http://www.w3.org/2000/svg"
   xmlns:sodipodi="http://sodipodi.sourceforge.net/DTD/sodipodi-0.dtd"
   xmlns:inkscape="http://www.inkscape.org/namespaces/inkscape"
   inkscape:version="1.0 (4035a4fb49, 2020-05-01)"
   sodipodi:docname="file-earmark-x-fill.svg"
   id="svg7141"
   version="1.1"
   fill="currentColor"
   class="bi bi-file-earmark-x-fill"
   viewBox="0 0 16 16"
   height="1em"
   width="1em">
  <metadata
     id="metadata7147">
    <rdf:RDF>
      <cc:Work
         rdf:about="">
        <dc:format>image/svg+xml</dc:format>
        <dc:type
           rdf:resource="http://purl.org/dc/dcmitype/StillImage" />
      </cc:Work>
    </rdf:RDF>
  </metadata>
  <defs
     id="defs7145" />
  <sodipodi:namedview
     inkscape:current-layer="svg7141"
     inkscape:window-maximized="1"
     inkscape:window-y="-9"
     inkscape:window-x="-9"
     inkscape:cy="8"
     inkscape:cx="8"
     inkscape:zoom="51.875"
     showgrid="false"
     id="namedview7143"
     inkscape:window-height="1001"
     inkscape:window-width="1920"
     inkscape:pageshadow="2"
     inkscape:pageopacity="0"
     guidetolerance="10"
     gridtolerance="10"
     objecttolerance="10"
     borderopacity="1"
     bordercolor="#666666"
     pagecolor="#ffffff" />
  <path
     d="M 3.9511719 0 A 2 2 0 0 0 2 2 L 2 14 A 2 2 0 0 0 4 16 L 12 16 A 2 2 0 0 0 14 14 L 14 4.7070312 A 1 1 0 0 0 13.707031 4 L 10 0.29296875 A 1 1 0 0 0 9.2929688 0 L 4 0 A 2 2 0 0 0 3.9511719 0 z M 9.5 1.5 L 12.5 4.5 L 10.5 4.5 A 1 1 0 0 1 9.5 3.5 L 9.5 1.5 z M 6.4765625 7 A 0.5006316 0.5006316 0 0 1 6.8535156 7.1464844 L 8 8.2929688 L 9.1464844 7.1464844 A 0.5006316 0.5006316 0 0 1 9.8535156 7.8535156 L 8.7070312 9 L 9.8535156 10.146484 A 0.5006316 0.5006316 0 0 1 9.1464844 10.853516 L 8 9.7070312 L 6.8535156 10.853516 A 0.5006316 0.5006316 0 0 1 6.1464844 10.146484 L 7.2929688 9 L 6.1464844 7.8535156 A 0.5006316 0.5006316 0 0 1 6.4765625 7 z "
     style="fill:#000000;fill-opacity:1;fill-rule:evenodd"
     id="path7139" />
</svg>
