<?xml version="1.0" encoding="UTF-8" standalone="no"?>
<svg
   xmlns:dc="http://purl.org/dc/elements/1.1/"
   xmlns:cc="http://creativecommons.org/ns#"
   xmlns:rdf="http://www.w3.org/1999/02/22-rdf-syntax-ns#"
   xmlns:svg="http://www.w3.org/2000/svg"
   xmlns="http://www.w3.org/2000/svg"
   xmlns:sodipodi="http://sodipodi.sourceforge.net/DTD/sodipodi-0.dtd"
   xmlns:inkscape="http://www.inkscape.org/namespaces/inkscape"
   inkscape:version="1.0 (4035a4fb49, 2020-05-01)"
   sodipodi:docname="file-earmark-word-fill.svg"
   id="svg4"
   version="1.1"
   fill="currentColor"
   class="bi bi-file-earmark-word-fill"
   viewBox="0 0 16 16"
   height="1em"
   width="1em">
  <metadata
     id="metadata10">
    <rdf:RDF>
      <cc:Work
         rdf:about="">
        <dc:format>image/svg+xml</dc:format>
        <dc:type
           rdf:resource="http://purl.org/dc/dcmitype/StillImage" />
      </cc:Work>
    </rdf:RDF>
  </metadata>
  <defs
     id="defs8" />
  <sodipodi:namedview
     inkscape:current-layer="svg4"
     inkscape:window-maximized="1"
     inkscape:window-y="-9"
     inkscape:window-x="-9"
     inkscape:cy="8"
     inkscape:cx="8"
     inkscape:zoom="51.875"
     showgrid="false"
     id="namedview6"
     inkscape:window-height="1001"
     inkscape:window-width="1920"
     inkscape:pageshadow="2"
     inkscape:pageopacity="0"
     guidetolerance="10"
     gridtolerance="10"
     objecttolerance="10"
     borderopacity="1"
     bordercolor="#666666"
     pagecolor="#ffffff" />
  <path
     d="M 3.9511719,0 A 2,2 0 0 0 2,2 v 12 a 2,2 0 0 0 2,2 h 8 a 2,2 0 0 0 2,-2 V 4.7070312 A 1,1 0 0 0 13.707031,4 L 10,0.29296875 A 1,1 0 0 0 9.2929688,0 H 4 A 2,2 0 0 0 3.9511719,0 Z M 9.5,1.5 l 3,3 h -2 a 1,1 0 0 1 -1,-1 z M 5.0175781,6.4882812 a 0.5,0.5 0 0 1 0.4667969,0.390625 v 0.00195 L 6.5214844,11.023438 7.5175781,7.3691406 a 0.5,0.5 0 0 1 0.9648438,0 L 9.4785156,11.023438 10.515625,6.8808594 a 0.5,0.5 0 0 1 0.96875,0.2402344 l -1.5,6.0000002 a 0.5,0.5 0 0 1 -0.9667969,0.01172 L 8,9.4023438 6.9824219,13.130859 a 0.5,0.5 0 0 1 -0.9667969,-0.0098 l -1.5,-6.0000002 A 0.5,0.5 0 0 1 5.0175781,6.4882812 Z"
     style="fill-rule:evenodd"
     id="path2" />
</svg>
