<?xml version="1.0" encoding="UTF-8" standalone="no"?>
<svg
   xmlns:dc="http://purl.org/dc/elements/1.1/"
   xmlns:cc="http://creativecommons.org/ns#"
   xmlns:rdf="http://www.w3.org/1999/02/22-rdf-syntax-ns#"
   xmlns:svg="http://www.w3.org/2000/svg"
   xmlns="http://www.w3.org/2000/svg"
   xmlns:sodipodi="http://sodipodi.sourceforge.net/DTD/sodipodi-0.dtd"
   xmlns:inkscape="http://www.inkscape.org/namespaces/inkscape"
   inkscape:version="1.0 (4035a4fb49, 2020-05-01)"
   sodipodi:docname="globe2.svg"
   id="svg835"
   version="1.1"
   fill="currentColor"
   class="bi bi-globe2"
   viewBox="0 0 16 16"
   height="1em"
   width="1em">
  <metadata
     id="metadata841">
    <rdf:RDF>
      <cc:Work
         rdf:about="">
        <dc:format>image/svg+xml</dc:format>
        <dc:type
           rdf:resource="http://purl.org/dc/dcmitype/StillImage" />
      </cc:Work>
    </rdf:RDF>
  </metadata>
  <defs
     id="defs839" />
  <sodipodi:namedview
     inkscape:current-layer="svg835"
     inkscape:window-maximized="1"
     inkscape:window-y="-9"
     inkscape:window-x="-9"
     inkscape:cy="4.6579634"
     inkscape:cx="8"
     inkscape:zoom="47.875"
     showgrid="false"
     id="namedview837"
     inkscape:window-height="1001"
     inkscape:window-width="1920"
     inkscape:pageshadow="2"
     inkscape:pageopacity="0"
     guidetolerance="10"
     gridtolerance="10"
     objecttolerance="10"
     borderopacity="1"
     bordercolor="#666666"
     pagecolor="#ffffff" />
  <path
     style="stroke-width:0.0249696"
     d="M 12.74014,12.307256 Q 14.425588,10.509445 14.425588,8 q 0,-1.9850832 -1.104904,-3.5956224 -1.104905,-1.6105392 -2.902716,-2.3221728 v 0.3370896 q 0,0.6367248 -0.4869071,1.1049048 -0.4869072,0.46818 -1.123632,0.46818 H 7.2343441 v 1.6105392 q 0,0.3370896 -0.2434536,0.561816 Q 6.7474369,6.3894608 6.4103473,6.3894608 H 4.8372625 V 8 h 4.7941632 q 0.3370891,0 0.5618153,0.2247264 0.224727,0.2247264 0.224727,0.561816 v 2.3970816 h 0.786542 q 1.123632,0 1.53563,1.123632 z m -5.5057959,2.022538 v -1.535631 q -0.6367248,0 -1.123632,-0.486907 Q 5.6238049,11.820349 5.6238049,11.183624 V 10.397082 L 1.8034561,6.5767328 Q 1.6161841,7.3258208 1.6161841,8 q 0,2.434536 1.6292664,4.232347 1.6292664,1.797811 3.9888936,2.097447 z M 8.0208865,0.02221284 q 3.2959865,0 5.6368865,2.34089996 2.3409,2.3409 2.3409,5.6368872 0,3.295987 -2.3409,5.636887 -2.3409,2.3409 -5.6368865,2.3409 -3.2959872,0 -5.6368872,-2.3409 Q 0.04309925,11.295987 0.04309925,8 q 0,-3.2959872 2.34090005,-5.6368872 2.3409,-2.34089996 5.6368872,-2.34089996 z"
     id="path193" />
</svg>
