<?xml version="1.0" encoding="UTF-8" standalone="no"?>
<svg
   xmlns:dc="http://purl.org/dc/elements/1.1/"
   xmlns:cc="http://creativecommons.org/ns#"
   xmlns:rdf="http://www.w3.org/1999/02/22-rdf-syntax-ns#"
   xmlns:svg="http://www.w3.org/2000/svg"
   xmlns="http://www.w3.org/2000/svg"
   xmlns:sodipodi="http://sodipodi.sourceforge.net/DTD/sodipodi-0.dtd"
   xmlns:inkscape="http://www.inkscape.org/namespaces/inkscape"
   inkscape:version="1.0 (4035a4fb49, 2020-05-01)"
   sodipodi:docname="info-circle-fill.svg"
   id="svg11168"
   version="1.1"
   fill="currentColor"
   class="bi bi-info-circle-fill"
   viewBox="0 0 16 16"
   height="1em"
   width="1em">
  <metadata
     id="metadata11174">
    <rdf:RDF>
      <cc:Work
         rdf:about="">
        <dc:format>image/svg+xml</dc:format>
        <dc:type
           rdf:resource="http://purl.org/dc/dcmitype/StillImage" />
      </cc:Work>
    </rdf:RDF>
  </metadata>
  <defs
     id="defs11172" />
  <sodipodi:namedview
     inkscape:current-layer="svg11168"
     inkscape:window-maximized="1"
     inkscape:window-y="-9"
     inkscape:window-x="-9"
     inkscape:cy="8"
     inkscape:cx="8"
     inkscape:zoom="51.875"
     showgrid="false"
     id="namedview11170"
     inkscape:window-height="1001"
     inkscape:window-width="1920"
     inkscape:pageshadow="2"
     inkscape:pageopacity="0"
     guidetolerance="10"
     gridtolerance="10"
     objecttolerance="10"
     borderopacity="1"
     bordercolor="#666666"
     pagecolor="#ffffff" />
  <path
     d="M 8 0 A 8 8 0 0 0 8 16 A 8 8 0 0 0 8 0 z M 8 3.5 A 1 1 0 0 1 8 5.5 A 1 1 0 0 1 8 3.5 z M 8.9296875 6.5878906 L 7.9296875 11.292969 C 7.8586875 11.632969 7.9574219 11.826172 8.2324219 11.826172 C 8.4264219 11.826172 8.7199219 11.756078 8.9199219 11.580078 L 8.8300781 11.996094 C 8.5430781 12.342094 7.9102344 12.59375 7.3652344 12.59375 C 6.6622344 12.59375 6.3645938 12.172391 6.5585938 11.275391 L 7.296875 7.8066406 C 7.360875 7.5136406 7.3018125 7.4078906 7.0078125 7.3378906 L 6.5585938 7.2558594 L 6.640625 6.875 L 8.9296875 6.5878906 z "
     style="fill:#000000;fill-opacity:1;fill-rule:evenodd"
     id="path11166" />
</svg>
