<?xml version="1.0" encoding="UTF-8" standalone="no"?>
<svg
   xmlns:dc="http://purl.org/dc/elements/1.1/"
   xmlns:cc="http://creativecommons.org/ns#"
   xmlns:rdf="http://www.w3.org/1999/02/22-rdf-syntax-ns#"
   xmlns:svg="http://www.w3.org/2000/svg"
   xmlns="http://www.w3.org/2000/svg"
   xmlns:sodipodi="http://sodipodi.sourceforge.net/DTD/sodipodi-0.dtd"
   xmlns:inkscape="http://www.inkscape.org/namespaces/inkscape"
   inkscape:version="1.0 (4035a4fb49, 2020-05-01)"
   sodipodi:docname="link.svg"
   id="svg1557"
   version="1.1"
   fill="currentColor"
   class="bi bi-link"
   viewBox="0 0 16 16"
   height="1em"
   width="1em">
  <metadata
     id="metadata1563">
    <rdf:RDF>
      <cc:Work
         rdf:about="">
        <dc:format>image/svg+xml</dc:format>
        <dc:type
           rdf:resource="http://purl.org/dc/dcmitype/StillImage" />
      </cc:Work>
    </rdf:RDF>
  </metadata>
  <defs
     id="defs1561" />
  <sodipodi:namedview
     inkscape:current-layer="svg1557"
     inkscape:window-maximized="1"
     inkscape:window-y="-9"
     inkscape:window-x="-9"
     inkscape:cy="8"
     inkscape:cx="8"
     inkscape:zoom="51.875"
     showgrid="false"
     id="namedview1559"
     inkscape:window-height="1001"
     inkscape:window-width="1920"
     inkscape:pageshadow="2"
     inkscape:pageopacity="0"
     guidetolerance="10"
     gridtolerance="10"
     objecttolerance="10"
     borderopacity="1"
     bordercolor="#666666"
     pagecolor="#ffffff" />
  <path
     id="path161"
     d="M 4.1379015,9.9569494 3.2128998,9.9540894 C 2.4133314,9.9506494 1.7592436,9.2965611 1.7552345,8.49642 1.7541345,8.112673 1.9030056,7.7518367 2.1739195,7.4809228 2.4448333,7.2100089 2.8050972,7.0628104 3.1894174,7.0622371 l 3.3993097,0.014319 c 0.7044906,0.00229 1.88666,0.1512077 1.8906692,1.1174479 0.00172,0.4438862 0.3619823,0.8018592 0.8064411,0.8007135 C 9.7291508,8.9924275 10.087696,8.63159 10.085377,8.1882482 10.079677,6.5467565 8.7096445,5.4791379 6.5950272,5.4711202 L 3.1951456,5.4573703 C 2.3795393,5.4539696 1.6131914,5.7700955 1.0381432,6.3451425 0.46195019,6.9213357 0.1475065,7.6871115 0.15037127,8.5021444 c 0.0034,0.8396606 0.3470898,1.6025716 0.90094433,2.1564286 0.5538565,0.553855 1.3167689,0.898654 2.1564299,0.900946 l 0.925574,0.0034 c 0.443314,0.0023 0.803577,-0.355682 0.804723,-0.798996 C 4.9386154,10.320036 4.5806424,9.9597725 4.1379295,9.9568808 Z M 15.888574,8.5525499 C 15.881175,6.7878871 14.690368,5.5020481 13.058013,5.4963212 l -1.151814,-0.004 c -0.443887,-0.0017 -0.804723,0.3556731 -0.805871,0.798984 -0.0017,0.4438863 0.356254,0.8041499 0.800176,0.8058331 l 1.151813,0.00515 c 0.845389,0.0023 1.226844,0.7331325 1.230854,1.4565247 5.72e-4,0.3843189 -0.147199,0.7451555 -0.418113,1.0160693 -0.270913,0.2709131 -0.631749,0.4186843 -1.015496,0.4175387 L 9.2216887,9.9775675 C 7.5635589,9.9701175 7.5595497,9.1928912 7.5584039,8.8606925 7.5566839,8.4168062 7.1958491,8.0594061 6.7531082,8.0611244 c -0.4438861,0.00172 -0.8024317,0.3625553 -0.7995678,0.805296 0.00344,0.7617666 0.2520127,1.3860706 0.709072,1.8431316 0.559583,0.559583 1.4330372,0.869443 2.5544945,0.874026 l 3.6272661,0.01546 c 0.814461,0.0012 1.581381,-0.313294 2.15643,-0.888341 0.575619,-0.575621 0.890062,-1.3425409 0.887771,-2.1581461 z"
     style="stroke-width:0.0253125" />
</svg>
