<?xml version="1.0" encoding="UTF-8" standalone="no"?>
<svg
   xmlns:dc="http://purl.org/dc/elements/1.1/"
   xmlns:cc="http://creativecommons.org/ns#"
   xmlns:rdf="http://www.w3.org/1999/02/22-rdf-syntax-ns#"
   xmlns:svg="http://www.w3.org/2000/svg"
   xmlns="http://www.w3.org/2000/svg"
   xmlns:sodipodi="http://sodipodi.sourceforge.net/DTD/sodipodi-0.dtd"
   xmlns:inkscape="http://www.inkscape.org/namespaces/inkscape"
   width="1em"
   height="1em"
   viewBox="0 0 16 16"
   class="bi bi-pencil-square"
   fill="currentColor"
   version="1.1"
   id="svg852"
   sodipodi:docname="pencil-square2.svg"
   inkscape:version="1.0 (4035a4fb49, 2020-05-01)">
  <metadata
     id="metadata858">
    <rdf:RDF>
      <cc:Work
         rdf:about="">
        <dc:format>image/svg+xml</dc:format>
        <dc:type
           rdf:resource="http://purl.org/dc/dcmitype/StillImage" />
        <dc:title></dc:title>
      </cc:Work>
    </rdf:RDF>
  </metadata>
  <defs
     id="defs856" />
  <sodipodi:namedview
     inkscape:document-rotation="0"
     pagecolor="#ffffff"
     bordercolor="#666666"
     borderopacity="1"
     objecttolerance="10"
     gridtolerance="10"
     guidetolerance="10"
     inkscape:pageopacity="0"
     inkscape:pageshadow="2"
     inkscape:window-width="1920"
     inkscape:window-height="1001"
     id="namedview854"
     showgrid="false"
     inkscape:zoom="45.254834"
     inkscape:cx="7.3915664"
     inkscape:cy="8.4380208"
     inkscape:window-x="-9"
     inkscape:window-y="-9"
     inkscape:window-maximized="1"
     inkscape:current-layer="svg852" />
  <path
     d="M 13.820312 0.5 A 0.5 0.5 0 0 0 13.501953 0.64648438 L 12.458984 1.6894531 L 14.458984 3.6894531 L 15.501953 2.6464844 A 0.5 0.5 0 0 0 15.501953 1.9394531 L 14.208984 0.64648438 A 0.5 0.5 0 0 0 13.820312 0.5 z M 2.5 1 A 1.5 1.5 0 0 0 1 2.5 L 1 13.5 A 1.5 1.5 0 0 0 2.5 15 L 13.5 15 A 1.5 1.5 0 0 0 15 13.5 L 15 7.5 A 0.5 0.5 0 0 0 14.242188 7.0722656 A 0.5 0.5 0 0 0 14.087891 7.21875 L 10.408203 10.701172 L 6.9238281 14 L 2.5 14 A 0.5 0.5 0 0 1 2 13.5 L 2 8.7167969 L 5.5722656 5.3789062 L 9.2792969 1.9140625 A 0.5 0.5 0 0 0 9 1 L 2.5 1 z M 11.751953 2.3964844 L 4.9394531 9.2109375 A 0.5 0.5 0 0 0 4.8183594 9.40625 L 4.0136719 11.820312 A 0.25 0.25 0 0 0 4.328125 12.136719 L 6.7421875 11.330078 A 0.5 0.5 0 0 0 6.9394531 11.210938 L 13.751953 4.3964844 L 11.751953 2.3964844 z "
     style="fill:#000000;fill-opacity:1"
     id="path848" />
</svg>
