<?xml version="1.0" encoding="UTF-8" standalone="no"?>
<svg
   xmlns:dc="http://purl.org/dc/elements/1.1/"
   xmlns:cc="http://creativecommons.org/ns#"
   xmlns:rdf="http://www.w3.org/1999/02/22-rdf-syntax-ns#"
   xmlns:svg="http://www.w3.org/2000/svg"
   xmlns="http://www.w3.org/2000/svg"
   xmlns:sodipodi="http://sodipodi.sourceforge.net/DTD/sodipodi-0.dtd"
   xmlns:inkscape="http://www.inkscape.org/namespaces/inkscape"
   inkscape:version="1.0 (4035a4fb49, 2020-05-01)"
   sodipodi:docname="pencil-square.svg"
   id="svg852"
   version="1.1"
   fill="currentColor"
   class="bi bi-pencil-square"
   viewBox="0 0 16 16"
   height="1em"
   width="1em">
  <metadata
     id="metadata858">
    <rdf:RDF>
      <cc:Work
         rdf:about="">
        <dc:format>image/svg+xml</dc:format>
        <dc:type
           rdf:resource="http://purl.org/dc/dcmitype/StillImage" />
      </cc:Work>
    </rdf:RDF>
  </metadata>
  <defs
     id="defs856" />
  <sodipodi:namedview
     inkscape:current-layer="svg852"
     inkscape:window-maximized="1"
     inkscape:window-y="-9"
     inkscape:window-x="-9"
     inkscape:cy="7.2289157"
     inkscape:cx="8"
     inkscape:zoom="36.681164"
     showgrid="false"
     id="namedview854"
     inkscape:window-height="1001"
     inkscape:window-width="1920"
     inkscape:pageshadow="2"
     inkscape:pageopacity="0"
     guidetolerance="10"
     gridtolerance="10"
     objecttolerance="10"
     borderopacity="1"
     bordercolor="#666666"
     pagecolor="#ffffff" />
  <path
     style="fill:#000000;fill-opacity:1"
     id="path848"
     d="M15.502 1.94a.5.5 0 0 1 0 .706L14.459 3.69l-2-2L13.502.646a.5.5 0 0 1 .707 0l1.293 1.293zm-1.75 2.456l-2-2L4.939 9.21a.5.5 0 0 0-.121.196l-.805 2.414a.25.25 0 0 0 .316.316l2.414-.805a.5.5 0 0 0 .196-.12l6.813-6.814z" />
  <path
     style="fill:#000000;fill-opacity:1"
     id="path850"
     d="M1 13.5A1.5 1.5 0 0 0 2.5 15h11a1.5 1.5 0 0 0 1.5-1.5v-6a.5.5 0 0 0-1 0v6a.5.5 0 0 1-.5.5h-11a.5.5 0 0 1-.5-.5v-11a.5.5 0 0 1 .5-.5H9a.5.5 0 0 0 0-1H2.5A1.5 1.5 0 0 0 1 2.5v11z"
     fill-rule="evenodd" />
  <path
     inkscape:transform-center-x="-1.2272223"
     transform="matrix(1.0810716,-8.3920981e-5,-0.61509324,1.1578453,0.71136408,-1.1311812)"
     inkscape:transform-center-y="1.1549098"
     d="M 5.9759036,8.6361444 4.2480263,5.6433733 2.5201491,2.6506023 l 3.4557545,-1e-7 3.4557542,-10e-8 -1.7278771,2.9927712 z"
     inkscape:randomized="0"
     inkscape:rounded="0"
     inkscape:flatsided="false"
     sodipodi:arg2="2.6179939"
     sodipodi:arg1="1.5707963"
     sodipodi:r2="1.9951807"
     sodipodi:r1="3.9903615"
     sodipodi:cy="4.6457829"
     sodipodi:cx="5.9759035"
     sodipodi:sides="3"
     id="path2099"
     style="fill:#000000;fill-opacity:1;fill-rule:evenodd"
     sodipodi:type="star" />
  <path
     sodipodi:type="star"
     style="fill:#000000;fill-opacity:1;fill-rule:evenodd"
     id="path2099-5"
     sodipodi:sides="3"
     sodipodi:cx="5.9759035"
     sodipodi:cy="4.6457829"
     sodipodi:r1="3.9903615"
     sodipodi:r2="1.9951807"
     sodipodi:arg1="1.5707963"
     sodipodi:arg2="2.6179939"
     inkscape:flatsided="false"
     inkscape:rounded="0"
     inkscape:randomized="0"
     d="M 5.9759036,8.6361444 4.2480263,5.6433733 2.5201491,2.6506023 l 3.4557545,-1e-7 3.4557542,-10e-8 -1.7278771,2.9927712 z"
     inkscape:transform-center-y="-1.2095193"
     transform="matrix(-1.1173303,8.7889141e-5,0.63572322,-1.2125934,15.440201,17.51232)"
     inkscape:transform-center-x="1.2683834" />
</svg>
