<?xml version="1.0" encoding="UTF-8" standalone="no"?>
<svg
   xmlns:dc="http://purl.org/dc/elements/1.1/"
   xmlns:cc="http://creativecommons.org/ns#"
   xmlns:rdf="http://www.w3.org/1999/02/22-rdf-syntax-ns#"
   xmlns:svg="http://www.w3.org/2000/svg"
   xmlns="http://www.w3.org/2000/svg"
   xmlns:sodipodi="http://sodipodi.sourceforge.net/DTD/sodipodi-0.dtd"
   xmlns:inkscape="http://www.inkscape.org/namespaces/inkscape"
   inkscape:version="1.0 (4035a4fb49, 2020-05-01)"
   sodipodi:docname="person-dash.svg"
   id="svg5430"
   version="1.1"
   fill="currentColor"
   class="bi bi-person-dash"
   viewBox="0 0 16 16"
   height="1em"
   width="1em">
  <metadata
     id="metadata5436">
    <rdf:RDF>
      <cc:Work
         rdf:about="">
        <dc:format>image/svg+xml</dc:format>
        <dc:type
           rdf:resource="http://purl.org/dc/dcmitype/StillImage" />
      </cc:Work>
    </rdf:RDF>
  </metadata>
  <defs
     id="defs5434" />
  <sodipodi:namedview
     inkscape:current-layer="svg5430"
     inkscape:window-maximized="1"
     inkscape:window-y="-9"
     inkscape:window-x="-9"
     inkscape:cy="7.2289157"
     inkscape:cx="8"
     inkscape:zoom="51.875"
     showgrid="false"
     id="namedview5432"
     inkscape:window-height="1001"
     inkscape:window-width="1920"
     inkscape:pageshadow="2"
     inkscape:pageopacity="0"
     guidetolerance="10"
     gridtolerance="10"
     objecttolerance="10"
     borderopacity="1"
     bordercolor="#666666"
     pagecolor="#ffffff" />
  <path
     d="M 5.9492188 2 A 3 3 0 0 0 3 5 A 3 3 0 0 0 9 5 A 3 3 0 0 0 5.9492188 2 z M 6 3 A 2 2 0 0 1 6 7 A 2 2 0 0 1 6 3 z M 11.488281 7 A 0.5 0.5 0 0 0 11 7.5 A 0.5 0.5 0 0 0 11.5 8 L 15.5 8 A 0.5 0.5 0 0 0 15.5 7 L 11.5 7 A 0.5 0.5 0 0 0 11.488281 7 z M 6 9 C 1 9 0 12 0 13 C 0 14 1 14 1 14 L 11 14 C 11 14 12 14 12 13 C 12 12 11 9 6 9 z M 6 10 C 8.289 10 9.5159688 10.680031 10.167969 11.332031 C 10.845969 12.010031 10.999 12.750094 11 12.996094 L 10.992188 12.998047 A 0.274 0.274 0 0 1 10.978516 13 L 1.0214844 13 A 1.05 1.05 0 0 1 1 12.996094 C 1.002 12.750094 1.1540313 12.010031 1.8320312 11.332031 C 2.4840313 10.680031 3.71 10 6 10 z "
     style="fill:#000000;fill-opacity:1;fill-rule:evenodd"
     id="path5428" />
</svg>
