<?xml version="1.0" encoding="UTF-8" standalone="no"?>
<svg
   xmlns:dc="http://purl.org/dc/elements/1.1/"
   xmlns:cc="http://creativecommons.org/ns#"
   xmlns:rdf="http://www.w3.org/1999/02/22-rdf-syntax-ns#"
   xmlns:svg="http://www.w3.org/2000/svg"
   xmlns="http://www.w3.org/2000/svg"
   xmlns:sodipodi="http://sodipodi.sourceforge.net/DTD/sodipodi-0.dtd"
   xmlns:inkscape="http://www.inkscape.org/namespaces/inkscape"
   sodipodi:docname="play_circle_outline.svg"
   inkscape:version="1.0 (4035a4fb49, 2020-05-01)"
   id="svg8"
   version="1.1"
   viewBox="0 0 4.2333332 4.2333335"
   height="16"
   width="16">
  <defs
     id="defs2" />
  <sodipodi:namedview
     inkscape:window-maximized="1"
     inkscape:window-y="-9"
     inkscape:window-x="-9"
     inkscape:window-height="1001"
     inkscape:window-width="1920"
     units="px"
     showgrid="false"
     inkscape:document-rotation="0"
     inkscape:current-layer="layer1"
     inkscape:document-units="mm"
     inkscape:cy="8"
     inkscape:cx="8"
     inkscape:zoom="50.0625"
     inkscape:pageshadow="2"
     inkscape:pageopacity="0.0"
     borderopacity="1.0"
     bordercolor="#666666"
     pagecolor="#ffffff"
     id="base" />
  <metadata
     id="metadata5">
    <rdf:RDF>
      <cc:Work
         rdf:about="">
        <dc:format>image/svg+xml</dc:format>
        <dc:type
           rdf:resource="http://purl.org/dc/dcmitype/StillImage" />
        <dc:title></dc:title>
      </cc:Work>
    </rdf:RDF>
  </metadata>
  <g
     id="layer1"
     inkscape:groupmode="layer"
     inkscape:label="图层 1">
    <path
       style="stroke-width:0.00639778"
       d="m 2.1273061,3.7670603 q 0.6717688,0 1.156402,-0.4846335 0.4846334,-0.4846332 0.4846334,-1.1564019 0,-0.6717688 -0.4846334,-1.15640208 -0.4846332,-0.48463319 -1.1564019,-0.48463319 -0.6717688,0 -1.15640204,0.48463319 -0.48463325,0.48463328 -0.48463325,1.15640208 0,0.6717687 0.48463325,1.1564019 0.48463314,0.4846335 1.15640194,0.4846335 z m 0,-3.68513193 q 0.8445093,0 1.444303,0.59979351 0.5997936,0.59979362 0.5997936,1.44430302 0,0.8445091 -0.5997936,1.4443029 -0.5997937,0.5997935 -1.4443029,0.5997935 -0.8445093,0 -1.44430295,-0.5997935 Q 0.08320982,2.970534 0.08320982,2.1260249 q 0,-0.8445094 0.59979343,-1.44430302 Q 1.2827969,0.08192837 2.1273061,0.08192837 Z M 1.7146481,3.0473077 V 1.204742 l 1.2283773,0.9212829 z"
       id="path193" />
  </g>
</svg>
