<?xml version="1.0" encoding="UTF-8" standalone="no"?>
<svg
   xmlns:dc="http://purl.org/dc/elements/1.1/"
   xmlns:cc="http://creativecommons.org/ns#"
   xmlns:rdf="http://www.w3.org/1999/02/22-rdf-syntax-ns#"
   xmlns:svg="http://www.w3.org/2000/svg"
   xmlns="http://www.w3.org/2000/svg"
   xmlns:sodipodi="http://sodipodi.sourceforge.net/DTD/sodipodi-0.dtd"
   xmlns:inkscape="http://www.inkscape.org/namespaces/inkscape"
   width="1em"
   height="1em"
   viewBox="0 0 16 16"
   class="bi bi-power"
   fill="currentColor"
   version="1.1"
   id="svg865"
   sodipodi:docname="power.svg"
   inkscape:version="1.0 (4035a4fb49, 2020-05-01)">
  <metadata
     id="metadata871">
    <rdf:RDF>
      <cc:Work
         rdf:about="">
        <dc:format>image/svg+xml</dc:format>
        <dc:type
           rdf:resource="http://purl.org/dc/dcmitype/StillImage" />
      </cc:Work>
    </rdf:RDF>
  </metadata>
  <defs
     id="defs869" />
  <sodipodi:namedview
     inkscape:document-rotation="0"
     pagecolor="#ffffff"
     bordercolor="#666666"
     borderopacity="1"
     objecttolerance="10"
     gridtolerance="10"
     guidetolerance="10"
     inkscape:pageopacity="0"
     inkscape:pageshadow="2"
     inkscape:window-width="1920"
     inkscape:window-height="1001"
     id="namedview867"
     showgrid="false"
     inkscape:zoom="36.681164"
     inkscape:cx="8"
     inkscape:cy="8"
     inkscape:window-x="-9"
     inkscape:window-y="-9"
     inkscape:window-maximized="1"
     inkscape:current-layer="svg865" />
  <path
     style="stroke-width:0.034375"
     d="m 7.9044132,16.064894 c -1.9096,0 -3.7048001,-0.7436 -5.0556001,-2.0933 -1.3497,-1.3508 -2.09439998,-3.146 -2.09439998,-5.0566995 0,-1.9107 0.74469998,-3.7059 2.09439998,-5.0567001 0.4301,-0.4301 1.1253,-0.4301 1.5554001,0 0.4301,0.4301 0.4301,1.1253001 0,1.5554001 -0.9350001,0.9361001 -1.4498001,2.1791 -1.4498001,3.5013 0,1.3221995 0.5148,2.5662995 1.4498001,3.5012995 0.935,0.935 2.1769,1.4487 3.5002,1.4487 1.3233002,0 2.5651998,-0.5148 3.5001998,-1.4487 0.9361,-0.935 1.4498,-2.178 1.4498,-3.5012995 0,-1.3233 -0.5148,-2.5662999 -1.4498,-3.5013 -0.4301,-0.4301 -0.4301,-1.1253001 0,-1.5554001 0.4301,-0.4301 1.1253,-0.4301 1.5554,0 1.3497,1.3519001 2.0944,3.1471001 2.0944,5.0567001 0,1.9095995 -0.7447,3.7058995 -2.0944,5.0566995 -1.3508,1.3497 -3.1459999,2.0933 -5.0555998,2.0933 z"
     id="path193" />
  <path
     style="stroke-width:0.034375"
     d="m 7.9044132,7.7345945 c -0.6083,0 -1.1,-0.4928 -1.1,-1.1 V 1.1345944 c 0,-0.60719997 0.4917,-1.09999997 1.1,-1.09999997 0.6083,0 1.1000002,0.4928 1.1000002,1.09999997 v 5.5000001 c 0,0.6072 -0.4917002,1.1 -1.1000002,1.1 z"
     id="path195" />
</svg>
