<?xml version="1.0" encoding="UTF-8" standalone="no"?>
<svg
   xmlns:dc="http://purl.org/dc/elements/1.1/"
   xmlns:cc="http://creativecommons.org/ns#"
   xmlns:rdf="http://www.w3.org/1999/02/22-rdf-syntax-ns#"
   xmlns:svg="http://www.w3.org/2000/svg"
   xmlns="http://www.w3.org/2000/svg"
   xmlns:sodipodi="http://sodipodi.sourceforge.net/DTD/sodipodi-0.dtd"
   xmlns:inkscape="http://www.inkscape.org/namespaces/inkscape"
   inkscape:version="1.0 (4035a4fb49, 2020-05-01)"
   sodipodi:docname="puzzle-fill.svg"
   id="svg846"
   version="1.1"
   fill="currentColor"
   class="bi bi-puzzle-fill"
   viewBox="0 0 16 16"
   height="1em"
   width="1em">
  <metadata
     id="metadata852">
    <rdf:RDF>
      <cc:Work
         rdf:about="">
        <dc:format>image/svg+xml</dc:format>
        <dc:type
           rdf:resource="http://purl.org/dc/dcmitype/StillImage" />
      </cc:Work>
    </rdf:RDF>
  </metadata>
  <defs
     id="defs850" />
  <sodipodi:namedview
     inkscape:current-layer="svg846"
     inkscape:window-maximized="1"
     inkscape:window-y="-9"
     inkscape:window-x="-9"
     inkscape:cy="8"
     inkscape:cx="8"
     inkscape:zoom="36.681164"
     showgrid="false"
     id="namedview848"
     inkscape:window-height="1001"
     inkscape:window-width="1920"
     inkscape:pageshadow="2"
     inkscape:pageopacity="0"
     guidetolerance="10"
     gridtolerance="10"
     objecttolerance="10"
     borderopacity="1"
     bordercolor="#666666"
     pagecolor="#ffffff" />
  <path
     style="stroke-width:0.0234175"
     d="m 14.053881,7.6827504 q 0.772783,0 1.334811,0.5444627 0.562026,0.5444631 0.562026,1.3172487 0,0.7727862 -0.562026,1.3172482 -0.562028,0.544464 -1.334811,0.544464 H 12.92983 v 3.02089 q 0,0.597154 -0.439085,1.036238 -0.439083,0.439081 -1.036235,0.439081 H 8.6092518 V 14.77833 q 0,-0.843039 -0.5971521,-1.422628 -0.5971531,-0.57959 -1.4401926,-0.57959 -0.8430392,0 -1.4401921,0.57959 -0.597153,0.579589 -0.597153,1.422628 v 1.124053 H 1.6893046 q -0.5971525,0 -1.03623535,-0.439081 Q 0.2139862,15.024218 0.2139862,14.427064 v -2.845257 h 1.1240527 q 0.8430389,0 1.422628,-0.597152 0.5795898,-0.597154 0.5795898,-1.4401932 0,-0.8430389 -0.5795898,-1.4401919 Q 2.1810778,7.5071176 1.3380389,7.5071176 H 0.2139862 V 4.6618601 q 0,-0.5971533 0.43908305,-1.0362361 Q 1.0921521,3.1865413 1.6893046,3.1865413 h 3.020891 V 2.0624889 q 0,-0.7727857 0.5444628,-1.33481201 0.5444623,-0.56202602 1.3172487,-0.56202602 0.7727862,0 1.3172491,0.56202602 Q 8.4336188,1.2897032 8.4336188,2.0624889 V 3.1865413 H 11.45451 q 0.597152,0 1.036235,0.4390827 0.439085,0.4390828 0.439085,1.0362361 v 3.0208903 z"
     id="path193" />
</svg>
