<?xml version="1.0" encoding="UTF-8" standalone="no"?>
<svg
   xmlns:dc="http://purl.org/dc/elements/1.1/"
   xmlns:cc="http://creativecommons.org/ns#"
   xmlns:rdf="http://www.w3.org/1999/02/22-rdf-syntax-ns#"
   xmlns:svg="http://www.w3.org/2000/svg"
   xmlns="http://www.w3.org/2000/svg"
   xmlns:sodipodi="http://sodipodi.sourceforge.net/DTD/sodipodi-0.dtd"
   xmlns:inkscape="http://www.inkscape.org/namespaces/inkscape"
   width="1em"
   height="1em"
   viewBox="0 0 16 16"
   class="bi bi-shield-x"
   fill="currentColor"
   version="1.1"
   id="svg3136"
   sodipodi:docname="shield-x.svg"
   inkscape:version="1.0 (4035a4fb49, 2020-05-01)">
  <metadata
     id="metadata3142">
    <rdf:RDF>
      <cc:Work
         rdf:about="">
        <dc:format>image/svg+xml</dc:format>
        <dc:type
           rdf:resource="http://purl.org/dc/dcmitype/StillImage" />
      </cc:Work>
    </rdf:RDF>
  </metadata>
  <defs
     id="defs3140" />
  <sodipodi:namedview
     inkscape:document-rotation="0"
     pagecolor="#ffffff"
     bordercolor="#666666"
     borderopacity="1"
     objecttolerance="10"
     gridtolerance="10"
     guidetolerance="10"
     inkscape:pageopacity="0"
     inkscape:pageshadow="2"
     inkscape:window-width="1920"
     inkscape:window-height="1001"
     id="namedview3138"
     showgrid="false"
     inkscape:zoom="51.875"
     inkscape:cx="8"
     inkscape:cy="8"
     inkscape:window-x="-9"
     inkscape:window-y="-9"
     inkscape:window-maximized="1"
     inkscape:current-layer="svg3136" />
  <path
     fill-rule="evenodd"
     d="M5.443 1.991a60.17 60.17 0 0 0-2.725.802.454.454 0 0 0-.315.366C1.87 7.056 3.1 9.9 4.567 11.773c.736.94 1.533 1.636 2.197 2.093.333.228.626.394.857.5.116.053.21.089.282.11A.73.73 0 0 0 8 14.5c.007-.001.038-.005.097-.023.072-.022.166-.058.282-.111.23-.106.525-.272.857-.5a10.197 10.197 0 0 0 2.197-2.093C12.9 9.9 14.13 7.056 13.597 3.159a.454.454 0 0 0-.315-.366c-.626-.2-1.682-.526-2.725-.802C9.491 1.71 8.51 1.5 8 1.5c-.51 0-1.49.21-2.557.491zm-.256-.966C6.23.749 7.337.5 8 .5c.662 0 1.77.249 2.813.525a61.09 61.09 0 0 1 2.772.815c.528.168.926.623 1.003 1.184.573 4.197-.756 7.307-2.367 9.365a11.191 11.191 0 0 1-2.418 2.3 6.942 6.942 0 0 1-1.007.586c-.27.124-.558.225-.796.225s-.526-.101-.796-.225a6.908 6.908 0 0 1-1.007-.586 11.192 11.192 0 0 1-2.417-2.3C2.167 10.331.839 7.221 1.412 3.024A1.454 1.454 0 0 1 2.415 1.84a61.11 61.11 0 0 1 2.772-.815z"
     id="path3132" />
  <g
     id="g3705"
     style="opacity:1;fill-opacity:1;fill-rule:nonzero">
    <path
       style="color:#000000;font-style:normal;font-variant:normal;font-weight:normal;font-stretch:normal;font-size:medium;line-height:normal;font-family:sans-serif;font-variant-ligatures:normal;font-variant-position:normal;font-variant-caps:normal;font-variant-numeric:normal;font-variant-alternates:normal;font-variant-east-asian:normal;font-feature-settings:normal;font-variation-settings:normal;text-indent:0;text-align:start;text-decoration:none;text-decoration-line:none;text-decoration-style:solid;text-decoration-color:#000000;letter-spacing:normal;word-spacing:normal;text-transform:none;writing-mode:lr-tb;direction:ltr;text-orientation:mixed;dominant-baseline:auto;baseline-shift:baseline;text-anchor:start;white-space:normal;shape-padding:0;shape-margin:0;inline-size:0;clip-rule:nonzero;display:inline;overflow:visible;visibility:visible;isolation:auto;mix-blend-mode:normal;color-interpolation:sRGB;color-interpolation-filters:linearRGB;solid-color:#000000;solid-opacity:1;vector-effect:none;fill-opacity:1;fill-rule:nonzero;stroke:none;stroke-width:1;stroke-linecap:round;stroke-linejoin:miter;stroke-miterlimit:4;stroke-dasharray:none;stroke-dashoffset:0;stroke-opacity:1;color-rendering:auto;image-rendering:auto;shape-rendering:auto;text-rendering:auto;enable-background:accumulate;stop-color:#000000;stop-opacity:1"
       d="m 9.5,6.5 -3,3 m 0,-3 3,3"
       id="path3707" />
    <path
       style="color:#000000;font-style:normal;font-variant:normal;font-weight:normal;font-stretch:normal;font-size:medium;line-height:normal;font-family:sans-serif;font-variant-ligatures:normal;font-variant-position:normal;font-variant-caps:normal;font-variant-numeric:normal;font-variant-alternates:normal;font-variant-east-asian:normal;font-feature-settings:normal;font-variation-settings:normal;text-indent:0;text-align:start;text-decoration:none;text-decoration-line:none;text-decoration-style:solid;text-decoration-color:#000000;letter-spacing:normal;word-spacing:normal;text-transform:none;writing-mode:lr-tb;direction:ltr;text-orientation:mixed;dominant-baseline:auto;baseline-shift:baseline;text-anchor:start;white-space:normal;shape-padding:0;shape-margin:0;inline-size:0;clip-rule:nonzero;display:inline;overflow:visible;visibility:visible;isolation:auto;mix-blend-mode:normal;color-interpolation:sRGB;color-interpolation-filters:linearRGB;solid-color:#000000;solid-opacity:1;vector-effect:none;fill-opacity:1;fill-rule:nonzero;stroke:none;stroke-width:1;stroke-linecap:round;stroke-linejoin:miter;stroke-miterlimit:4;stroke-dasharray:none;stroke-dashoffset:0;stroke-opacity:1;color-rendering:auto;image-rendering:auto;shape-rendering:auto;text-rendering:auto;enable-background:accumulate;stop-color:#000000;stop-opacity:1"
       d="m 6.4765625,6 a 0.5,0.5 0 0 0 -0.3300781,0.1464844 0.5,0.5 0 0 0 0,0.7070312 L 7.2929688,8 6.1464844,9.1464844 a 0.5,0.5 0 0 0 0,0.7070312 0.5,0.5 0 0 0 0.7070312,0 L 8,8.7070312 9.1464844,9.8535156 a 0.5,0.5 0 0 0 0.7070312,0 0.5,0.5 0 0 0 0,-0.7070312 L 8.7070312,8 9.8535156,6.8535156 a 0.5,0.5 0 0 0 0,-0.7070312 0.5,0.5 0 0 0 -0.7070312,0 L 8,7.2929688 6.8535156,6.1464844 A 0.5,0.5 0 0 0 6.4765625,6 Z"
       id="path3709" />
  </g>
</svg>
