<?xml version="1.0" encoding="UTF-8" standalone="no"?>
<svg
   xmlns:dc="http://purl.org/dc/elements/1.1/"
   xmlns:cc="http://creativecommons.org/ns#"
   xmlns:rdf="http://www.w3.org/1999/02/22-rdf-syntax-ns#"
   xmlns:svg="http://www.w3.org/2000/svg"
   xmlns="http://www.w3.org/2000/svg"
   xmlns:sodipodi="http://sodipodi.sourceforge.net/DTD/sodipodi-0.dtd"
   xmlns:inkscape="http://www.inkscape.org/namespaces/inkscape"
   inkscape:version="1.0 (4035a4fb49, 2020-05-01)"
   sodipodi:docname="stickies.svg"
   id="svg1427"
   version="1.1"
   fill="currentColor"
   class="bi bi-stickies"
   viewBox="0 0 16 16"
   height="1em"
   width="1em">
  <metadata
     id="metadata1433">
    <rdf:RDF>
      <cc:Work
         rdf:about="">
        <dc:format>image/svg+xml</dc:format>
        <dc:type
           rdf:resource="http://purl.org/dc/dcmitype/StillImage" />
      </cc:Work>
    </rdf:RDF>
  </metadata>
  <defs
     id="defs1431" />
  <sodipodi:namedview
     showguides="false"
     inkscape:current-layer="svg1427"
     inkscape:window-maximized="1"
     inkscape:window-y="-9"
     inkscape:window-x="-9"
     inkscape:cy="9.1443177"
     inkscape:cx="4.9446839"
     inkscape:zoom="45.254834"
     showgrid="false"
     id="namedview1429"
     inkscape:window-height="1001"
     inkscape:window-width="1920"
     inkscape:pageshadow="2"
     inkscape:pageopacity="0"
     guidetolerance="10"
     gridtolerance="10"
     objecttolerance="10"
     borderopacity="1"
     bordercolor="#666666"
     pagecolor="#ffffff"
     inkscape:document-rotation="0" />
  <path
     style="fill:#000000;fill-opacity:1"
     id="path1421"
     d="M0 1.5A1.5 1.5 0 0 1 1.5 0H13a1 1 0 0 1 1 1H1.5a.5.5 0 0 0-.5.5V14a1 1 0 0 1-1-1V1.5z"
     fill-rule="evenodd" />
  <path
     style="fill:#000000;fill-opacity:1"
     id="path1423"
     d="M2 3.5A1.5 1.5 0 0 1 3.5 2h11A1.5 1.5 0 0 1 16 3.5v6.086a1.5 1.5 0 0 1-.44 1.06l-4.914 4.915a1.5 1.5 0 0 1-1.06.439H3.5A1.5 1.5 0 0 1 2 14.5v-11zM3.5 3a.5.5 0 0 0-.5.5v11a.5.5 0 0 0 .5.5h6.086a.5.5 0 0 0 .353-.146l4.915-4.915A.5.5 0 0 0 15 9.586V3.5a.5.5 0 0 0-.5-.5h-11z"
     fill-rule="evenodd" />
  <path
     style="fill:#000000;fill-opacity:1"
     id="path1425"
     d="M10.5 10a.5.5 0 0 0-.5.5v5H9v-5A1.5 1.5 0 0 1 10.5 9h5v1h-5z"
     fill-rule="evenodd" />
  <rect
     y="4.3122163"
     x="4.0249696"
     height="3.5729153"
     width="10.030399"
     id="rect2066"
     style="fill:#000000;fill-opacity:1;fill-rule:evenodd;stroke-width:1.64957" />
  <rect
     y="9.056694"
     x="4.0085711"
     height="5.0760684"
     width="4.0201526"
     id="rect2072"
     style="fill:#000000;fill-opacity:1;fill-rule:evenodd;stroke-width:1.84198" />
</svg>
