<?xml version="1.0" encoding="UTF-8" standalone="no"?>
<svg
   xmlns:dc="http://purl.org/dc/elements/1.1/"
   xmlns:cc="http://creativecommons.org/ns#"
   xmlns:rdf="http://www.w3.org/1999/02/22-rdf-syntax-ns#"
   xmlns:svg="http://www.w3.org/2000/svg"
   xmlns="http://www.w3.org/2000/svg"
   xmlns:sodipodi="http://sodipodi.sourceforge.net/DTD/sodipodi-0.dtd"
   xmlns:inkscape="http://www.inkscape.org/namespaces/inkscape"
   inkscape:version="1.0 (4035a4fb49, 2020-05-01)"
   sodipodi:docname="stop.svg"
   id="svg1416"
   version="1.1"
   fill="currentColor"
   class="bi bi-stop"
   viewBox="0 0 16 16"
   height="1em"
   width="1em">
  <metadata
     id="metadata1422">
    <rdf:RDF>
      <cc:Work
         rdf:about="">
        <dc:format>image/svg+xml</dc:format>
        <dc:type
           rdf:resource="http://purl.org/dc/dcmitype/StillImage" />
      </cc:Work>
    </rdf:RDF>
  </metadata>
  <defs
     id="defs1420" />
  <sodipodi:namedview
     inkscape:current-layer="svg1416"
     inkscape:window-maximized="1"
     inkscape:window-y="-9"
     inkscape:window-x="-9"
     inkscape:cy="8.7710843"
     inkscape:cx="8"
     inkscape:zoom="51.875"
     showgrid="false"
     id="namedview1418"
     inkscape:window-height="1001"
     inkscape:window-width="1920"
     inkscape:pageshadow="2"
     inkscape:pageopacity="0"
     guidetolerance="10"
     gridtolerance="10"
     objecttolerance="10"
     borderopacity="1"
     bordercolor="#666666"
     pagecolor="#ffffff" />
  <path
     style="stroke-width:1.21"
     id="path1414"
     d="M 2.555,4.37 A 1.815,1.815 0 0 1 4.37,2.555 h 7.26 a 1.815,1.815 0 0 1 1.815,1.815 v 7.26 A 1.815,1.815 0 0 1 11.63,13.445 H 4.37 A 1.815,1.815 0 0 1 2.555,11.63 Z M 4.37,3.765 A 0.605,0.605 0 0 0 3.765,4.37 v 7.26 a 0.605,0.605 0 0 0 0.605,0.605 h 7.26 A 0.605,0.605 0 0 0 12.235,11.63 V 4.37 A 0.605,0.605 0 0 0 11.63,3.765 Z"
     fill-rule="evenodd" />
</svg>
