<?xml version="1.0" encoding="UTF-8" standalone="no"?>
<svg
   xmlns:dc="http://purl.org/dc/elements/1.1/"
   xmlns:cc="http://creativecommons.org/ns#"
   xmlns:rdf="http://www.w3.org/1999/02/22-rdf-syntax-ns#"
   xmlns:svg="http://www.w3.org/2000/svg"
   xmlns="http://www.w3.org/2000/svg"
   xmlns:sodipodi="http://sodipodi.sourceforge.net/DTD/sodipodi-0.dtd"
   xmlns:inkscape="http://www.inkscape.org/namespaces/inkscape"
   inkscape:version="1.0 (4035a4fb49, 2020-05-01)"
   sodipodi:docname="window-fill.svg"
   id="svg8"
   version="1.1"
   fill="currentColor"
   class="bi bi-window"
   viewBox="0 0 16 16"
   height="1em"
   width="1em">
  <metadata
     id="metadata14">
    <rdf:RDF>
      <cc:Work
         rdf:about="">
        <dc:format>image/svg+xml</dc:format>
        <dc:type
           rdf:resource="http://purl.org/dc/dcmitype/StillImage" />
      </cc:Work>
    </rdf:RDF>
  </metadata>
  <defs
     id="defs12" />
  <sodipodi:namedview
     inkscape:current-layer="svg8"
     inkscape:window-maximized="1"
     inkscape:window-y="-9"
     inkscape:window-x="-9"
     inkscape:cy="9.6990296"
     inkscape:cx="9.2450134"
     inkscape:zoom="36.681164"
     showgrid="false"
     id="namedview10"
     inkscape:window-height="1001"
     inkscape:window-width="1920"
     inkscape:pageshadow="2"
     inkscape:pageopacity="0"
     guidetolerance="10"
     gridtolerance="10"
     objecttolerance="10"
     borderopacity="1"
     bordercolor="#666666"
     pagecolor="#ffffff" />
  <path
     d="M 2 1 A 2 2 0 0 0 0 3 L 0 13 A 2 2 0 0 0 2 15 L 14 15 A 2 2 0 0 0 16 13 L 16 3 A 2 2 0 0 0 14 1 L 2 1 z M 2 2 L 14 2 A 1 1 0 0 1 15 3 L 15 5 L 1 5 L 1 3 A 1 1 0 0 1 2 2 z "
     style="fill-opacity:1;fill-rule:nonzero"
     id="path2" />
  <path
     id="path6"
     d="M3 3.5a.5.5 0 1 1-1 0 .5.5 0 0 1 1 0zm1.5 0a.5.5 0 1 1-1 0 .5.5 0 0 1 1 0zm1.5 0a.5.5 0 1 1-1 0 .5.5 0 0 1 1 0z" />
</svg>
