<?xml version="1.0" encoding="UTF-8" standalone="no"?>
<svg
   xmlns:osb="http://www.openswatchbook.org/uri/2009/osb"
   xmlns:dc="http://purl.org/dc/elements/1.1/"
   xmlns:cc="http://creativecommons.org/ns#"
   xmlns:rdf="http://www.w3.org/1999/02/22-rdf-syntax-ns#"
   xmlns:svg="http://www.w3.org/2000/svg"
   xmlns="http://www.w3.org/2000/svg"
   xmlns:sodipodi="http://sodipodi.sourceforge.net/DTD/sodipodi-0.dtd"
   xmlns:inkscape="http://www.inkscape.org/namespaces/inkscape"
   height="16"
   width="16"
   viewBox="0 0 16 16"
   version="1.1"
   id="svg5"
   sodipodi:docname="zblog-full-logo.svg"
   inkscape:version="1.0 (4035a4fb49, 2020-05-01)">
  <metadata
     id="metadata11">
    <rdf:RDF>
      <cc:Work
         rdf:about="">
        <dc:format>image/svg+xml</dc:format>
        <dc:type
           rdf:resource="http://purl.org/dc/dcmitype/StillImage" />
      </cc:Work>
    </rdf:RDF>
  </metadata>
  <defs
     id="defs9">
    <linearGradient
       id="linearGradient2789"
       osb:paint="solid">
      <stop
         style="stop-color:#000000;stop-opacity:1;"
         offset="0"
         id="stop2787" />
    </linearGradient>
    <linearGradient
       id="linearGradient857"
       osb:paint="gradient">
      <stop
         style="stop-color:#000000;stop-opacity:1;"
         offset="0"
         id="stop853" />
      <stop
         style="stop-color:#000000;stop-opacity:0;"
         offset="1"
         id="stop855" />
    </linearGradient>
    <linearGradient
       id="linearGradient849"
       osb:paint="gradient">
      <stop
         style="stop-color:#000000;stop-opacity:1;"
         offset="0"
         id="stop845" />
      <stop
         style="stop-color:#000000;stop-opacity:0;"
         offset="1"
         id="stop847" />
    </linearGradient>
  </defs>
  <sodipodi:namedview
     inkscape:document-rotation="0"
     pagecolor="#ffffff"
     bordercolor="#666666"
     borderopacity="1"
     objecttolerance="10"
     gridtolerance="10"
     guidetolerance="10"
     inkscape:pageopacity="0"
     inkscape:pageshadow="2"
     inkscape:window-width="1920"
     inkscape:window-height="1001"
     id="namedview7"
     showgrid="false"
     inkscape:zoom="51.875"
     inkscape:cx="9.2416301"
     inkscape:cy="8"
     inkscape:window-x="-9"
     inkscape:window-y="-9"
     inkscape:window-maximized="1"
     inkscape:current-layer="svg5" />
  <g
     aria-label="Z-Blog"
     transform="matrix(0.07731865,0,0,0.08485663,7.5503039,7.2739467)"
     id="text852"
     style="font-style:normal;font-weight:normal;font-size:3.73205px;line-height:1.25;font-family:sans-serif;fill:#000000;fill-opacity:1;stroke:none;stroke-width:0.699758" />
  <g
     style="font-style:normal;font-weight:normal;font-size:3.62757px;line-height:1.25;font-family:sans-serif;fill:#000000;fill-opacity:1;stroke:none;stroke-width:0.680165"
     id="text852-6"
     transform="scale(0.95455115,1.0476128)"
     aria-label="Z-Blog" />
  <g
     style="font-style:normal;font-weight:normal;font-size:1.06267px;line-height:1.25;font-family:sans-serif;fill:#000000;fill-opacity:1;stroke:none;stroke-width:0.199248"
     id="text856"
     transform="scale(1.0595062,0.94383592)"
     aria-label="for PHP" />
  <path
     d="M 0.35902662,5.8897388 V 10.058728 H 4.5174968 V 5.8897388 Z M 1.3711427,6.6071577 c 0.3674315,0.00262 0.7575014,0.00374 1.1702149,0.00374 0.4269451,0 0.7948446,-0.00112 1.1040561,-0.00374 -0.00905,0.1372377 -0.014881,0.2458986 -0.017464,0.325627 l -0.00794,0.2625337 -0.1106178,0.1080077 c -0.018115,0.018296 -0.035873,0.037072 -0.053987,0.056678 l -1.2152025,1.3431445 0.2662228,0.00157 c 0.063394,0 0.1548992,-2.997e-4 0.27522,-0.00157 L 3.317266,8.6913826 c 0.040107,-0.0013 0.1107934,-0.00494 0.2117081,-0.010159 -0.014234,0.2326511 -0.023936,0.4334564 -0.02911,0.6020627 -0.4127131,-0.00262 -0.7872582,-0.00374 -1.123639,-0.00374 H 1.9337555 l -0.5006888,0.00158 -0.2540494,0.00216 c 0.015526,-0.2692471 0.023287,-0.4680921 0.023287,-0.596181 L 1.3166269,8.5737368 C 1.3321529,8.5580535 1.451649,8.4278255 1.6754716,8.1834124 L 2.320122,7.4797769 C 2.395161,7.3948199 2.48249,7.2931699 2.5821104,7.1755375 l -0.153488,-0.0016 -0.1534882,-0.00213 H 2.0057363 c -0.2044162,0 -0.4206511,0.00701 -0.6483552,0.021387 0.011644,-0.1411588 0.017467,-0.2940801 0.017467,-0.4587653 0,-0.031369 0.00402,0.029129 0.00144,-0.024458 z M 13.609428,9.5476856 q 0,0.048485 -0.01924,0.090108 -0.01869,0.041142 -0.05277,0.071505 -0.04233,0.037706 -0.100059,0.056809 -0.05772,0.018612 -0.145687,0.018612 H 13.182815 V 10.056525 H 13.073963 V 9.3273028 h 0.222102 q 0.07367,0 0.124795,0.011264 0.05113,0.010774 0.09072,0.034282 0.04673,0.027915 0.07201,0.069543 0.02584,0.041633 0.02584,0.1052943 z m -0.11325,0.00245 q 0,-0.037706 -0.01484,-0.065625 -0.01484,-0.027919 -0.04508,-0.04555 -0.02639,-0.015182 -0.06048,-0.021549 -0.03353,-0.00685 -0.08522,-0.00685 h -0.107753 v 0.2913952 h 0.09181 q 0.06597,0 0.107202,-0.010288 0.04124,-0.010769 0.06707,-0.033789 0.02584,-0.023511 0.03629,-0.049466 0.011,-0.025956 0.011,-0.058282 z M 12.85351,10.056525 H 12.744658 V 9.6995044 H 12.336187 V 10.056525 H 12.227335 V 9.3273028 h 0.108852 v 0.2860077 h 0.408471 V 9.3273028 H 12.85351 Z M 12.083298,9.5476856 q 0,0.048485 -0.01924,0.090108 -0.01869,0.041142 -0.05277,0.071505 -0.04233,0.037706 -0.10006,0.056809 -0.05772,0.018612 -0.145686,0.018612 H 11.656685 V 10.056525 H 11.547834 V 9.3273028 h 0.222102 q 0.07367,0 0.124795,0.011264 0.05113,0.010774 0.09071,0.034282 0.04672,0.027915 0.07201,0.069543 0.02584,0.041633 0.02584,0.1052943 z m -0.11325,0.00245 q 0,-0.037706 -0.01484,-0.065625 -0.01484,-0.027919 -0.04508,-0.04555 -0.02639,-0.015182 -0.06048,-0.021549 -0.03353,-0.00685 -0.08522,-0.00685 h -0.107752 v 0.2913952 h 0.09181 q 0.06597,0 0.107203,-0.010288 0.04124,-0.010769 0.06707,-0.033789 0.02584,-0.023511 0.03629,-0.049466 0.011,-0.025956 0.011,-0.058282 z m -0.924694,0.059743 h -0.0055 q -0.02309,-0.00491 -0.04508,-0.00689 -0.02144,-0.00245 -0.05113,-0.00245 -0.04783,0 -0.09236,0.019103 -0.04453,0.018612 -0.08576,0.048485 V 10.05649 H 10.662163 V 9.5094508 h 0.103354 v 0.080811 q 0.06158,-0.044077 0.108303,-0.062199 0.04727,-0.018612 0.0962,-0.018612 0.02693,0 0.03903,0.00151 0.01209,9.439e-4 0.03629,0.00444 z m -0.543711,0.1733676 q 0,0.133699 -0.07697,0.2110775 -0.07697,0.077375 -0.206159,0.077375 -0.130293,0 -0.207259,-0.077375 -0.076417,-0.077376 -0.076417,-0.2110775 0,-0.1336991 0.076417,-0.2110776 0.07697,-0.077867 0.207259,-0.077867 0.129193,0 0.206159,0.077867 0.07697,0.077376 0.07697,0.2110776 z m -0.106653,0 q 0,-0.1062731 -0.04673,-0.1576961 -0.04673,-0.051911 -0.129743,-0.051911 -0.08411,0 -0.130842,0.051911 -0.04618,0.05142 -0.04618,0.1576961 0,0.102845 0.04673,0.1562265 0.04673,0.052893 0.130292,0.052893 0.08246,0 0.129194,-0.052402 0.04728,-0.052893 0.04728,-0.1567164 z M 9.9128515,9.3836229 h -0.0055 q -0.017042,-0.00441 -0.04453,-0.00882 -0.027488,-0.0049 -0.048379,-0.0049 -0.066521,0 -0.096757,0.026446 -0.029687,0.025956 -0.029687,0.09452 v 0.018612 h 0.1863681 v 0.077376 H 9.6912989 V 10.056524 H 9.587944 V 9.5868633 H 9.5181247 V 9.5094876 H 9.587944 V 9.491366 q 0,-0.097459 0.054426,-0.1493709 0.054426,-0.052402 0.1572309,-0.052402 0.034635,0 0.062123,0.00294 0.028038,0.00294 0.051128,0.00685 z m 4.0316145,0.037444 q 0.201201,0.066802 0.356753,0.098348 0.155551,0.033401 0.273905,0.033401 0.211346,0 0.312793,-0.1057697 0.103137,-0.1039138 0.103137,-0.3228761 0,-0.00928 -0.0017,-0.029689 -0.0017,-0.022267 -0.0017,-0.035256 -0.104828,0.070513 -0.224874,0.1039138 -0.120044,0.033401 -0.267141,0.033401 -0.353371,0 -0.554573,-0.2245287 -0.199511,-0.2263844 -0.199511,-0.6197737 0,-0.5474049 0.326319,-0.8405912 0.326319,-0.295042 0.936688,-0.295042 0.191057,0 0.371969,0.025979 0.180912,0.024123 0.341537,0.072369 -0.04396,0.6643084 -0.07609,1.36944 -0.03212,0.7051317 -0.04227,0.7570888 -0.06087,0.3210204 -0.282359,0.4694693 -0.221491,0.1484489 -0.640802,0.1484489 -0.177531,0 -0.351681,-0.02598 -0.172459,-0.02598 -0.338154,-0.07608 z M 15.04854,7.7324618 q -0.04058,-0.012989 -0.08285,-0.018556 -0.04058,-0.00743 -0.08284,-0.00743 -0.218109,0 -0.341536,0.15216 -0.121735,0.15216 -0.121735,0.4249347 0,0.1837053 0.07609,0.2876194 0.07609,0.1039138 0.207965,0.1039138 0.150478,0 0.231635,-0.1150479 0.08285,-0.1169033 0.09299,-0.3432877 z m -2.509106,-0.00371 q -0.158932,0 -0.238399,0.133604 -0.07947,0.1317483 -0.07947,0.3989561 0,0.2393736 0.07271,0.3544214 0.0727,0.1131922 0.224873,0.1131922 0.157242,0 0.236708,-0.1261814 0.08116,-0.1280371 0.08116,-0.3748332 0,-0.2672078 -0.06932,-0.3822556 -0.06932,-0.1169035 -0.228254,-0.1169035 z m -1.000936,0.5436937 q 0,-0.4935922 0.273904,-0.7756449 0.275597,-0.2839082 0.752394,-0.2839082 0.458199,0 0.706743,0.2542185 0.248543,0.2542185 0.248543,0.7218322 0,0.4973034 -0.272214,0.7812117 -0.270524,0.2839083 -0.74563,0.2839083 -0.463272,0 -0.713506,-0.2542185 Q 11.538498,8.7456247 11.538498,8.2724442 Z M 11.342367,6.6840424 q -0.05748,0.7663667 -0.08792,1.3824292 -0.03043,0.6142068 -0.03043,1.0576975 v 0.07608 h -0.694906 q 0.05579,-0.8647142 0.08453,-1.4659317 0.02874,-0.6030731 0.03551,-1.0502751 z M 9.0158653,7.6767935 h 0.1555511 q 0.1978203,0 0.2857404,-0.06309 0.08792,-0.064947 0.08792,-0.2078283 0,-0.1373151 -0.06594,-0.1911278 -0.06594,-0.055668 -0.2350173,-0.055668 H 9.0429177 q -0.00169,0.018556 -0.00677,0.1002031 -0.00338,0.081647 -0.00677,0.142882 z m -0.035506,1.0447082 h 0.267142 q 0.1842942,0 0.2722143,-0.074224 0.087918,-0.07608 0.087918,-0.2338067 0,-0.142882 -0.076083,-0.2133952 Q 9.4571568,8.1277063 9.306678,8.1277063 H 8.9938853 l -0.010145,0.2078283 q -0.00169,0.038968 -0.00338,0.090924 0,0.051957 0,0.1651492 z M 9.5061892,6.6840424 q 0.385496,0 0.5596448,0.1373151 0.175841,0.1354594 0.175841,0.432357 0,0.2560742 -0.142025,0.4212234 -0.1420244,0.1651493 -0.402404,0.2096839 0.2925041,0.029689 0.434529,0.1781385 0.143715,0.1484488 0.143715,0.4230791 0,0.346999 -0.214728,0.5307043 Q 9.8460347,9.2002491 9.4402491,9.2002491 H 8.2330379 Q 8.2871427,8.7048012 8.3175765,8.0701827 8.3480104,7.4337086 8.3547735,6.6840424 Z M 7.9388436,8.4858394 H 7.1137468 L 7.1458715,7.9235896 H 7.9692774 Z M 4.9039077,9.2002491 4.9309601,8.6027428 6.073922,7.2314472 H 5.3536531 q -0.027052,0 -0.081157,0.00371 -0.054105,0.00371 -0.2130372,0.014845 L 5.086511,6.6840395 H 6.9091633 L 6.8804202,7.2629926 5.7374584,8.6379994 h 0.6864534 q 0.035506,0 0.1335709,-0.00556 0.099756,-0.00556 0.2603789,-0.0167 l -0.030434,0.5845171 z"
     style="font-style:normal;font-variant:normal;font-weight:normal;font-stretch:normal;font-size:14.6667px;line-height:1.25;font-family:'Eras Bold ITC';-inkscape-font-specification:'Eras Bold ITC';fill:#000000;fill-opacity:1;fill-rule:nonzero;stroke:none;stroke-width:0.27237;stroke-opacity:1"
     id="path2822" />
</svg>
