<!-- Generated by IcoMoon.io -->
<svg version="1.1" xmlns="http://www.w3.org/2000/svg" width="1280" height="640" viewBox="0 0 1280 640">
<title></title>
<g id="icomoon-ignore">
</g>
<path fill="#000" d="M44.336 371.738q1.054-15.938 1.172-26.484l5.508-6.094q0.351-0.351 9.961-11.953l57.422-68.789 18.164-22.5-7.734-0.117h-2.93l-10.196-0.117h-17.813q-22.031 0-43.008 1.289 0.703-9.141 0.703-19.688 0-1.992-0.117-5.508 30.586 0.234 64.922 0.234l60.469-0.234q-0.938 12.773-1.172 26.133l-7.969 8.789q-2.344 2.578-4.571 5.391l-41.836 51.211-36.679 43.828 9.375 0.117q39.609 0 50.977-0.234t24.844-1.054q-0.938 16.406-1.172 25.781-33.632-0.234-61.641-0.234l-43.243 0.117z"></path>
<path fill="#000" d="M187.305 321.582q1.054-11.367 1.289-23.672 16.992 0.469 30.234 0.469 13.359 0 30.352-0.469-0.938 9.961-1.289 23.672-16.992-0.586-30.469-0.586-13.125 0-30.117 0.586z"></path>
<path fill="#000" d="M263.594 371.738q2.226-24.844 3.047-40.664t2.109-54.024 1.289-52.5q0-4.336-0.117-12.773 14.766 0.234 24.492 0.234 9.844 0 24.258-0.351t23.789-0.351q13.125 0 19.688 1.172 6.68 1.054 11.836 3.281t8.672 5.507q3.516 3.164 5.977 7.618 2.578 4.336 3.75 9.492 1.289 5.039 1.289 10.313 0 6.563-1.641 12.539-1.524 5.859-4.571 10.664-2.929 4.688-6.914 8.086-3.984 3.281-7.617 5.156t-9.726 3.984q5.508 1.172 8.789 2.344 3.281 1.054 7.031 3.399 3.75 2.226 7.031 5.859 3.399 3.516 5.391 7.5t3.047 8.906q1.172 4.804 1.172 10.078 0 11.25-4.922 20.625-4.804 9.375-13.359 14.882-8.554 5.391-19.219 7.266-10.547 1.758-45 1.758l-28.359-0.118zM301.914 278.106h18.867q12.070 0 16.172-0.586 4.219-0.586 8.789-2.226 4.57-1.758 7.734-5.274 3.164-3.633 4.57-7.851 1.524-4.336 1.524-8.789 0-4.336-1.641-8.203-1.524-3.867-4.805-6.328-3.281-2.578-7.969-3.633-4.571-1.172-13.477-1.172h-28.125zM299.102 348.769h26.602q8.086 0 12.539-0.586 4.57-0.703 8.672-2.344t6.445-3.516 4.101-4.804q1.875-2.93 2.93-6.563 1.054-3.75 1.054-7.734 0-5.391-1.875-9.492t-5.625-7.031q-3.633-3.047-8.555-4.336-4.922-1.406-15-1.406h-29.531z"></path>
<path fill="#000" d="M418.399 371.738q1.758-19.804 4.219-71.133 2.578-51.446 3.164-88.828 12.188 0.234 17.344 0.234 6.914 0 16.875-0.234l-2.813 42.773-4.102 95.391-0.469 21.797q-9.609-0.234-16.289-0.234-2.226 0-17.93 0.234z"></path>
<path fill="#000" d="M546.133 249.746q13.476 0 25.781 4.101 12.422 3.984 20.977 11.953 8.672 7.851 13.007 19.336 4.336 11.368 4.336 24.023 0 13.359-4.571 25.781t-13.242 21.563q-8.672 9.023-21.679 13.594-12.891 4.453-27.539 4.453-13.594 0-25.898-3.984-12.187-4.101-20.859-12.188t-13.242-19.688q-4.453-11.601-4.453-24.258 0-12.891 4.101-24.609t12.774-20.859q8.789-9.141 22.383-14.18t28.125-5.039zM546.133 273.887q-10.196 0-18.281 5.039-7.969 4.922-11.953 14.766-3.867 9.844-3.867 21.445 0 10.196 3.164 18.164 3.281 7.969 10.547 12.891 7.383 4.922 17.461 4.922 10.313 0 18.047-5.039 7.852-5.156 11.719-15 3.984-9.961 3.984-21.914 0-9.726-3.047-17.695t-10.313-12.774q-7.149-4.804-17.461-4.804z"></path>
<path fill="#000" d="M638.594 396.582q26.368 8.672 45.703 8.672 7.383 0 13.946-1.875 6.563-1.758 11.016-5.273 4.453-3.399 6.914-9.375 2.461-5.859 3.281-13.711 0.82-7.734 1.289-23.554-4.571 6.211-8.203 9.726-3.633 3.399-8.789 6.211-5.039 2.695-11.836 4.336-6.797 1.758-14.297 1.758-10.313 0-19.57-3.164-9.258-3.281-16.524-10.196-7.149-6.914-10.898-17.344-3.75-10.547-3.75-21.914 0-16.289 6.094-30.821 6.211-14.531 18.047-23.906 11.953-9.375 25.43-12.891 13.594-3.516 30.117-3.516 9.141 0 20.743 1.172 11.601 1.054 30.703 4.453l-2.695 37.148-2.461 46.524-0.938 42.071q-0.351 7.149-1.758 13.711-1.406 6.68-4.453 11.953-3.047 5.391-7.734 9.492t-10.664 6.563q-5.859 2.578-14.648 4.219-8.672 1.641-18.633 1.641-10.664 0-24.257-1.406t-29.648-5.274zM724.141 275.996q-10.196-2.109-18.867-2.109-15.234 0-25.196 5.625-9.961 5.508-15.352 16.172t-5.391 22.617q0 8.789 3.281 16.406 3.281 7.5 10.196 11.367 7.031 3.868 15.469 3.868 5.977 0 11.132-1.875 5.274-1.875 9.493-5.743t7.383-9.609q3.281-5.742 4.571-12.891 1.406-7.266 2.109-18.047 0.703-10.899 1.172-25.781z"></path>
<path fill="#000" d="M783.907 371.738l2.109-27.774 2.929-61.523 1.406-44.649q0.117-6.094 0.117-12.304 0-4.57-0.117-13.711 15 0.234 24.375 0.234 7.5 0 20.859-0.351t21.211-0.351q16.172 0 23.789 2.344 8.086 2.578 14.18 8.086t9.257 13.242q3.516 8.672 3.516 18.633 0 15.117-7.617 27.539-7.5 12.304-20.859 18.399t-29.648 6.094q-7.969 0-16.993-1.641-2.578-12.188-5.859-22.852 7.266 1.524 14.414 1.524 9.726 0 16.875-2.93t11.368-9.492q4.219-6.68 4.219-15 0-4.922-1.758-9.023t-5.156-6.563q-3.281-2.461-7.383-3.281-3.984-0.938-11.484-0.938-6.563 0-13.242 0.234t-11.836 0.234q-1.406 22.969-2.109 43.945l-1.406 44.766q-0.703 23.789-0.703 34.922 0 4.219 0.117 12.188l-16.993-0.234q-3.281 0-17.578 0.234z"></path>
<path fill="#000" d="M925.469 371.738l2.695-42.071q2.226-34.453 3.164-63.867 0.938-29.531 0.938-41.133l-0.117-12.891q13.828 0.234 19.571 0.234 4.336 0 17.695-0.234l-3.047 52.851-0.351 12.188 79.922-0.117 1.406-31.641q0.469-16.289 0.469-21.446v-11.836l19.571 0.234q2.578 0 17.578-0.234l-3.867 63.867-1.758 47.344-0.469 27.773q-0.234 17.109-0.234 20.977l-18.281-0.234q-3.399 0-19.453 0.234 3.047-33.164 3.867-69.727h-80.039l-1.641 43.125-0.469 26.602-19.219-0.234q-3.164 0-17.929 0.234z"></path>
<path fill="#000" d="M1112.032 371.738l2.109-27.774 2.929-61.523 1.406-44.649q0.117-6.094 0.117-12.304 0-4.57-0.117-13.711 15 0.234 24.375 0.234 7.5 0 20.859-0.351t21.211-0.351q16.172 0 23.789 2.344 8.086 2.578 14.18 8.086t9.258 13.242q3.516 8.672 3.516 18.633 0 15.117-7.617 27.539-7.5 12.304-20.859 18.399t-29.648 6.094q-7.969 0-16.993-1.641-2.578-12.188-5.859-22.852 7.266 1.524 14.414 1.524 9.727 0 16.875-2.93t11.368-9.492q4.219-6.68 4.219-15 0-4.922-1.758-9.023t-5.156-6.563q-3.281-2.461-7.383-3.281-3.984-0.938-11.484-0.938-6.563 0-13.242 0.234t-11.836 0.234q-1.406 22.969-2.109 43.945l-1.406 44.766q-0.703 23.789-0.703 34.922 0 4.219 0.117 12.188l-16.993-0.234q-3.281 0-17.578 0.234z"></path>
</svg>
