<!-- Generated by IcoMoon.io -->
<svg version="1.1" xmlns="http://www.w3.org/2000/svg" width="1829" height="640" viewBox="0 0 1829 640">
<title></title>
<g id="icomoon-ignore">
</g>
<path fill="#000" d="M57.878 82.427v470.574h469.386v-470.574zM172.121 163.406c41.474 0.295 85.503 0.422 132.088 0.422 48.191 0 89.718-0.126 124.62-0.422-1.022 15.491-1.679 27.756-1.971 36.755l-0.896 29.633-12.486 12.191c-2.045 2.065-4.049 4.184-6.094 6.397l-137.166 151.607 30.050 0.178c7.156 0 17.484-0.034 31.066-0.178l60.458-1.328c4.527-0.147 12.506-0.558 23.896-1.147-1.606 26.261-2.702 48.926-3.286 67.957-46.585-0.295-88.862-0.423-126.831-0.423h-49.944l-56.515 0.178-28.676 0.244c1.752-30.391 2.629-52.836 2.629-67.294l12.904-12.796c1.752-1.77 15.241-16.47 40.504-44.057l72.765-79.423c8.47-9.589 18.327-21.063 29.572-34.341l-17.325-0.181-17.325-0.241h-30.408c-23.073 0-47.481 0.791-73.183 2.414 1.314-15.933 1.972-33.194 1.972-51.783 0-3.541 0.454 3.288 0.162-2.761zM1571.797 495.317q0 5.473-2.172 10.171-2.11 4.643-5.957 8.071-4.778 4.256-11.294 6.413-6.516 2.101-16.444 2.101h-12.287v30.68h-12.286v-82.31h25.069q8.315 0 14.086 1.271 5.771 1.216 10.239 3.869 5.275 3.151 8.129 7.849 2.917 4.699 2.917 11.885zM1559.014 495.594q0-4.256-1.676-7.407t-5.089-5.141q-2.979-1.714-6.826-2.433-3.785-0.774-9.618-0.774h-12.163v32.891h10.363q7.446 0 12.101-1.161 4.654-1.216 7.571-3.814 2.916-2.653 4.096-5.583 1.241-2.93 1.241-6.578zM1486.474 552.753h-12.287v-40.298h-46.106v40.298h-12.287v-82.31h12.287v32.283h46.106v-32.283h12.287zM1399.537 495.317q0 5.473-2.172 10.171-2.11 4.643-5.957 8.071-4.778 4.256-11.294 6.413-6.516 2.101-16.444 2.101h-12.287v30.68h-12.286v-82.31h25.069q8.315 0 14.086 1.271 5.771 1.216 10.239 3.869 5.274 3.151 8.129 7.849 2.917 4.699 2.917 11.885zM1386.754 495.594q0-4.256-1.676-7.407t-5.089-5.141q-2.979-1.714-6.826-2.433-3.785-0.774-9.618-0.774h-12.163v32.891h10.363q7.446 0 12.101-1.161 4.654-1.216 7.571-3.814 2.917-2.653 4.096-5.583 1.241-2.93 1.241-6.578zM1282.379 502.338h-0.621q-2.606-0.553-5.088-0.774-2.42-0.276-5.771-0.276-5.399 0-10.425 2.156-5.026 2.101-9.681 5.472v43.836h-11.666v-61.746h11.666v9.121q6.95-4.975 12.224-7.021 5.337-2.101 10.859-2.101 3.041 0 4.406 0.166 1.365 0.111 4.096 0.498zM1221.009 521.907q0 15.091-8.688 23.825t-23.27 8.734q-14.707 0-23.394-8.734-8.626-8.734-8.626-23.825t8.626-23.825q8.688-8.789 23.394-8.789 14.582 0 23.27 8.789 8.688 8.734 8.688 23.825zM1208.971 521.907q0-11.996-5.274-17.8-5.274-5.859-14.644-5.859-9.494 0-14.769 5.859-5.213 5.804-5.213 17.8 0 11.609 5.274 17.634 5.274 5.97 14.707 5.97 9.308 0 14.583-5.915 5.337-5.97 5.337-17.689zM1154.549 476.799h-0.621q-1.924-0.498-5.026-0.995-3.102-0.553-5.461-0.553-7.508 0-10.921 2.985-3.351 2.93-3.351 10.669v2.101h21.036v8.734h-20.664v53.013h-11.666v-53.013h-7.881v-8.734h7.881v-2.045q0-11.001 6.143-16.86 6.143-5.915 17.747-5.915 3.909 0 7.012 0.332 3.165 0.332 5.771 0.774zM1590.679 489.076q42.94 15.499 74.43 15.499 12.023 0 22.711-3.351 10.688-3.142 17.939-9.426 7.252-6.074 11.26-16.756 4.007-10.472 5.344-24.506 1.336-13.824 2.099-42.1-7.443 11.101-13.359 17.384-5.916 6.074-14.313 11.101-8.206 4.817-19.276 7.75-11.069 3.142-23.283 3.142-16.794 0-31.871-5.655-15.077-5.864-26.909-18.222-11.642-12.358-17.749-30.999-6.107-18.851-6.107-39.168 0-29.114 9.924-55.086 10.115-25.972 29.39-42.728 19.466-16.756 41.414-23.039 22.138-6.284 49.048-6.284 14.886 0 33.779 2.094 18.894 1.885 50.001 7.959l-4.389 66.396-4.007 83.153-1.527 75.193q-0.573 12.776-2.863 24.506-2.29 11.939-7.252 21.364-4.962 9.635-12.596 16.966t-17.367 11.729q-9.543 4.608-23.856 7.54-14.122 2.933-30.344 2.933-17.367 0-39.505-2.513t-48.284-9.426zM1729.996 273.55q-16.604-3.77-30.726-3.77-24.81 0-41.032 10.054-16.222 9.844-25.001 28.904t-8.779 40.424q0 15.709 5.344 29.323 5.344 13.405 16.604 20.317 11.451 6.912 25.192 6.912 9.733 0 18.13-3.351 8.588-3.351 15.459-10.263t12.023-17.175q5.344-10.263 7.443-23.039 2.29-12.986 3.435-32.256 1.145-19.479 1.908-46.079zM1431.374 226.633q21.947 0 41.986 7.331 20.229 7.121 34.161 21.364 14.122 14.033 21.184 34.559 7.061 20.317 7.061 42.938 0 23.877-7.443 46.079t-21.566 38.539q-14.122 16.127-35.306 24.296-20.993 7.959-44.849 7.959-22.138 0-42.177-7.121-19.848-7.331-33.971-21.783t-21.566-35.188q-7.252-20.736-7.252-43.356 0-23.039 6.679-43.985t20.803-37.283q14.313-16.337 36.451-25.344t45.803-9.006zM1431.374 269.78q-16.604 0-29.772 9.006-12.978 8.797-19.466 26.391-6.298 17.594-6.298 38.329 0 18.222 5.152 32.465 5.344 14.243 17.176 23.039 12.023 8.797 28.436 8.797 16.794 0 29.39-9.006 12.787-9.216 19.084-26.81 6.489-17.803 6.489-39.168 0-17.384-4.962-31.627t-16.794-22.83q-11.641-8.588-28.436-8.588zM1214.626 444.672q2.862-35.397 6.871-127.137 4.199-91.949 5.152-158.764 19.848 0.419 28.245 0.419 11.26 0 27.482-0.419l-4.58 76.45-6.679 170.494-0.763 38.958q-15.649-0.419-26.528-0.419-3.626 0-29.199 0.419zM953.791 444.672q3.626-44.404 4.962-72.679t3.435-96.557 2.099-93.834q0-7.75-0.191-22.83 24.047 0.419 39.887 0.419 16.031 0 39.505-0.628t38.742-0.628q21.374 0 32.062 2.094 10.878 1.885 19.276 5.864t14.122 9.844q5.726 5.655 9.733 13.614 4.199 7.75 6.107 16.966 2.099 9.006 2.099 18.432 0 11.729-2.672 22.411-2.481 10.473-7.443 19.060-4.771 8.378-11.26 14.452-6.489 5.864-12.405 9.216t-15.84 7.121q8.97 2.094 14.313 4.189 5.344 1.885 11.451 6.074 6.107 3.979 11.451 10.473 5.534 6.284 8.779 13.405t4.962 15.918q1.909 8.587 1.909 18.013 0 20.108-8.016 36.864-7.825 16.756-21.756 26.601-13.932 9.635-31.299 12.986-17.176 3.142-73.284 3.142l-46.184-0.209zM1016.197 277.32h30.726q19.657 0 26.337-1.048 6.871-1.047 14.313-3.979 7.443-3.142 12.596-9.426 5.153-6.493 7.443-14.033 2.481-7.75 2.481-15.709 0-7.75-2.672-14.662-2.481-6.912-7.825-11.311-5.344-4.608-12.977-6.493-7.443-2.094-21.947-2.094h-45.803zM1011.617 403.619h43.322q13.168 0 20.421-1.048 7.443-1.257 14.122-4.189t10.496-6.284 6.679-8.587q3.054-5.236 4.771-11.729 1.718-6.703 1.718-13.824 0-9.635-3.054-16.966t-9.161-12.567q-5.916-5.446-13.932-7.75-8.016-2.513-24.428-2.513h-48.093zM820.823 355.027q1.718-20.317 2.099-42.309 27.673 0.838 49.238 0.838 21.756 0 49.429-0.838-1.527 17.803-2.099 42.309-27.673-1.048-49.62-1.048-21.374 0-49.048 1.048zM579.264 444.672q1.718-28.486 1.909-47.336l8.97-10.891q0.573-0.628 16.222-21.364l93.514-122.948 29.581-40.214-12.596-0.209h-4.771l-16.604-0.209h-29.009q-35.879 0-70.040 2.304 1.145-16.337 1.145-35.188 0-3.561-0.191-9.844 49.811 0.419 105.728 0.419l98.476-0.419q-1.527 22.83-1.909 46.708l-12.977 15.709q-3.817 4.608-7.443 9.635l-68.132 91.53-59.734 78.335 15.268 0.209q64.506 0 83.017-0.419t40.459-1.885q-1.527 29.323-1.909 46.079-54.772-0.419-100.385-0.419l-70.422 0.209z"></path>
</svg>
