<?xml version="1.0" encoding="UTF-8" standalone="no"?>
<svg
   xmlns:dc="http://purl.org/dc/elements/1.1/"
   xmlns:cc="http://creativecommons.org/ns#"
   xmlns:rdf="http://www.w3.org/1999/02/22-rdf-syntax-ns#"
   xmlns:svg="http://www.w3.org/2000/svg"
   xmlns="http://www.w3.org/2000/svg"
   xmlns:sodipodi="http://sodipodi.sourceforge.net/DTD/sodipodi-0.dtd"
   xmlns:inkscape="http://www.inkscape.org/namespaces/inkscape"
   width="16"
   height="16"
   viewBox="0 0 4.2333332 4.2333335"
   version="1.1"
   id="svg848"
   inkscape:version="1.0 (4035a4fb49, 2020-05-01)"
   sodipodi:docname="zblog-circle.svg">
  <defs
     id="defs842" />
  <sodipodi:namedview
     id="base"
     pagecolor="#ffffff"
     bordercolor="#666666"
     borderopacity="1.0"
     inkscape:pageopacity="0.0"
     inkscape:pageshadow="2"
     inkscape:zoom="31.678384"
     inkscape:cx="8.3524273"
     inkscape:cy="10.061585"
     inkscape:document-units="mm"
     inkscape:current-layer="layer1"
     inkscape:document-rotation="0"
     showgrid="false"
     units="px"
     inkscape:window-width="1920"
     inkscape:window-height="1001"
     inkscape:window-x="-9"
     inkscape:window-y="-9"
     inkscape:window-maximized="1" />
  <metadata
     id="metadata845">
    <rdf:RDF>
      <cc:Work
         rdf:about="">
        <dc:format>image/svg+xml</dc:format>
        <dc:type
           rdf:resource="http://purl.org/dc/dcmitype/StillImage" />
        <dc:title />
      </cc:Work>
    </rdf:RDF>
  </metadata>
  <g
     inkscape:label="图层 1"
     inkscape:groupmode="layer"
     id="layer1">
    <g
       transform="matrix(0.23347263,0,0,0.19096911,0.23414591,0.09198848)"
       id="g3">
      <g
         style="opacity:1"
         transform="matrix(0.17468521,0,0,0.17468521,2.9928123,0)"
         id="g836">
        <path
           id="path838"
           d="M 6.7968745,28.03083 H 57.328125 l -0.796875,14.625 -31.6875,34.734375 H 43.875 l 1.423828,-0.03516 2.302734,-0.105469 3.169919,-0.175781 4.025394,-0.246094 -0.84375,14.765625 H 1.7343754 L 2.4843755,76.49958 34.171875,41.858955 h -19.96875 l -2.25,0.09375 -2.2265625,0.140629 -3.679688,0.234371 z"
           style="color:#000000;font-style:normal;font-variant:normal;font-weight:normal;font-stretch:normal;font-size:medium;line-height:normal;font-family:sans-serif;font-variant-ligatures:normal;font-variant-position:normal;font-variant-caps:normal;font-variant-numeric:normal;font-variant-alternates:normal;font-variant-east-asian:normal;font-feature-settings:normal;font-variation-settings:normal;text-indent:0;text-align:start;text-decoration:none;text-decoration-line:none;text-decoration-style:solid;text-decoration-color:#000000;letter-spacing:normal;word-spacing:normal;text-transform:none;writing-mode:lr-tb;direction:ltr;text-orientation:mixed;dominant-baseline:auto;baseline-shift:baseline;text-anchor:start;white-space:normal;shape-padding:0;shape-margin:0;inline-size:0;clip-rule:nonzero;display:inline;overflow:visible;visibility:visible;isolation:auto;mix-blend-mode:normal;color-interpolation:sRGB;color-interpolation-filters:linearRGB;solid-color:#000000;solid-opacity:1;vector-effect:none;fill:#000000;fill-opacity:1;fill-rule:nonzero;stroke:none;stroke-width:1;stroke-linecap:butt;stroke-linejoin:miter;stroke-miterlimit:4;stroke-dasharray:none;stroke-dashoffset:0;stroke-opacity:1;color-rendering:auto;image-rendering:auto;shape-rendering:auto;text-rendering:auto;enable-background:accumulate;stop-color:#000000;stop-opacity:1" />
        <path
           id="path840"
           d="m 6.3222656,27.53125 -0.025391,0.472656 -0.7792969,14.859375 4.2402344,-0.271484 2.2207039,-0.140625 2.234375,-0.0918 H 33.037109 L 1.9941406,76.294922 1.2089844,92.09375 H 54.425781 L 55.328125,76.294922 50.742188,76.574219 47.576172,76.75 45.28125,76.855469 43.869141,76.890625 H 25.974609 L 57.021484,42.861328 57.855469,27.53125 Z m 0.9492188,1 H 56.798828 L 56.041016,42.451172 23.710938,77.890625 h 20.169921 l 1.435547,-0.03516 2.310547,-0.107422 3.173828,-0.175781 3.464844,-0.210938 -0.785156,13.732422 H 2.2597656 L 2.9746094,76.705078 35.306641,41.359375 H 14.193359 l -2.265625,0.09375 -2.2324215,0.140625 -3.1191406,0.199219 z"
           style="color:#000000;font-style:normal;font-variant:normal;font-weight:normal;font-stretch:normal;font-size:medium;line-height:normal;font-family:sans-serif;font-variant-ligatures:normal;font-variant-position:normal;font-variant-caps:normal;font-variant-numeric:normal;font-variant-alternates:normal;font-variant-east-asian:normal;font-feature-settings:normal;font-variation-settings:normal;text-indent:0;text-align:start;text-decoration:none;text-decoration-line:none;text-decoration-style:solid;text-decoration-color:#000000;letter-spacing:normal;word-spacing:normal;text-transform:none;writing-mode:lr-tb;direction:ltr;text-orientation:mixed;dominant-baseline:auto;baseline-shift:baseline;text-anchor:start;white-space:normal;shape-padding:0;shape-margin:0;inline-size:0;clip-rule:nonzero;display:inline;overflow:visible;visibility:visible;isolation:auto;mix-blend-mode:normal;color-interpolation:sRGB;color-interpolation-filters:linearRGB;solid-color:#000000;solid-opacity:1;vector-effect:none;fill-opacity:1;fill-rule:nonzero;stroke:none;stroke-width:1;stroke-linecap:butt;stroke-linejoin:miter;stroke-miterlimit:4;stroke-dasharray:none;stroke-dashoffset:0;stroke-opacity:1;color-rendering:auto;image-rendering:auto;shape-rendering:auto;text-rendering:auto;enable-background:accumulate;stop-color:#000000;stop-opacity:1" />
      </g>
    </g>
    <path
       transform="scale(0.26458333)"
       d="M 8.0488281,0.0625 A 8.0180859,7.9865182 0 0 0 0.03125,8.0488281 8.0180859,7.9865182 0 0 0 8.0488281,16.037109 8.0180859,7.9865182 0 0 0 16.068359,8.0488281 8.0180859,7.9865182 0 0 0 8.0488281,0.0625 Z m 0.035156,0.76757812 a 7.2162769,7.1878666 0 0 1 0.029297,0 A 7.2162769,7.1878666 0 0 1 15.328125,8.0175781 7.2162769,7.1878666 0 0 1 8.1132812,15.205078 7.2162769,7.1878666 0 0 1 0.89648438,8.0175781 7.2162769,7.1878666 0 0 1 8.0839841,0.83007812 Z"
       style="stroke-width:1.04238"
       id="path834" />
  </g>
</svg>
