<?xml version="1.0" encoding="UTF-8" standalone="no"?>
<svg
   xmlns:dc="http://purl.org/dc/elements/1.1/"
   xmlns:cc="http://creativecommons.org/ns#"
   xmlns:rdf="http://www.w3.org/1999/02/22-rdf-syntax-ns#"
   xmlns:svg="http://www.w3.org/2000/svg"
   xmlns="http://www.w3.org/2000/svg"
   xmlns:sodipodi="http://sodipodi.sourceforge.net/DTD/sodipodi-0.dtd"
   xmlns:inkscape="http://www.inkscape.org/namespaces/inkscape"
   width="200"
   height="65"
   viewBox="0 0 52.916665 17.197917"
   version="1.1"
   id="svg8"
   inkscape:version="1.0 (4035a4fb49, 2020-05-01)"
   sodipodi:docname="logo_white.svg">
  <defs
     id="defs2" />
  <sodipodi:namedview
     id="base"
     pagecolor="#ffffff"
     bordercolor="#666666"
     borderopacity="1.0"
     inkscape:pageopacity="0.0"
     inkscape:pageshadow="2"
     inkscape:zoom="3.959798"
     inkscape:cx="100.22024"
     inkscape:cy="51.297186"
     inkscape:document-units="mm"
     inkscape:current-layer="layer1"
     inkscape:document-rotation="0"
     showgrid="false"
     units="px"
     inkscape:window-width="1920"
     inkscape:window-height="1001"
     inkscape:window-x="-9"
     inkscape:window-y="-9"
     inkscape:window-maximized="1" />
  <metadata
     id="metadata5">
    <rdf:RDF>
      <cc:Work
         rdf:about="">
        <dc:format>image/svg+xml</dc:format>
        <dc:type
           rdf:resource="http://purl.org/dc/dcmitype/StillImage" />
        <dc:title></dc:title>
      </cc:Work>
    </rdf:RDF>
  </metadata>
  <g
     inkscape:label="图层 1"
     inkscape:groupmode="layer"
     id="layer1">
    <g
       style="font-size:7.05556px;line-height:1.25;font-family:sans-serif;fill:#ffffff;fill-opacity:1;stroke-width:0.264583"
       id="text840"
       aria-label="Z-BLOG">
      <path
         id="path841"
         style="font-style:normal;font-variant:normal;font-weight:normal;font-stretch:normal;font-size:7.05556px;font-family:'Eras Md BT';-inkscape-font-specification:'Eras Md BT';fill:#ffffff;fill-opacity:1;stroke-width:0.264583"
         d="M 15.913764,7.0431638 V 6.4712776 l 2.807754,-3.5966821 h -1.912029 q -0.103353,0 -0.261827,0.00689 -0.158475,0.00689 -0.34451,0.020671 l 0.02067,-0.530545 h 3.217721 v 0.564996 l -2.814645,3.6070173 h 1.819012 q 0.09302,0 0.313503,-0.010335 0.220487,-0.010335 0.489204,-0.027561 l -0.02067,0.5374353 z" />
      <path
         id="path843"
         style="font-style:normal;font-variant:normal;font-weight:normal;font-stretch:normal;font-size:7.05556px;font-family:'Eras Md BT';-inkscape-font-specification:'Eras Md BT';fill:#ffffff;fill-opacity:1;stroke-width:0.264583"
         d="M 19.679256,5.534211 V 4.9623248 h 1.715658 V 5.534211 Z" />
      <path
         id="path845"
         style="font-style:normal;font-variant:normal;font-weight:normal;font-stretch:normal;font-size:7.05556px;font-family:'Eras Md BT';-inkscape-font-specification:'Eras Md BT';fill:#ffffff;fill-opacity:1;stroke-width:0.264583"
         d="m 22.728167,6.5711854 h 0.881945 q 0.592557,0 0.895725,-0.2239314 0.303169,-0.2273764 0.303169,-0.6649038 0,-0.4030765 -0.251492,-0.6028921 -0.248047,-0.2032608 -0.751032,-0.2032608 h -1.030084 l -0.04134,0.5856666 q -0.0069,0.141249 -0.01034,0.3100588 -0.0034,0.1688098 -0.0034,0.3617353 0,0.1033529 0,0.213596 0.0034,0.1067981 0.0069,0.2239314 z m 0.06201,-2.1600763 h 0.637343 q 0.651123,0 1.002523,-0.2308215 0.3514,-0.2342667 0.3514,-0.6649039 0,-0.3513999 -0.210151,-0.5029842 -0.206706,-0.1515843 -0.713135,-0.1515843 h -0.954292 q -0.03101,0.3307293 -0.05168,0.6786842 -0.0034,0.037896 -0.0034,0.055122 z m 1.546848,0.2135961 q 0.516765,0.051676 0.775147,0.3307294 0.261828,0.2756078 0.261828,0.7682568 0,0.671794 -0.420302,0.9956332 -0.416857,0.3238392 -1.288467,0.3238392 H 22.02192 q 0.110243,-0.8853901 0.172255,-2.0773939 0.06546,-1.1920039 0.07579,-2.5907135 l 1.657092,-0.00345 q 0.775147,0 1.105876,0.248047 0.334175,0.2480471 0.334175,0.8027078 0,0.4892039 -0.272163,0.8027077 -0.268718,0.3135039 -0.757922,0.3996314 z" />
      <path
         id="path847"
         style="font-style:normal;font-variant:normal;font-weight:normal;font-stretch:normal;font-size:7.05556px;font-family:'Eras Md BT';-inkscape-font-specification:'Eras Md BT';fill:#ffffff;fill-opacity:1;stroke-width:0.264583"
         d="m 25.970004,7.0431638 q 0.09646,-0.8784999 0.15503,-2.0601685 0.05857,-1.1816685 0.07924,-2.611384 h 0.689019 q -0.04479,0.3858509 -0.07235,0.671794 -0.02411,0.2859431 -0.03101,0.5339902 L 26.7107,5.3654012 q -0.0034,0.1171333 -0.0069,0.3238392 0,0.2032607 0,0.8027077 0.227376,0.020671 0.409967,0.027561 0.186035,0.00689 0.35829,0.00689 0.327284,0 0.658013,-0.01378 0.33073,-0.01378 0.661459,-0.041341 l -0.02756,0.5718862 z" />
      <path
         id="path849"
         style="font-style:normal;font-variant:normal;font-weight:normal;font-stretch:normal;font-size:7.05556px;font-family:'Eras Md BT';-inkscape-font-specification:'Eras Md BT';fill:#ffffff;fill-opacity:1;stroke-width:0.264583"
         d="m 29.468501,4.8210758 q 0,0.8784999 0.489204,1.3539234 0.489203,0.4719783 1.395264,0.4719783 0.912951,0 1.39871,-0.5236548 0.485759,-0.5271 0.485759,-1.515843 0,-0.8922803 -0.485759,-1.3642587 -0.485759,-0.4754235 -1.39871,-0.4754235 -0.919841,0 -1.402155,0.5271 -0.482313,0.5236548 -0.482313,1.5261783 z m 1.77078,2.3219958 q -1.133437,0 -1.777671,-0.6166725 -0.640788,-0.6166725 -0.640788,-1.7053233 0,-1.2057842 0.685575,-1.8741332 0.685574,-0.6717941 1.925809,-0.6717941 1.160998,0 1.805232,0.6201176 0.647678,0.6201176 0.647678,1.7363293 0,1.1885587 -0.692465,1.8500174 -0.692464,0.6614588 -1.95337,0.6614588 z" />
      <path
         id="path851"
         style="font-style:normal;font-variant:normal;font-weight:normal;font-stretch:normal;font-size:7.05556px;font-family:'Eras Md BT';-inkscape-font-specification:'Eras Md BT';fill:#ffffff;fill-opacity:1;stroke-width:0.264583"
         d="m 38.148424,6.450607 q 0.03445,-0.2308216 0.05168,-0.5787764 0.02067,-0.3514 0.02756,-0.9887431 h -1.04042 l 0.03101,-0.5064294 h 1.643312 q -0.04479,0.5339902 -0.0689,1.0404196 -0.02412,0.5029842 -0.02412,0.9474018 0,0.089573 0.0034,0.1963706 0.0034,0.106798 0.01033,0.3135039 -0.489204,0.1378039 -0.954292,0.2067059 -0.465088,0.068902 -0.89917,0.068902 -1.185114,0 -1.829347,-0.5925568 -0.640788,-0.5960019 -0.640788,-1.6880979 0,-1.2298999 0.689019,-1.9189194 0.692465,-0.6924646 1.929255,-0.6924646 0.36518,0 0.744141,0.055121 0.382406,0.051677 0.785482,0.1584745 l 0.04823,0.5443255 q -0.647679,-0.1619196 -0.971518,-0.210151 -0.323839,-0.051677 -0.599447,-0.051677 -0.937066,0 -1.467611,0.5546608 -0.530545,0.5546607 -0.530545,1.5399586 0,0.8543843 0.502984,1.3332528 0.502984,0.4788686 1.395264,0.4788686 0.358291,0 0.654569,-0.051676 0.296278,-0.055122 0.509874,-0.1584745 z" />
    </g>
    <g
       style="font-size:9.72563px;line-height:1.25;font-family:sans-serif;fill:#ffffff;fill-opacity:1;stroke-width:0.243141"
       id="text844"
       transform="scale(0.98671634,1.0134625)"
       aria-label="应用中心">
      <path
         id="path854"
         style="font-style:normal;font-variant:normal;font-weight:normal;font-stretch:normal;font-size:9.72563px;font-family:'WenQuanYi Micro Hei';-inkscape-font-specification:'WenQuanYi Micro Hei';fill:#ffffff;fill-opacity:1;stroke-width:0.243141"
         d="m 24.009943,8.082717 v 0.721824 h -6.914315 v 2.811315 q 0,2.393417 -1.02575,4.140991 l -0.721824,-0.417898 q 0.53187,-1.101732 0.759814,-1.956524 0.227945,-0.854791 0.227945,-2.032504 V 8.082717 h 3.60912 Q 19.79297,7.6268281 19.527035,7.2089299 L 20.28685,6.9429947 q 0.341917,0.5318704 0.49388,1.1397223 z m -3.533139,1.5576204 q 0.683833,1.5576206 0.911777,3.1152406 l -0.835796,0.227945 Q 20.362831,11.273939 19.716989,9.8302911 Z m -3.07725,4.9387966 h 3.951037 q 0.911778,-2.165473 1.55762,-4.7868337 l 0.797806,0.2659357 q -0.607852,2.507388 -1.481639,4.520898 h 2.013509 v 0.721824 h -6.838333 z m 1.139722,-4.216973 q 0.759815,1.405658 1.139722,3.153232 l -0.759815,0.265935 q -0.379907,-1.747574 -1.139722,-3.191222 z" />
      <path
         id="path856"
         style="font-style:normal;font-variant:normal;font-weight:normal;font-stretch:normal;font-size:9.72563px;font-family:'WenQuanYi Micro Hei';-inkscape-font-specification:'WenQuanYi Micro Hei';fill:#ffffff;fill-opacity:1;stroke-width:0.243141"
         d="m 33.355665,7.4368744 v 7.1422596 q 0,0.53187 -0.227944,0.797805 -0.227945,0.265936 -0.683834,0.265936 -0.455889,0 -1.139722,-0.07598 L 31.152202,14.80708 q 0.721824,0.07598 1.139722,0.07598 0.303926,0 0.303926,-0.531871 v -1.633602 h -2.469398 v 2.54538 h -0.759815 v -2.54538 h -2.54538 q -0.189953,1.595612 -0.949768,3.001269 l -0.721824,-0.455889 q 0.569861,-1.139722 0.797805,-2.070495 0.227945,-0.930773 0.227945,-2.222459 V 7.4368744 Z M 26.93523,9.7163188 h 2.431407 V 8.1586984 H 26.93523 Z M 30.126452,8.1586984 V 9.7163188 H 32.59585 V 8.1586984 Z m -3.229213,3.8370646 h 2.469398 v -1.55762 H 26.93523 v 0.797805 q 0,0.379908 -0.03799,0.759815 z m 3.229213,-1.55762 v 1.55762 h 2.469398 v -1.55762 z" />
      <path
         id="path858"
         style="font-style:normal;font-variant:normal;font-weight:normal;font-stretch:normal;font-size:9.72563px;font-family:'WenQuanYi Micro Hei';-inkscape-font-specification:'WenQuanYi Micro Hei';fill:#ffffff;fill-opacity:1;stroke-width:0.243141"
         d="m 43.157276,8.4246336 v 4.6728614 h -0.759815 v -0.607852 h -2.735333 v 3.305194 h -0.759815 v -3.305194 h -2.621361 v 0.683833 H 35.521137 V 8.4246336 h 3.381176 V 6.9429947 h 0.759815 v 1.4816389 z m -6.876324,3.3431854 h 2.621361 V 9.1464577 h -2.621361 z m 3.381176,-2.6213613 v 2.6213613 h 2.735333 V 9.1464577 Z" />
      <path
         id="path860"
         style="font-style:normal;font-variant:normal;font-weight:normal;font-stretch:normal;font-size:9.72563px;font-family:'WenQuanYi Micro Hei';-inkscape-font-specification:'WenQuanYi Micro Hei';fill:#ffffff;fill-opacity:1;stroke-width:0.243141"
         d="m 48.058082,7.0949577 q 1.367667,0.7978055 2.469398,1.9375278 L 49.919628,9.7543096 Q 48.779906,8.5006151 47.526212,7.6648188 Z m -0.835796,2.203463 h 0.797805 V 14.38918 q 0,0.151963 0.189954,0.227944 0.189954,0.07598 1.063741,0.07598 1.06374,0 1.348671,-0.09498 0.284931,-0.09498 0.398903,-0.379907 0.113972,-0.284931 0.151963,-1.462644 l 0.797805,0.227945 q -0.07598,1.329676 -0.265935,1.747574 -0.189954,0.417898 -0.569861,0.569861 -0.379907,0.151963 -1.861546,0.151963 -1.291686,0 -1.671593,-0.170959 -0.379907,-0.170958 -0.379907,-0.626847 z m 5.052768,0.4178981 q 0.759815,1.7095832 1.253695,3.7610832 l -0.835797,0.379908 q -0.455889,-2.127482 -1.177713,-3.799074 z m -6.610389,0.151963 0.759815,0.2659352 q -0.417898,2.54538 -0.949768,4.292954 l -0.759815,-0.417898 q 0.645842,-2.089491 0.949768,-4.1409912 z" />
    </g>
    <g
       transform="matrix(0.11939324,0,0,0.11939324,0.01285102,1.0522866)"
       id="g3"
       style="fill:#ffffff;fill-opacity:1">
      <path
         id="path1"
         transform="matrix(3.1875,0,0,3.1875,13,27.426625)"
         fill="#000000"
         d="m 9.3299972,10.196 c -1.8910055,0 -3.427,1.537995 -3.427,3.429001 0,1.888001 1.5359945,3.427003 3.427,3.427003 1.8919978,0 3.4299908,-1.539002 3.4299908,-3.427003 0,-1.891006 -1.537993,-3.429001 -3.4299908,-3.429001 z M 25.036991,4.377991 c -0.333008,0.007 -0.669006,0.080002 -0.992004,0.2250061 -1.285996,0.5769959 -1.863999,2.0939946 -1.285996,3.3809972 0.576996,1.287003 2.095002,1.862 3.382994,1.2860112 C 27.427981,8.6889966 28.005984,7.1759956 27.427981,5.8860024 26.994982,4.9219974 26.033983,4.3560031 25.036991,4.377991 Z M 7.7989923,4.3000033 H 10.934 l 0.166001,2.8639989 V 7.265992 c 0.51799,0.1420135 1.008987,0.3450012 1.466995,0.602005 l 0.06,-0.059998 2.210998,-1.8580017 2.218002,2.2189946 -1.908004,2.1430061 -0.06599,0.067 c 0.259995,0.457993 0.462998,0.951004 0.606995,1.468994 h 0.08301 l 2.874998,0.25 v 3.136002 l -2.863997,0.167999 h -0.09401 c -0.143997,0.516007 -0.347,1.009004 -0.606995,1.466004 l 0.058,0.05901 1.856995,2.209992 L 14.779,21.354998 12.635995,19.448 l -0.069,-0.069 C 12.108987,19.636996 11.61799,19.839007 11.1,19.981997 v 0.091 L 10.934,22.948 H 7.7989923 L 7.5469934,20.082995 V 19.979998 C 7.0319945,19.836001 6.5420043,19.632998 6.0870029,19.375002 L 6.0200016,19.440996 3.8690013,21.354998 1.6519919,19.136996 3.499998,16.935 3.576002,16.861 C 3.3189988,16.403994 3.1170029,15.914995 2.9730057,15.401994 H 2.8749985 L 0,15.233995 v -3.136002 l 2.8639969,-0.25 H 2.9730057 C 3.1170029,11.332994 3.3189988,10.843995 3.5760021,10.388002 L 3.5059947,10.319993 1.5939932,8.1689923 3.8099956,5.9499977 6.0140049,7.8000038 6.0870029,7.8719948 C 6.5420043,7.6159981 7.0319945,7.4129952 7.5469934,7.268998 V 7.1750038 Z M 26.443987,0 l 2.185989,0.83000182 -0.583984,2.06700188 -0.02801,0.071991 c 0.315002,0.2299955 0.60202,0.5019986 0.859009,0.8079986 l 0.06201,-0.029999 2.035979,-0.7050018 0.958008,2.1350095 -1.897004,0.9889989 -0.069,0.029999 c 0.06,0.397995 0.07101,0.7929993 0.035,1.1829987 l 0.05899,0.022995 L 32,8.3410047 31.168976,10.526994 29.126986,9.8860028 29.06,9.8609937 c -0.232026,0.3150023 -0.503998,0.6030123 -0.812012,0.8600003 l 0.02701,0.058 0.705994,2.035004 -2.13501,0.957 -0.98999,-1.899002 -0.02901,-0.064 c -0.395995,0.06 -0.79399,0.07201 -1.183989,0.03599 l -0.02301,0.056 -0.936997,1.939011 -2.188001,-0.830002 0.64401,-2.044998 0.02399,-0.06401 C 21.847996,10.666993 21.560995,10.392 21.302984,10.086 l -0.05899,0.026 -2.01001,0.764999 -0.957001,-2.1340025 1.871003,-1.0480047 0.073,-0.030991 c -0.06,-0.3970031 -0.071,-0.7920074 -0.03499,-1.1820068 l -0.06401,-0.024002 -1.960999,-0.8789983 0.831009,-2.1860044 2.065002,0.5840149 0.075,0.028 c 0.231995,-0.3130036 0.502989,-0.5990143 0.807997,-0.8530119 l -0.02901,-0.069 -0.765989,-2.0079961 2.136,-0.96000677 1.046997,1.87400827 0.033,0.074997 c 0.394989,-0.058991 0.788987,-0.071991 1.176987,-0.037003 l 0.026,-0.065994 z"
         style="fill:#ffffff;fill-opacity:1" />
    </g>
    <path
       id="path5"
       d="m 7.8150555,15.294645 v 0 c -3.6823653,0 -6.6675007,-2.985135 -6.6675007,-6.6674997 0,-3.6823653 2.9851354,-6.6675 6.6675007,-6.6675 v 0 c 3.6823645,0 6.6675005,2.9851347 6.6675005,6.6675 0,3.6823647 -2.985136,6.6674997 -6.6675005,6.6674997 z m 0,0.952499 c 4.2084135,0 7.6199995,-3.411586 7.6199995,-7.6199987 0,-4.2084132 -3.411586,-7.6200006 -7.6199995,-7.6200006 v 0 c -4.2084135,0 -7.62000041,3.4115874 -7.62000041,7.6200006 0,4.2084127 3.41158691,7.6199987 7.62000041,7.6199987 z"
       fill="#000000"
       style="fill:#ffffff;fill-opacity:1;stroke-width:0.0148828" />
  </g>
</svg>
