<?xml version="1.0" encoding="utf-8"?>
<!-- Generator: Adobe Illustrator 25.3.1, SVG Export Plug-In . SVG Version: 6.00 Build 0)  -->
<svg version="1.1" id="图层_1" xmlns="http://www.w3.org/2000/svg" xmlns:xlink="http://www.w3.org/1999/xlink" x="0px" y="0px"
	 viewBox="0 0 189 80.9" style="enable-background:new 0 0 189 80.9;" xml:space="preserve">
<style type="text/css">
	.st0{fill:#0188FB;}
	.st1{fill:#707070;}
	.st2{fill:#FFFFFF;}
</style>
<path class="st0" d="M59,20.5l-22.3-13c-2.7-1.6-6-1.6-8.7,0l-22.3,13C3,22.1,1.4,24.9,1.4,28v25.8c0,3.1,1.6,6,4.3,7.5L28,74.2
	c2.7,1.6,6,1.6,8.7,0L59,61.1c2.7-1.6,4.3-4.4,4.3-7.5V27.8C63.4,24.8,61.7,21.9,59,20.5z"/>
<g>
	<path class="st1" d="M89.6,29.7c4.3,0,8,1.5,11,4.4s4.6,6.9,4.6,11.9s-1.6,8.9-4.6,12.1S94,62.8,90,62.8c-4.1,0-7.6-1.7-10.9-5.3
		l-6.9,4.9l0.1-0.1V17.5h6.8v18.3C81.8,31.7,85.3,29.7,89.6,29.7z M79.1,46.2c0,3,1,5.6,2.8,7.5s4.1,2.9,6.8,2.9
		c2.7,0,4.9-1,6.9-2.9s2.9-4.4,2.9-7.5c0-3-1-5.6-2.9-7.6s-4.2-3-6.9-3c-2.7,0-4.9,1-6.9,3C80,40.7,79.1,43.2,79.1,46.2z"/>
	<path class="st1" d="M116.1,62.3h-6.8V17.5h6.8V62.3z"/>
	<path class="st1" d="M149,57.9c-3.2,3.2-7.2,4.8-12.1,4.8s-8.8-1.6-12.1-4.8c-3.2-3.2-4.9-7.1-4.9-11.7s1.6-8.5,4.9-11.7
		c3.2-3.2,7.2-4.8,12.1-4.8s8.8,1.6,12.1,4.8c3.2,3.2,4.9,7.1,4.9,11.7S152.3,54.7,149,57.9z M129.7,53.8c1.9,1.9,4.3,2.9,7.3,2.9
		s5.4-1,7.3-2.9c1.9-1.9,2.9-4.5,2.9-7.5c0-3.1-1-5.6-2.9-7.5s-4.3-2.9-7.3-2.9s-5.4,1-7.3,2.9c-1.9,1.9-2.9,4.5-2.9,7.5
		S127.8,51.8,129.7,53.8z"/>
	<path class="st1" d="M187.6,30.2v28c0,5.6-1.6,9.9-4.6,12.7s-7,4.2-11.9,4.2s-9.2-1.5-13.1-4.5l3.2-5.1c3.1,2.3,6.3,3.6,9.5,3.6
		s5.7-0.9,7.6-2.5c1.9-1.6,2.8-4.2,2.8-7.9v-4.1c-1,1.9-2.4,3.4-4.3,4.5c-1.9,1.1-4,1.6-6.3,1.6c-4.2,0-7.8-1.5-10.5-4.4
		c-2.8-2.9-4.1-6.7-4.1-11.1s1.4-8.2,4.1-11.1c2.8-2.9,6.2-4.4,10.5-4.4c4.2,0,7.7,1.7,10.3,5.3l3.5-2.4L187.6,30.2z M162.6,44.9
		c0,2.6,0.8,4.9,2.4,6.9c1.6,1.9,3.8,2.9,6.6,2.9s4.9-1,6.7-2.8c1.7-1.8,2.6-4.2,2.6-6.9c0-2.8-0.9-5.1-2.6-7s-4-2.9-6.7-2.9
		c-2.8,0-4.9,1-6.5,2.9C163.4,40.1,162.6,42.3,162.6,44.9z"/>
</g>
<g>
	<path class="st0" d="M153.5,13.3c-5-2.7-10.9-2.2-15.3,0.7c-1,0.8-1.3,2-0.7,3.1c0.8,1,2,1.3,3.1,0.7c3.1-2,7.4-2.4,10.9-0.5
		c3.6,1.9,5.7,5.5,5.8,9.3c0.1,0.6,0.3,1,0.8,1.6c0.4,0.3,1,0.6,1.6,0.6c1.1-0.1,2.1-1.1,2.2-2.3C161.4,21,158.5,16,153.5,13.3z"/>
	<path class="st0" d="M149.7,20.4c-2.5-1.3-5.3-1-7.5,0.3c-1,0.5-1.2,1.8-0.5,2.6c0.5,1,1.8,1.2,2.6,0.5c1-0.8,2.4-0.8,3.6-0.2
		c1.2,0.5,1.8,1.8,2,3.1c0.1,1.2,1,2,2.1,2l0,0c1,0,1.9-0.9,1.8-2C153.6,24,152.2,21.7,149.7,20.4z"/>
</g>
<path class="st2" d="M28.2,50.8h18.3c2.3,0,4.2,1.7,4.2,4S48.9,59,46.5,59H18.4c-2.3,0-4.2-1.8-4.2-4.2c0-1.1,0.4-2.2,1.2-2.9
	l21.2-21.2H18.4c-2.3,0-4.2-1.8-4.2-4.2c0-2.3,1.8-4.2,4.2-4.2h28.2c2.3,0,4.2,1.8,4.2,4.2c0,1-0.4,1.8-1,2.6l-0.2,0.3
	c-0.1,0.2-0.1,0.1-0.2,0.2l-5.9,5.9v-0.1L28.2,50.8z"/>
</svg>
